<svg xmlns="http://www.w3.org/2000/svg" width="600.04" height="542.996">
	<path d="M0 0c0 .324.084.616.094.938-.031 0-.062 0-.094 0v58.125c1.003 0 2.023-.088 3-.187L2.906 60c0 1.611.199 3.154.469 4.688L0 64.406V115.5c2.307 0 4.531-.364 6.656-.937-.4 1.75-.656 3.59-.656 5.45 0 3.099.618 6 1.688 8.719-2.394-.86-4.995-1.31-7.687-1.31v45.188c4.409 0 8.523-1.379 12-3.562-1.947 3.191-3.094 6.957-3.094 10.969 0 11.63 9.463 21 21.094 21s21.094-9.369 21.094-21c0-4.012-1.147-7.778-3.094-10.969 3.477 2.184 7.591 3.563 12 3.563s8.523-1.379 12-3.562c-1.947 3.191-3.094 6.957-3.094 10.969 0 11.63 9.463 21 21.094 21s21.094-9.369 21.094-21c0-4.012-1.147-7.778-3.094-10.969 3.477 2.184 7.591 3.563 12 3.563s8.523-1.379 12-3.562c-1.947 3.191-3.094 6.957-3.094 10.969 0 11.63 9.463 21 21.094 21s21.094-9.369 21.094-21c0-4.012-1.147-7.778-3.094-10.969 3.477 2.184 7.591 3.563 12 3.563s8.523-1.379 12-3.562c-1.947 3.191-3.094 6.957-3.094 10.969 0 11.63 9.463 21 21.094 21s21.094-9.369 21.094-21c0-4.012-1.147-7.778-3.094-10.969 3.477 2.184 7.591 3.563 12 3.563s8.523-1.379 12-3.562c-1.947 3.191-3.094 6.957-3.094 10.969 0 11.63 9.463 21 21.094 21s21.094-9.369 21.094-21c0-4.012-1.147-7.778-3.094-10.969 3.477 2.184 7.591 3.563 12 3.563s8.523-1.379 12-3.562c-1.947 3.191-3.094 6.957-3.094 10.969 0 11.63 9.463 21 21.094 21s21.094-9.369 21.094-21c0-4.012-1.147-7.778-3.094-10.969 3.477 2.184 7.591 3.563 12 3.563s8.523-1.379 12-3.562c-1.947 3.191-3.094 6.957-3.094 10.969 0 11.63 9.463 21 21.094 21s21.094-9.369 21.094-21c0-4.012-1.147-7.778-3.094-10.969 3.477 2.184 7.591 3.563 12 3.563s8.523-1.379 12-3.562c-1.947 3.191-3.094 6.957-3.094 10.969 0 11.63 9.463 21 21.094 21s21.094-9.369 21.094-21c0-4.012-1.147-7.778-3.094-10.969 3.477 2.184 7.591 3.563 12 3.563s8.523-1.379 12-3.562c-1.947 3.191-3.094 6.957-3.094 10.969 0 11.63 9.463 21 21.094 21s21.094-9.369 21.094-21c0-4.012-1.147-7.778-3.094-10.969 3.477 2.184 7.591 3.563 12 3.563s8.523-1.379 12-3.562c-1.947 3.191-3.094 6.957-3.094 10.969 0 11.63 9.463 21 21.094 21s21.094-9.369 21.094-21c0-4.012-1.147-7.778-3.094-10.969 3.477 2.184 7.591 3.563 12 3.563v-45.188c-2.692 0-5.293.448-7.687 1.313 1.069-2.719 1.688-5.62 1.688-8.719 0-1.858-.256-3.7-.656-5.437 2.126.574 4.349.938 6.656.938V64.421c-1.141 0-2.273.136-3.375.281.27-1.533.469-3.077.469-4.688 0-.374-.079-.755-.094-1.125.977.099 1.997.188 3 .188V.952c-.031 0-.062 0-.094 0 .01-.322.094-.613.094-.937h-60c0 .324.083.616.094.938-.031 0-.062 0-.094 0s-.062 0-.094 0c.01-.322.094-.613.094-.937h-60c0 .324.084.616.094.938-.031 0-.062 0-.094 0s-.062 0-.094 0c.01-.322.094-.613.094-.937h-60c0 .324.084.616.094.938-.031 0-.062 0-.094 0s-.062 0-.094 0c.01-.322.094-.613.094-.937h-60c0 .324.084.616.094.938-.031 0-.062 0-.094 0s-.062 0-.094 0c.01-.322.094-.613.094-.937h-60c0 .324.084.616.094.938-.031 0-.062 0-.094 0s-.062 0-.094 0c.01-.322.094-.613.094-.937h-60c0 .324.084.616.094.938-.031 0-.062 0-.094 0s-.062 0-.094 0c.011-.322.094-.613.094-.937h-60c0 .324.084.616.094.938-.031 0-.062 0-.094 0s-.062 0-.094 0c.011-.322.094-.613.094-.937h-60c0 .324.084.616.094.938-.031 0-.062 0-.094 0s-.062 0-.094 0c.01-.322.094-.613.094-.937h-60c0 .324.084.616.094.938-.031 0-.062 0-.094 0s-.062 0-.094 0c.01-.32.094-.62.094-.94h-60zm29.062 29.906c.312.009.623.094.938.094s.625-.084.938-.094v.094c0 1.003.088 1.929.188 2.906-.37-.015-.752 0-1.125 0s-.755-.015-1.125 0c.099-.977.188-1.903.188-2.906v-.094zm60 0c.312.009.623.094.938.094s.625-.084.938-.094v.094c0 1.003.088 1.929.188 2.906-.37-.015-.752 0-1.125 0s-.755-.015-1.125 0c.099-.977.188-1.903.188-2.906v-.094zm60 0c.312.009.623.094.938.094s.625-.084.938-.094v.094c0 1.003.088 1.929.188 2.906-.37-.015-.752 0-1.125 0s-.755-.015-1.125 0c.099-.977.188-1.903.188-2.906v-.094zm60 0c.312.009.623.094.938.094s.625-.084.938-.094v.094c0 1.003.088 1.929.188 2.906-.37-.015-.752 0-1.125 0s-.755-.015-1.125 0c.099-.977.188-1.903.188-2.906v-.094zm60 0c.312.009.623.094.938.094s.625-.084.938-.094v.094c0 1.003.088 1.929.188 2.906-.37-.015-.752 0-1.125 0s-.755-.015-1.125 0c.099-.977.188-1.903.188-2.906v-.094zm60 0c.312.009.623.094.938.094s.625-.084.938-.094v.094c0 1.003.088 1.929.188 2.906-.37-.015-.752 0-1.125 0s-.755-.015-1.125 0c.099-.977.188-1.903.188-2.906v-.094zm60 0c.312.009.623.094.938.094s.625-.084.938-.094v.094c0 1.003.088 1.929.188 2.906-.37-.015-.752 0-1.125 0s-.755-.015-1.125 0c.099-.977.188-1.903.188-2.906v-.094zm60 0c.312.009.623.094.938.094s.625-.084.938-.094v.094c0 1.003.088 1.929.188 2.906-.37-.015-.752 0-1.125 0s-.755-.015-1.125 0c.099-.977.188-1.903.188-2.906v-.094zm60 0c.312.009.623.094.938.094s.625-.084.938-.094v.094c0 1.003.088 1.929.188 2.906-.37-.015-.752 0-1.125 0s-.755-.015-1.125 0c.099-.977.188-1.903.188-2.906v-.094zm60 0c.312.009.623.094.938.094s.625-.084.938-.094v.094c0 1.003.088 1.929.188 2.906-.37-.015-.752 0-1.125 0s-.755-.015-1.125 0c.099-.977.188-1.903.188-2.906v-.094zm-512.06 28.97c.977.099 1.997.188 3 .188s2.023-.088 3-.187c-.015.37-.094.751-.094 1.125 0 1.611.199 3.154.469 4.688-1.102-.145-2.234-.281-3.375-.281s-2.273.136-3.375.281c.27-1.533.469-3.077.469-4.688 0-.374-.079-.755-.094-1.125zm60 0c.977.099 1.997.188 3 .188s2.023-.088 3-.187c-.015.37-.094.751-.094 1.125 0 1.611.199 3.154.469 4.688-1.102-.145-2.234-.281-3.375-.281s-2.273.136-3.375.281c.27-1.533.469-3.077.469-4.688 0-.374-.079-.755-.094-1.125zm60 0c.977.099 1.997.188 3 .188s2.023-.088 3-.187c-.015.37-.094.751-.094 1.125 0 1.611.199 3.154.469 4.688-1.102-.145-2.234-.281-3.375-.281s-2.273.136-3.375.281c.27-1.533.469-3.077.469-4.688 0-.374-.079-.755-.094-1.125zm60 0c.977.099 1.997.188 3 .188s2.023-.088 3-.187c-.015.37-.094.751-.094 1.125 0 1.611.199 3.154.469 4.688-1.102-.145-2.234-.281-3.375-.281s-2.273.136-3.375.281c.27-1.533.469-3.077.469-4.688 0-.374-.079-.755-.094-1.125zm60 0c.977.099 1.997.188 3 .188s2.023-.088 3-.187c-.015.37-.094.751-.094 1.125 0 1.611.199 3.154.469 4.688-1.102-.145-2.234-.281-3.375-.281s-2.273.136-3.375.281c.27-1.533.469-3.077.469-4.688 0-.374-.079-.755-.094-1.125zm60 0c.977.099 1.997.188 3 .188s2.023-.088 3-.187c-.015.37-.094.751-.094 1.125 0 1.611.199 3.154.469 4.688-1.102-.145-2.234-.281-3.375-.281s-2.273.136-3.375.281c.27-1.533.469-3.077.469-4.688 0-.374-.079-.755-.094-1.125zm60 0c.977.099 1.997.188 3 .188s2.023-.088 3-.187c-.015.37-.094.751-.094 1.125 0 1.611.199 3.154.469 4.688-1.102-.145-2.234-.281-3.375-.281s-2.273.136-3.375.281c.27-1.533.469-3.077.469-4.688 0-.374-.079-.755-.094-1.125zm60 0c.977.099 1.997.188 3 .188s2.023-.088 3-.187c-.015.37-.094.751-.094 1.125 0 1.611.199 3.154.469 4.688-1.102-.145-2.234-.281-3.375-.281s-2.273.136-3.375.281c.27-1.533.469-3.077.469-4.688 0-.374-.079-.755-.094-1.125zm60 0c.977.099 1.997.188 3 .188s2.023-.088 3-.187c-.015.37-.094.751-.094 1.125 0 1.611.199 3.154.469 4.688-1.102-.145-2.234-.281-3.375-.281s-2.273.136-3.375.281c.27-1.533.469-3.077.469-4.688 0-.374-.079-.755-.094-1.125zm-511.69 27.65c1.527.268 3.084.469 4.688.469s3.16-.201 4.688-.469c-.153 1.131-.187 2.295-.187 3.469 0 2.284.281 4.456.844 6.563-1.71-.387-3.516-.562-5.344-.562s-3.633.175-5.344.563c.562-2.106.844-4.279.844-6.562 0-1.173-.034-2.337-.187-3.469zm60 0c1.527.268 3.084.469 4.688.469s3.16-.201 4.688-.469c-.153 1.131-.187 2.295-.187 3.469 0 2.284.281 4.456.844 6.563-1.71-.387-3.516-.562-5.344-.562s-3.633.175-5.344.563c.562-2.106.844-4.279.844-6.562 0-1.173-.034-2.337-.187-3.469zm60 0c1.527.268 3.084.469 4.688.469s3.161-.201 4.688-.469c-.153 1.131-.187 2.295-.187 3.469 0 2.284.281 4.456.844 6.563-1.71-.387-3.516-.562-5.344-.562s-3.633.175-5.344.563c.562-2.106.844-4.279.844-6.562 0-1.173-.034-2.337-.187-3.469zm60 0c1.527.268 3.084.469 4.688.469s3.161-.201 4.688-.469c-.153 1.131-.187 2.295-.187 3.469 0 2.284.281 4.456.844 6.563-1.71-.387-3.516-.562-5.344-.562s-3.633.175-5.344.563c.562-2.106.844-4.279.844-6.562 0-1.173-.034-2.337-.187-3.469zm60 0c1.527.268 3.084.469 4.688.469s3.161-.201 4.688-.469c-.153 1.131-.187 2.295-.187 3.469 0 2.284.281 4.456.844 6.563-1.71-.387-3.516-.562-5.344-.562s-3.633.175-5.344.563c.562-2.106.844-4.279.844-6.562 0-1.173-.034-2.337-.187-3.469zm60 0c1.527.268 3.084.469 4.688.469s3.161-.201 4.688-.469c-.153 1.131-.187 2.295-.187 3.469 0 2.284.281 4.456.844 6.563-1.71-.387-3.516-.562-5.344-.562s-3.633.175-5.344.563c.562-2.106.844-4.279.844-6.562 0-1.173-.034-2.337-.187-3.469zm60 0c1.527.268 3.084.469 4.688.469s3.161-.201 4.688-.469c-.153 1.131-.187 2.295-.187 3.469 0 2.284.281 4.456.844 6.563-1.71-.387-3.516-.562-5.344-.562s-3.633.175-5.344.563c.562-2.106.844-4.279.844-6.562 0-1.173-.034-2.337-.187-3.469zm60 0c1.527.268 3.084.469 4.688.469s3.161-.201 4.688-.469c-.153 1.131-.187 2.295-.187 3.469 0 2.284.281 4.456.844 6.563-1.71-.387-3.516-.562-5.344-.562s-3.633.175-5.344.563c.562-2.106.844-4.279.844-6.562 0-1.173-.034-2.337-.187-3.469zm60 0c1.527.268 3.084.469 4.688.469s3.161-.201 4.688-.469c-.153 1.131-.187 2.295-.187 3.469 0 2.284.281 4.456.844 6.563-1.71-.387-3.516-.562-5.344-.562s-3.633.175-5.344.563c.562-2.106.844-4.279.844-6.562 0-1.173-.034-2.337-.187-3.469zm60 0c1.527.268 3.084.469 4.688.469s3.16-.201 4.688-.469c-.153 1.131-.187 2.295-.187 3.469 0 2.284.281 4.456.844 6.563-1.71-.387-3.516-.562-5.344-.562s-3.633.175-5.344.563c.562-2.106.844-4.279.844-6.562 0-1.173-.034-2.337-.187-3.469zm-511.97 28.03c2.126.574 4.349.938 6.656.938s4.531-.364 6.656-.937c-.4 1.74-.656 3.58-.656 5.44 0 3.099.618 6 1.688 8.719-2.394-.864-4.995-1.312-7.687-1.312s-5.293.448-7.687 1.313c1.069-2.719 1.688-5.62 1.688-8.719 0-1.858-.256-3.7-.656-5.437zm60 0c2.126.574 4.349.938 6.656.938s4.531-.364 6.656-.937c-.4 1.737-.656 3.579-.656 5.438 0 3.099.618 6 1.688 8.719-2.394-.864-4.995-1.312-7.687-1.312s-5.293.448-7.687 1.313c1.069-2.719 1.688-5.62 1.688-8.719 0-1.858-.256-3.7-.656-5.437zm60 0c2.126.574 4.349.938 6.656.938s4.531-.364 6.656-.937c-.4 1.737-.656 3.579-.656 5.438 0 3.099.618 6 1.688 8.719-2.394-.864-4.995-1.312-7.687-1.312s-5.293.448-7.687 1.313c1.069-2.719 1.688-5.62 1.688-8.719 0-1.858-.256-3.7-.656-5.437zm60 0c2.126.574 4.349.938 6.656.938s4.531-.364 6.656-.937c-.4 1.737-.656 3.579-.656 5.438 0 3.099.618 6 1.688 8.719-2.394-.864-4.995-1.312-7.687-1.312s-5.293.448-7.687 1.313c1.069-2.719 1.688-5.62 1.688-8.719 0-1.858-.256-3.7-.656-5.437zm60 0c2.126.574 4.349.938 6.656.938s4.531-.364 6.656-.937c-.39 1.74-.65 3.58-.65 5.44 0 3.099.618 6 1.688 8.719-2.394-.864-4.995-1.312-7.687-1.312s-5.293.448-7.687 1.313c1.069-2.719 1.688-5.62 1.688-8.719 0-1.858-.256-3.7-.656-5.437zm60 0c2.126.574 4.349.938 6.656.938s4.531-.364 6.656-.937c-.39 1.74-.65 3.58-.65 5.44 0 3.099.618 6 1.688 8.719-2.394-.864-4.995-1.312-7.687-1.312s-5.293.448-7.687 1.313c1.069-2.719 1.688-5.62 1.688-8.719 0-1.858-.257-3.7-.656-5.437zm60 0c2.126.574 4.349.938 6.656.938s4.531-.364 6.656-.937c-.39 1.74-.65 3.58-.65 5.44 0 3.099.618 6 1.688 8.719-2.394-.864-4.995-1.312-7.687-1.312s-5.293.448-7.687 1.313c1.069-2.719 1.688-5.62 1.688-8.719 0-1.858-.257-3.7-.656-5.437zm60 0c2.126.574 4.349.938 6.656.938s4.531-.364 6.656-.937c-.39 1.74-.65 3.58-.65 5.44 0 3.099.618 6 1.688 8.719-2.394-.864-4.995-1.312-7.687-1.312s-5.293.448-7.687 1.313c1.069-2.719 1.688-5.62 1.688-8.719 0-1.858-.257-3.7-.656-5.437zm60 0c2.126.574 4.349.938 6.656.938s4.531-.364 6.656-.937c-.39 1.74-.65 3.58-.65 5.44 0 3.099.618 6 1.688 8.719-2.394-.864-4.995-1.312-7.687-1.312s-5.293.448-7.687 1.313c1.069-2.719 1.688-5.62 1.688-8.719 0-1.858-.256-3.7-.656-5.437zm-512.15 27.66c2.727 1.076 5.703 1.781 8.813 1.781s6.086-.705 8.813-1.781c-.887 2.422-1.406 5.052-1.406 7.781 0 4.409 1.285 8.43 3.469 11.906-3.172-1.915-6.9-3-10.875-3s-7.703 1.085-10.875 3c2.184-3.477 3.469-7.498 3.469-11.906 0-2.729-.52-5.359-1.406-7.781zm60 0c2.727 1.076 5.703 1.781 8.813 1.781s6.086-.705 8.813-1.781c-.887 2.422-1.406 5.052-1.406 7.781 0 4.409 1.285 8.43 3.469 11.906-3.172-1.915-6.9-3-10.875-3s-7.703 1.085-10.875 3c2.184-3.477 3.469-7.498 3.469-11.906 0-2.729-.52-5.359-1.406-7.781zm60 0c2.727 1.076 5.703 1.781 8.813 1.781s6.086-.705 8.813-1.781c-.887 2.422-1.406 5.052-1.406 7.781 0 4.409 1.285 8.43 3.469 11.906-3.172-1.915-6.9-3-10.875-3s-7.703 1.085-10.875 3c2.184-3.477 3.469-7.498 3.469-11.906 0-2.729-.52-5.359-1.406-7.781zm60 0c2.727 1.076 5.703 1.781 8.813 1.781s6.086-.705 8.813-1.781c-.887 2.422-1.406 5.052-1.406 7.781 0 4.409 1.285 8.43 3.469 11.906-3.172-1.915-6.9-3-10.875-3s-7.703 1.085-10.875 3c2.184-3.477 3.469-7.498 3.469-11.906 0-2.729-.52-5.359-1.406-7.781zm60 0c2.727 1.076 5.703 1.781 8.813 1.781s6.086-.705 8.813-1.781c-.887 2.422-1.406 5.052-1.406 7.781 0 4.409 1.285 8.43 3.469 11.906-3.172-1.915-6.9-3-10.875-3s-7.703 1.085-10.875 3c2.184-3.477 3.469-7.498 3.469-11.906 0-2.729-.52-5.359-1.406-7.781zm60 0c2.727 1.076 5.703 1.781 8.813 1.781s6.086-.705 8.813-1.781c-.887 2.422-1.406 5.052-1.406 7.781 0 4.409 1.285 8.43 3.469 11.906-3.172-1.915-6.9-3-10.875-3s-7.703 1.085-10.875 3c2.184-3.477 3.469-7.498 3.469-11.906 0-2.729-.52-5.359-1.406-7.781zm60 0c2.727 1.076 5.703 1.781 8.813 1.781s6.086-.705 8.813-1.781c-.887 2.422-1.406 5.052-1.406 7.781 0 4.409 1.285 8.43 3.469 11.906-3.172-1.915-6.9-3-10.875-3s-7.703 1.085-10.875 3c2.184-3.477 3.469-7.498 3.469-11.906 0-2.729-.52-5.359-1.406-7.781zm60 0c2.727 1.076 5.703 1.781 8.813 1.781s6.086-.705 8.813-1.781c-.887 2.422-1.406 5.052-1.406 7.781 0 4.409 1.285 8.43 3.469 11.906-3.172-1.915-6.9-3-10.875-3s-7.703 1.085-10.875 3c2.184-3.477 3.469-7.498 3.469-11.906 0-2.729-.52-5.359-1.406-7.781zm60 0c2.727 1.076 5.703 1.781 8.813 1.781s6.086-.705 8.813-1.781c-.887 2.422-1.406 5.052-1.406 7.781 0 4.409 1.285 8.43 3.469 11.906-3.172-1.915-6.9-3-10.875-3s-7.703 1.085-10.875 3c2.184-3.477 3.469-7.498 3.469-11.906 0-2.729-.52-5.359-1.406-7.781zm60 0c2.727 1.076 5.703 1.781 8.813 1.781s6.086-.705 8.813-1.781c-.887 2.422-1.406 5.052-1.406 7.781 0 4.409 1.285 8.43 3.469 11.906-3.172-1.915-6.9-3-10.875-3s-7.703 1.085-10.875 3c2.184-3.477 3.469-7.498 3.469-11.906 0-2.729-.52-5.359-1.406-7.781zM.002 190.406v39.09a19.48 19.48 0 0 0 19.5-19.5c0-10.786-8.714-19.594-19.5-19.594zm60 0c-10.786 0-19.5 8.808-19.5 19.594a19.48 19.48 0 0 0 19.5 19.5c10.786 0 19.5-8.714 19.5-19.5s-8.714-19.594-19.5-19.594zm60 0c-10.786 0-19.5 8.808-19.5 19.594a19.48 19.48 0 0 0 19.5 19.5c10.786 0 19.5-8.714 19.5-19.5s-8.714-19.594-19.5-19.594zm60 0c-10.786 0-19.5 8.808-19.5 19.594a19.48 19.48 0 0 0 19.5 19.5c10.786 0 19.5-8.714 19.5-19.5s-8.714-19.594-19.5-19.594zm60 0c-10.786 0-19.5 8.808-19.5 19.594a19.48 19.48 0 0 0 19.5 19.5c10.786 0 19.5-8.714 19.5-19.5s-8.714-19.594-19.5-19.594zm60 0c-10.786 0-19.5 8.808-19.5 19.594a19.48 19.48 0 0 0 19.5 19.5c10.786 0 19.5-8.714 19.5-19.5s-8.714-19.594-19.5-19.594zm60 0c-10.786 0-19.5 8.808-19.5 19.594a19.48 19.48 0 0 0 19.5 19.5c10.786 0 19.5-8.714 19.5-19.5s-8.714-19.594-19.5-19.594zm60 0c-10.786 0-19.5 8.808-19.5 19.594a19.48 19.48 0 0 0 19.5 19.5c10.786 0 19.5-8.714 19.5-19.5s-8.714-19.594-19.5-19.594zm60 0c-10.786 0-19.5 8.808-19.5 19.594a19.48 19.48 0 0 0 19.5 19.5c10.786 0 19.5-8.714 19.5-19.5s-8.714-19.594-19.5-19.594zm60 0c-10.786 0-19.5 8.808-19.5 19.594a19.48 19.48 0 0 0 19.5 19.5c10.786 0 19.5-8.714 19.5-19.5s-8.714-19.594-19.5-19.594zm60 0c-10.786 0-19.5 8.808-19.5 19.594a19.48 19.48 0 0 0 19.5 19.5zm-570 31.4c-10.006 0-18.094 8.181-18.094 18.188a18.08 18.08 0 0 0 18.094 18.094 18.08 18.08 0 0 0 18.094-18.094c0-10.006-8.088-18.188-18.094-18.188zm60 0c-10.006 0-18.094 8.181-18.094 18.188a18.08 18.08 0 1 0 36.188 0c0-10.006-8.088-18.188-18.094-18.188zm60 0c-10.006 0-18.094 8.181-18.094 18.188a18.08 18.08 0 1 0 36.188 0c0-10.006-8.088-18.188-18.094-18.188zm60 0c-10.006 0-18.094 8.181-18.094 18.188a18.08 18.08 0 1 0 36.188 0c0-10.006-8.088-18.188-18.094-18.188zm60 0c-10.006 0-18.094 8.181-18.094 18.188a18.08 18.08 0 1 0 36.188 0c0-10.006-8.088-18.188-18.094-18.188zm60 0c-10.006 0-18.094 8.181-18.094 18.188a18.08 18.08 0 1 0 36.188 0c0-10.006-8.088-18.188-18.094-18.188zm60 0c-10.006 0-18.094 8.181-18.094 18.188a18.08 18.08 0 1 0 36.188 0c0-10.006-8.088-18.188-18.094-18.188zm60 0c-10.006 0-18.094 8.181-18.094 18.188a18.08 18.08 0 1 0 36.188 0c0-10.006-8.088-18.188-18.094-18.188zm60 0c-10.006 0-18.094 8.181-18.094 18.188a18.08 18.08 0 1 0 36.188 0c0-10.006-8.088-18.188-18.094-18.188zm60 0c-10.006 0-18.094 8.181-18.094 18.188a18.08 18.08 0 1 0 36.188 0c0-10.006-8.088-18.188-18.094-18.188zM.002 253.4v33.188a16.6 16.6 0 0 0 16.594-16.594c0-9.161-7.432-16.594-16.594-16.594zm60 0a16.6 16.6 0 0 0-16.594 16.594c0 9.161 7.432 16.594 16.594 16.594s16.594-7.432 16.594-16.594S69.164 253.4 60.002 253.4zm60 0c-9.161 0-16.594 7.432-16.594 16.594s7.432 16.594 16.594 16.594 16.594-7.432 16.594-16.594-7.432-16.594-16.594-16.594zm60 0a16.6 16.6 0 0 0-16.594 16.594c0 9.161 7.432 16.594 16.594 16.594s16.594-7.432 16.594-16.594-7.432-16.594-16.594-16.594zm60 0c-9.161 0-16.594 7.432-16.594 16.594s7.432 16.594 16.594 16.594 16.594-7.432 16.594-16.594-7.432-16.594-16.594-16.594zm60 0c-9.161 0-16.594 7.432-16.594 16.594s7.432 16.594 16.594 16.594 16.594-7.432 16.594-16.594-7.432-16.594-16.594-16.594zm60 0c-9.161 0-16.594 7.432-16.594 16.594s7.432 16.594 16.594 16.594 16.594-7.432 16.594-16.594-7.432-16.594-16.594-16.594zm60 0c-9.161 0-16.594 7.432-16.594 16.594s7.432 16.594 16.594 16.594 16.594-7.432 16.594-16.594-7.432-16.594-16.594-16.594zm60 0c-9.161 0-16.594 7.432-16.594 16.594s7.432 16.594 16.594 16.594 16.594-7.432 16.594-16.594-7.432-16.594-16.594-16.594zm60 0c-9.161 0-16.594 7.432-16.594 16.594s7.432 16.594 16.594 16.594 16.594-7.432 16.594-16.594-7.432-16.594-16.594-16.594zm60 0c-9.161 0-16.594 7.432-16.594 16.594s7.432 16.594 16.594 16.594zm-570 31.5c-8.317 0-15.094 6.777-15.094 15.094s6.777 15 15.094 15 15.094-6.683 15.094-15S38.319 284.9 30.002 284.9zm60 0c-8.317 0-15.094 6.777-15.094 15.094s6.777 15 15.094 15 15.094-6.683 15.094-15S98.319 284.9 90.002 284.9zm60 0c-8.317 0-15.094 6.777-15.094 15.094s6.777 15 15.094 15 15.094-6.683 15.094-15-6.777-15.094-15.094-15.094zm60 0c-8.317 0-15.094 6.777-15.094 15.094s6.777 15 15.094 15 15.094-6.683 15.094-15-6.777-15.094-15.094-15.094zm60 0c-8.317 0-15.094 6.777-15.094 15.094s6.777 15 15.094 15 15.094-6.683 15.094-15-6.777-15.094-15.094-15.094zm60 0c-8.317 0-15.094 6.777-15.094 15.094s6.777 15 15.094 15 15.094-6.683 15.094-15-6.777-15.094-15.094-15.094zm60 0c-8.317 0-15.094 6.777-15.094 15.094s6.777 15 15.094 15 15.094-6.683 15.094-15-6.777-15.094-15.094-15.094zm60 0c-8.317 0-15.094 6.777-15.094 15.094s6.777 15 15.094 15 15.094-6.683 15.094-15-6.777-15.094-15.094-15.094zm60 0c-8.317 0-15.094 6.777-15.094 15.094s6.777 15 15.094 15 15.094-6.683 15.094-15-6.777-15.094-15.094-15.094zm60 0c-8.317 0-15.094 6.777-15.094 15.094s6.777 15 15.094 15 15.094-6.683 15.094-15-6.777-15.094-15.094-15.094zm-570 31.5v27.094a13.48 13.48 0 0 0 13.5-13.5c0-7.472-6.028-13.594-13.5-13.594zm60 0c-7.472 0-13.5 6.122-13.5 13.594a13.48 13.48 0 1 0 27 0c0-7.472-6.028-13.594-13.5-13.594zm60 0c-7.472 0-13.5 6.122-13.5 13.594a13.48 13.48 0 1 0 27 0c0-7.472-6.028-13.594-13.5-13.594zm60 0c-7.472 0-13.5 6.122-13.5 13.594a13.48 13.48 0 1 0 27 0c0-7.472-6.028-13.594-13.5-13.594zm60 0c-7.472 0-13.5 6.122-13.5 13.594a13.48 13.48 0 1 0 27 0c0-7.472-6.028-13.594-13.5-13.594zm60 0c-7.472 0-13.5 6.122-13.5 13.594a13.48 13.48 0 1 0 27 0c0-7.472-6.028-13.594-13.5-13.594zm60 0c-7.472 0-13.5 6.122-13.5 13.594a13.48 13.48 0 1 0 27 0c0-7.472-6.028-13.594-13.5-13.594zm60 0c-7.472 0-13.5 6.122-13.5 13.594a13.48 13.48 0 1 0 27 0c0-7.472-6.028-13.594-13.5-13.594zm60 0c-7.472 0-13.5 6.122-13.5 13.594a13.48 13.48 0 1 0 27 0c0-7.472-6.028-13.594-13.5-13.594zm60 0c-7.472 0-13.5 6.122-13.5 13.594a13.48 13.48 0 1 0 27 0c0-7.472-6.028-13.594-13.5-13.594zm60 0c-7.472 0-13.5 6.122-13.5 13.594a13.48 13.48 0 0 0 13.5 13.5zm-570 31.6c-6.627 0-12 5.373-12 12s5.373 12 12 12 12-5.373 12-12-5.373-12-12-12zm60 0c-6.627 0-12 5.373-12 12s5.373 12 12 12 12-5.373 12-12-5.373-12-12-12zm60 0c-6.627 0-12 5.373-12 12s5.373 12 12 12 12-5.373 12-12-5.373-12-12-12zm60 0c-6.627 0-12 5.373-12 12s5.373 12 12 12 12-5.373 12-12-5.373-12-12-12zm60 0c-6.627 0-12 5.373-12 12s5.373 12 12 12 12-5.373 12-12-5.373-12-12-12zm60 0c-6.627 0-12 5.373-12 12s5.373 12 12 12 12-5.373 12-12-5.373-12-12-12zm60 0c-6.627 0-12 5.373-12 12s5.373 12 12 12 12-5.373 12-12-5.373-12-12-12zm60 0c-6.627 0-12 5.373-12 12s5.373 12 12 12 12-5.373 12-12-5.373-12-12-12zm60 0c-6.627 0-12 5.373-12 12s5.373 12 12 12 12-5.373 12-12-5.373-12-12-12zm60 0c-6.627 0-12 5.373-12 12s5.373 12 12 12 12-5.373 12-12-5.373-12-12-12zm-570 31.406v21.188A10.6 10.6 0 0 0 10.596 390 10.6 10.6 0 0 0 .002 379.406zm60 0A10.6 10.6 0 0 0 49.408 390a10.6 10.6 0 0 0 10.594 10.594A10.6 10.6 0 0 0 70.596 390a10.6 10.6 0 0 0-10.594-10.594zm60 0A10.6 10.6 0 0 0 109.408 390a10.6 10.6 0 0 0 10.594 10.594A10.6 10.6 0 0 0 130.596 390a10.6 10.6 0 0 0-10.594-10.594zm60 0A10.6 10.6 0 0 0 169.408 390a10.6 10.6 0 0 0 10.594 10.594A10.6 10.6 0 0 0 190.596 390a10.6 10.6 0 0 0-10.594-10.594zm60 0A10.6 10.6 0 0 0 229.408 390a10.6 10.6 0 0 0 10.594 10.594A10.6 10.6 0 0 0 250.596 390a10.6 10.6 0 0 0-10.594-10.594zm60 0A10.6 10.6 0 0 0 289.408 390a10.6 10.6 0 0 0 10.594 10.594A10.6 10.6 0 0 0 310.596 390a10.6 10.6 0 0 0-10.594-10.594zm60 0A10.6 10.6 0 0 0 349.408 390a10.6 10.6 0 0 0 10.594 10.594A10.6 10.6 0 0 0 370.596 390a10.6 10.6 0 0 0-10.594-10.594zm60 0A10.6 10.6 0 0 0 409.408 390a10.6 10.6 0 0 0 10.594 10.594A10.6 10.6 0 0 0 430.596 390a10.6 10.6 0 0 0-10.594-10.594zm60 0A10.6 10.6 0 0 0 469.408 390a10.6 10.6 0 0 0 10.594 10.594A10.6 10.6 0 0 0 490.596 390a10.6 10.6 0 0 0-10.594-10.594zm60 0A10.6 10.6 0 0 0 529.408 390a10.6 10.6 0 0 0 10.594 10.594A10.6 10.6 0 0 0 550.596 390a10.6 10.6 0 0 0-10.594-10.594zm60 0A10.6 10.6 0 0 0 589.408 390a10.6 10.6 0 0 0 10.594 10.594zm-570 31.5c-5.003 0-9.094 4.091-9.094 9.094s4.091 9 9.094 9 9.094-3.997 9.094-9-4.091-9.094-9.094-9.094zm60 0c-5.003 0-9.094 4.091-9.094 9.094s4.091 9 9.094 9 9.094-3.997 9.094-9-4.091-9.094-9.094-9.094zm60 0c-5.003 0-9.094 4.091-9.094 9.094s4.091 9 9.094 9 9.094-3.997 9.094-9-4.091-9.094-9.094-9.094zm60 0c-5.003 0-9.094 4.091-9.094 9.094s4.091 9 9.094 9 9.094-3.997 9.094-9-4.091-9.094-9.094-9.094zm60 0c-5.003 0-9.094 4.091-9.094 9.094s4.091 9 9.094 9 9.094-3.997 9.094-9-4.091-9.094-9.094-9.094zm60 0c-5.003 0-9.094 4.091-9.094 9.094s4.091 9 9.094 9 9.094-3.997 9.094-9-4.091-9.094-9.094-9.094zm60 0c-5.003 0-9.094 4.091-9.094 9.094s4.091 9 9.094 9 9.094-3.997 9.094-9-4.091-9.094-9.094-9.094zm60 0c-5.003 0-9.094 4.091-9.094 9.094s4.091 9 9.094 9 9.094-3.997 9.094-9-4.091-9.094-9.094-9.094zm60 0c-5.003 0-9.094 4.091-9.094 9.094s4.091 9 9.094 9 9.094-3.997 9.094-9-4.091-9.094-9.094-9.094zm60 0c-5.003 0-9.094 4.091-9.094 9.094s4.091 9 9.094 9 9.094-3.997 9.094-9-4.091-9.094-9.094-9.094zm-570 31.5V457.5a7.48 7.48 0 0 0 7.5-7.5c0-4.158-3.342-7.594-7.5-7.594zm60 0c-4.158 0-7.5 3.435-7.5 7.594a7.48 7.48 0 1 0 15 0c0-4.158-3.342-7.594-7.5-7.594zm60 0c-4.158 0-7.5 3.435-7.5 7.594a7.48 7.48 0 1 0 15 0c0-4.158-3.342-7.594-7.5-7.594zm60 0c-4.158 0-7.5 3.435-7.5 7.594a7.48 7.48 0 1 0 15 0c0-4.158-3.342-7.594-7.5-7.594zm60 0c-4.158 0-7.5 3.435-7.5 7.594a7.48 7.48 0 1 0 15 0c0-4.158-3.342-7.594-7.5-7.594zm60 0c-4.158 0-7.5 3.435-7.5 7.594a7.48 7.48 0 1 0 15 0c0-4.158-3.342-7.594-7.5-7.594zm60 0c-4.158 0-7.5 3.435-7.5 7.594a7.48 7.48 0 1 0 15 0c0-4.158-3.342-7.594-7.5-7.594zm60 0c-4.158 0-7.5 3.435-7.5 7.594a7.48 7.48 0 1 0 15 0c0-4.158-3.342-7.594-7.5-7.594zm60 0c-4.158 0-7.5 3.435-7.5 7.594a7.48 7.48 0 1 0 15 0c0-4.158-3.342-7.594-7.5-7.594zm60 0c-4.158 0-7.5 3.435-7.5 7.594a7.48 7.48 0 1 0 15 0c0-4.158-3.342-7.594-7.5-7.594zm60 0c-4.158 0-7.5 3.435-7.5 7.594a7.48 7.48 0 0 0 7.5 7.5v-15.094zm-570 31.59a6 6 0 1 0 0 12 6 6 0 1 0 0-12zm60 0a6 6 0 1 0 0 12 6 6 0 1 0 0-12zm60 0a6 6 0 1 0 0 12 6 6 0 1 0 0-12zm60 0a6 6 0 1 0 0 12 6 6 0 1 0 0-12zm60 0a6 6 0 1 0 0 12 6 6 0 1 0 0-12zm60 0a6 6 0 1 0 0 12 6 6 0 1 0 0-12zm60 0a6 6 0 1 0 0 12 6 6 0 1 0 0-12zm60 0a6 6 0 1 0 0 12 6 6 0 1 0 0-12zm60 0a6 6 0 1 0 0 12 6 6 0 1 0 0-12zm60 0a6 6 0 1 0 0 12 6 6 0 1 0 0-12zm-570 31.406v9.187a4.6 4.6 0 0 0 4.594-4.594 4.6 4.6 0 0 0-4.594-4.594zm60 0a4.6 4.6 0 0 0-4.594 4.594 4.6 4.6 0 0 0 4.594 4.594 4.6 4.6 0 0 0 4.594-4.594 4.6 4.6 0 0 0-4.594-4.594zm60 0a4.6 4.6 0 0 0-4.594 4.594 4.6 4.6 0 0 0 4.594 4.594 4.6 4.6 0 0 0 4.594-4.594 4.6 4.6 0 0 0-4.594-4.594zm60 0a4.6 4.6 0 0 0-4.594 4.594 4.6 4.6 0 0 0 4.594 4.594 4.6 4.6 0 0 0 4.594-4.594 4.6 4.6 0 0 0-4.594-4.594zm60 0a4.6 4.6 0 0 0-4.594 4.594 4.6 4.6 0 0 0 4.594 4.594 4.6 4.6 0 0 0 4.594-4.594 4.6 4.6 0 0 0-4.594-4.594zm60 0a4.6 4.6 0 0 0-4.594 4.594 4.6 4.6 0 0 0 4.594 4.594 4.6 4.6 0 0 0 4.594-4.594 4.6 4.6 0 0 0-4.594-4.594zm60 0a4.6 4.6 0 0 0-4.594 4.594 4.6 4.6 0 0 0 4.594 4.594 4.6 4.6 0 0 0 4.594-4.594 4.6 4.6 0 0 0-4.594-4.594zm60 0a4.6 4.6 0 0 0-4.594 4.594 4.6 4.6 0 0 0 4.594 4.594 4.6 4.6 0 0 0 4.594-4.594 4.6 4.6 0 0 0-4.594-4.594zm60 0a4.6 4.6 0 0 0-4.594 4.594 4.6 4.6 0 0 0 4.594 4.594 4.6 4.6 0 0 0 4.594-4.594 4.6 4.6 0 0 0-4.594-4.594zm60 0a4.6 4.6 0 0 0-4.594 4.594 4.6 4.6 0 0 0 4.594 4.594 4.6 4.6 0 0 0 4.594-4.594 4.6 4.6 0 0 0-4.594-4.594zm60 0a4.6 4.6 0 0 0-4.594 4.594 4.6 4.6 0 0 0 4.594 4.594zm-570 31.5a3.12 3.12 0 0 0-3.094 3.094c0 1.689 1.404 3 3.094 3s3.094-1.311 3.094-3a3.12 3.12 0 0 0-3.094-3.094zm60 0a3.12 3.12 0 0 0-3.094 3.094c0 1.689 1.404 3 3.094 3s3.094-1.311 3.094-3a3.12 3.12 0 0 0-3.094-3.094zm60 0a3.12 3.12 0 0 0-3.094 3.094c0 1.689 1.404 3 3.094 3s3.094-1.311 3.094-3a3.12 3.12 0 0 0-3.094-3.094zm60 0a3.12 3.12 0 0 0-3.094 3.094c0 1.689 1.404 3 3.094 3s3.094-1.311 3.094-3a3.12 3.12 0 0 0-3.094-3.094zm60 0a3.12 3.12 0 0 0-3.094 3.094c0 1.689 1.404 3 3.094 3s3.094-1.311 3.094-3a3.12 3.12 0 0 0-3.094-3.094zm60 0a3.12 3.12 0 0 0-3.094 3.094c0 1.689 1.404 3 3.094 3s3.094-1.311 3.094-3a3.12 3.12 0 0 0-3.094-3.094zm60 0a3.12 3.12 0 0 0-3.094 3.094c0 1.689 1.404 3 3.094 3s3.094-1.311 3.094-3a3.12 3.12 0 0 0-3.094-3.094zm60 0a3.12 3.12 0 0 0-3.094 3.094c0 1.689 1.404 3 3.094 3s3.094-1.311 3.094-3a3.12 3.12 0 0 0-3.094-3.094zm60 0a3.12 3.12 0 0 0-3.094 3.094c0 1.689 1.404 3 3.094 3s3.094-1.311 3.094-3a3.12 3.12 0 0 0-3.094-3.094zm60 0a3.12 3.12 0 0 0-3.094 3.094c0 1.689 1.404 3 3.094 3s3.094-1.311 3.094-3a3.12 3.12 0 0 0-3.094-3.094z"/>
</svg>