<?xml version="1.0" encoding="UTF-8" standalone="no"?>
<svg
   version="1.1"
   width="237.34732"
   height="242.03876"
   viewBox="0 0 237.34732 242.03876"
   id="svg11"
   sodipodi:docname="logo.svg"
   inkscape:version="1.2.2 (b0a8486541, 2022-12-01)"
   inkscape:export-filename="logo.png"
   inkscape:export-xdpi="16.006147"
   inkscape:export-ydpi="16.006147"
   xmlns:inkscape="http://www.inkscape.org/namespaces/inkscape"
   xmlns:sodipodi="http://sodipodi.sourceforge.net/DTD/sodipodi-0.dtd"
   xmlns="http://www.w3.org/2000/svg"
   xmlns:svg="http://www.w3.org/2000/svg">
  <defs
     id="defs11" />
  <sodipodi:namedview
     id="namedview11"
     pagecolor="#ffffff"
     bordercolor="#000000"
     borderopacity="0.25"
     inkscape:showpageshadow="2"
     inkscape:pageopacity="0.0"
     inkscape:pagecheckerboard="0"
     inkscape:deskcolor="#d1d1d1"
     showgrid="false"
     inkscape:zoom="1.7432539"
     inkscape:cx="597.44596"
     inkscape:cy="754.04965"
     inkscape:window-width="1920"
     inkscape:window-height="1031"
     inkscape:window-x="0"
     inkscape:window-y="25"
     inkscape:window-maximized="1"
     inkscape:current-layer="svg11"
     showguides="true">
    <sodipodi:guide
       position="381.80779,241.80391"
       orientation="0,-1"
       id="guide10440"
       inkscape:locked="false" />
  </sodipodi:namedview>
  <path
     data-name="Compound Path"
     d="m 226.52986,37.579275 c 0,-14.31289 -11.39946,-25.91579 -25.46139,-25.91579 H 35.569396 c -14.06194,0 -25.46139,11.6029 -25.46139,25.91579 V 206.03194 c 0,14.31289 11.39945,25.91579 25.46139,25.91579 H 201.06847 c 14.06193,0 25.46139,-11.6029 25.46139,-25.91579 0.96733,1.13486 0,-168.452665 0,-168.452665 z M 216.3453,206.03194 c 0,8.58773 -6.83968,15.54947 -15.27683,15.54947 H 35.569396 c -8.43716,0 -15.27683,-6.96174 -15.27683,-15.54947 V 37.579275 c 0,-8.58774 6.83967,-15.54948 15.27683,-15.54948 H 201.06847 c 8.43716,0 15.27683,6.96174 15.27683,15.54948 z"
     fill="#000000"
     data-fill-palette-color="accent"
     id="path6"
     style="display:inline;stroke:#000000;stroke-width:10;stroke-dasharray:none"
     inkscape:label="square"
     sodipodi:nodetypes="csssssscccsssssscc" />
  <path
     data-name="Compound Path"
     d="m 183.65075,63.744675 a 5.6448899,5.6448899 0 0 0 -4.79816,-0.84673 l -80.439684,21.45058 a 5.6448899,5.6448899 0 0 0 -4.23366,5.36264 V 157.1676 a 29.353427,29.353427 0 0 0 -15.24121,-4.23367 c -14.67671,0 -26.53098,10.44305 -26.53098,22.8618 0,12.41876 11.85427,22.8618 26.53098,22.8618 14.67671,0 26.530984,-10.44304 26.530984,-22.8618 v -52.77971 l 69.1499,-18.62814 v 34.71607 a 29.353427,29.353427 0 0 0 -15.2412,-4.23367 c -14.67671,0 -26.53098,10.44305 -26.53098,22.8618 0,12.41876 11.85427,22.86181 26.53098,22.86181 14.67671,0 26.53098,-10.44305 26.53098,-22.86181 V 68.260585 a 5.6448899,5.6448899 0 0 0 -2.25795,-4.51591 z M 78.938036,187.93225 c -8.46734,0 -15.2412,-5.36265 -15.2412,-11.57203 0,-6.20938 6.77386,-11.57202 15.2412,-11.57202 8.46733,0 15.24121,5.36264 15.24121,11.57202 0,6.20938 -6.77388,11.28978 -15.24121,11.28978 z M 105.46902,111.44399 V 94.509325 l 69.1499,-18.91038 v 16.93467 z m 53.62645,58.42461 c -8.46733,0 -15.2412,-5.36265 -15.2412,-11.57202 0,-6.20938 7.05612,-12.13652 15.52345,-12.13652 8.46734,0 15.2412,5.36264 15.2412,11.57202 0,6.20938 -6.77386,11.85428 -15.2412,11.85428 z"
     fill="#000000"
     data-fill-palette-color="accent"
     id="path11"
     style="display:inline;fill:#00feff;fill-opacity:1;stroke:#00ffff;stroke-width:10;stroke-dasharray:none"
     inkscape:label="note" />
  <path
     id="path12"
     style="display:inline;fill:#ff00ff;stroke:#ff00ff;stroke-width:10;stroke-dasharray:none"
     inkscape:label="note"
     d="m 165.4307,45.616515 c -2.28321,0.30725 -4.47349,1.11103 -6.71375,1.64142 -25.12604,6.70491 -50.2571,13.39345 -75.380004,20.10858 -2.57575,0.72174 -4.68671,2.87219 -5.31416,5.47779 -0.45414,1.98416 -0.16432,4.04836 -0.24639,6.06831 0,19.95143 0,39.902855 0,59.854285 -8.22131,-3.8681 -18.13627,-3.89639 -26.39193,-0.1014 -6.77574,3.06056 -12.50668,8.88478 -14.55477,16.13232 -1.79517,6.12615 -0.59409,12.96737 2.98342,18.22717 4.71585,7.12962 12.93027,11.51338 21.34796,12.35345 9.25127,1.0095 19.06088,-2.16417 25.4667,-9.02901 4.1158,-4.32696 6.62217,-10.24517 6.43768,-16.25284 0,-16.88203 0,-33.76406 0,-50.64609 21.716804,-5.85026 43.433604,-11.700525 65.150394,-17.550785 0,9.600915 0,19.201825 0,28.802735 -8.28232,-3.89661 -18.28022,-3.8928 -26.57319,-0.0192 -6.68975,3.08173 -12.34374,8.86282 -14.36887,16.04396 -1.8147,6.1596 -0.58325,13.04388 3.03418,18.31858 4.74567,7.10941 12.97197,11.46391 21.39195,12.27934 9.22407,0.97849 18.98673,-2.20326 25.37283,-9.04238 4.08613,-4.3056 6.59431,-10.17682 6.43217,-16.15056 -0.008,-29.79619 0.0156,-59.593265 -0.0117,-89.388895 -0.12893,-3.06284 -2.2939,-5.94591 -5.26192,-6.79495 -0.89848,-0.29509 -1.85861,-0.37615 -2.80062,-0.33178 z m -7.21485,30.29102 c -21.71679,5.9388 -43.43359,11.8776 -65.150394,17.8164 0,-4.26237 0,-8.52474 0,-12.78711 21.716804,-5.9388 43.433604,-11.8776 65.150394,-17.8164 0,4.26237 0,8.52474 0,12.78711 z M 145.70023,133.0755 c 4.23253,0.18048 8.67649,1.89345 11.17434,5.45877 1.57996,2.16269 1.77897,5.20362 0.43454,7.53017 -2.11991,3.82293 -6.46326,5.92513 -10.69233,6.34102 -0.84014,0.13321 -1.76076,-0.0138 -2.5559,0.17015 -0.42711,0.375 -1.12736,0.0261 -1.66617,0.0427 -3.96187,-0.52575 -8.03907,-2.47359 -10.05729,-6.06888 -1.30128,-2.23419 -1.10093,-5.12343 0.31157,-7.25707 2.73612,-4.29114 8.08985,-6.43192 13.05124,-6.21684 z m -80.439454,18.6289 c 4.26513,0.17784 8.74778,1.92191 11.23026,5.54168 1.56782,2.20228 1.72753,5.31293 0.24066,7.59833 -2.15822,3.4313 -6.22857,5.14341 -10.12522,5.59241 -1.35196,0.15174 -2.71472,0.1063 -4.07227,0.14844 -0.16822,0.31269 -0.94854,-0.0904 -1.33282,-0.0704 -3.75565,-0.736 -7.5651,-2.81428 -9.26254,-6.38947 -1.22994,-2.49022 -0.5939,-5.56979 1.18886,-7.62458 2.91475,-3.49226 7.69897,-4.97197 12.13307,-4.79638 z" />
  <path
     data-name="Compound Path"
     d="m 177.60152,55.184755 a 5.6448899,5.6448899 0 0 0 -4.79816,-0.84673 l -80.439684,21.45058 a 5.6448899,5.6448899 0 0 0 -4.23366,5.36264 v 67.456435 a 29.353427,29.353427 0 0 0 -15.24121,-4.23367 c -14.67671,0 -26.53098,10.44305 -26.53098,22.8618 0,12.41876 11.85427,22.8618 26.53098,22.8618 14.67671,0 26.53098,-10.44304 26.53098,-22.8618 V 114.4561 L 168.56969,95.827965 v 34.716065 a 29.353427,29.353427 0 0 0 -15.2412,-4.23367 c -14.67671,0 -26.53098,10.44305 -26.53098,22.8618 0,12.41876 11.85427,22.86181 26.53098,22.86181 14.67671,0 26.53098,-10.44305 26.53098,-22.86181 V 59.700665 a 5.6448899,5.6448899 0 0 0 -2.25795,-4.51591 z M 72.888806,179.37233 c -8.46734,0 -15.2412,-5.36265 -15.2412,-11.57203 0,-6.20938 6.77386,-11.57202 15.2412,-11.57202 8.46733,0 15.24121,5.36264 15.24121,11.57202 0,6.20938 -6.77388,11.28978 -15.24121,11.28978 z m 26.53098,-76.48826 V 85.949405 l 69.149904,-18.91038 v 16.93467 z m 53.626454,58.42461 c -8.46733,0 -15.2412,-5.36265 -15.2412,-11.57202 0,-6.20938 7.05612,-12.13652 15.52345,-12.13652 8.46734,0 15.2412,5.36264 15.2412,11.57202 0,6.20938 -6.77386,11.85428 -15.2412,11.85428 z"
     fill="#000000"
     data-fill-palette-color="accent"
     id="path5"
     style="display:inline;stroke:#000000;stroke-width:10;stroke-dasharray:none"
     inkscape:label="note"
     inkscape:export-filename="../src/assets/img/logo.png"
     inkscape:export-xdpi="30"
     inkscape:export-ydpi="30" />
  <rect
     style="fill:none;fill-opacity:1;stroke:#000000;stroke-width:20;stroke-dasharray:none"
     id="rect10862"
     width="217.34731"
     height="222.03874"
     x="10"
     y="-232.03876"
     ry="9.8290386"
     transform="scale(1,-1)"
     inkscape:export-filename="./rect10862.svg"
     inkscape:export-xdpi="16.006147"
     inkscape:export-ydpi="16.006147" />
</svg>
