<?xml version="1.0" standalone="no"?>
<!DOCTYPE svg PUBLIC "-//W3C//DTD SVG 20010904//EN"
 "http://www.w3.org/TR/2001/REC-SVG-20010904/DTD/svg10.dtd">
<svg version="1.0" xmlns="http://www.w3.org/2000/svg"
 width="980.000000pt" height="980.000000pt" viewBox="0 0 980.000000 980.000000"
 preserveAspectRatio="xMidYMid meet">
<metadata>
Created by potrace 1.14, written by Peter Selinger 2001-2017
</metadata>
<g transform="translate(0.000000,980.000000) scale(0.100000,-0.100000)"
fill="#000000" stroke="none">
<path d="M895 9785 c-38 -7 -83 -18 -100 -25 -16 -6 -31 -11 -32 -11 -2 1 -4
1 -5 0 -2 0 -10 -2 -19 -4 -34 -6 -183 -86 -247 -132 -112 -79 -240 -222 -289
-323 -7 -14 -17 -32 -22 -40 -5 -8 -20 -42 -32 -75 -12 -33 -26 -69 -30 -80
-5 -11 -16 -60 -24 -109 -13 -79 -15 -555 -12 -4115 1 -2214 5 -4037 9 -4051
34 -117 60 -196 68 -204 6 -6 10 -18 10 -28 0 -10 5 -18 10 -18 6 0 10 -6 10
-12 0 -16 73 -130 120 -187 60 -73 145 -150 230 -208 54 -36 158 -93 180 -97
8 -2 28 -8 45 -15 16 -7 57 -20 90 -29 55 -15 362 -17 4015 -19 3423 -2 3964
0 4025 12 89 19 178 47 187 60 4 5 8 6 8 2 0 -7 136 59 150 73 3 3 28 20 55
39 106 72 246 231 313 356 28 52 64 136 67 155 1 8 11 42 21 75 18 58 19 178
21 4100 2 4365 6 4060 -47 4230 -16 53 -75 182 -90 195 -3 3 -23 32 -45 65
-39 57 -199 225 -216 225 -4 0 -14 6 -22 14 -30 30 -147 95 -234 130 -176 70
175 65 -4168 65 -3187 -1 -3943 -3 -4000 -14z m7693 -1072 c19 -11 41 -34 50
-49 15 -27 16 -333 18 -3754 1 -3642 1 -3726 -18 -3766 -16 -35 -49 -64 -69
-60 -3 0 -12 -4 -20 -10 -10 -8 -1032 -11 -3654 -10 -3133 1 -3644 3 -3671 15
-17 8 -42 30 -55 50 l-24 35 0 3742 0 3743 35 36 c19 19 48 39 64 43 16 4
1668 8 3670 7 l3641 -1 33 -21z"/>
<path d="M6858 7965 c-3 -3 -14 -7 -24 -9 -11 -2 -64 -16 -119 -30 -55 -15
-107 -28 -115 -30 -8 -2 -76 -20 -150 -40 -74 -21 -142 -39 -150 -41 -97 -24
-188 -50 -210 -57 -8 -3 -37 -11 -65 -17 -27 -6 -84 -20 -125 -32 -137 -38
-185 -51 -200 -54 -8 -1 -35 -9 -60 -16 -25 -7 -54 -14 -65 -16 -11 -2 -31 -7
-45 -12 -19 -7 -219 -60 -285 -76 -5 -1 -17 -5 -25 -8 -13 -5 -126 -35 -155
-41 -5 -1 -19 -5 -30 -9 -11 -3 -31 -8 -45 -11 -63 -13 -195 -52 -198 -58 -2
-5 -7 -6 -11 -4 -4 3 -34 -2 -67 -11 -32 -8 -63 -16 -69 -18 -5 -1 -17 -5 -25
-8 -45 -16 -84 -27 -88 -22 -2 2 -17 -2 -33 -11 -16 -8 -29 -12 -29 -10 0 3
-39 -6 -87 -20 -49 -14 -95 -26 -103 -28 -8 -2 -62 -16 -120 -31 -58 -15 -109
-28 -115 -30 -5 -1 -17 -5 -25 -8 -13 -5 -108 -30 -160 -42 -8 -2 -30 -8 -47
-14 -18 -5 -33 -8 -33 -6 0 3 -12 0 -27 -6 -16 -6 -62 -20 -103 -31 -191 -50
-311 -164 -350 -331 -6 -26 -10 -507 -10 -1259 0 -670 -2 -1218 -4 -1218 -3 0
-42 9 -88 20 -122 29 -168 34 -318 34 -139 0 -245 -10 -312 -30 -9 -3 -26 -7
-39 -9 -12 -2 -38 -10 -58 -17 -20 -7 -38 -13 -41 -13 -64 -11 -311 -141 -377
-199 -7 -6 -36 -31 -67 -56 -30 -25 -60 -55 -67 -67 -7 -13 -18 -23 -26 -23
-7 0 -13 -7 -13 -15 0 -8 -4 -15 -8 -15 -11 0 -78 -92 -74 -102 1 -5 -2 -8 -8
-8 -25 0 -164 -330 -146 -348 3 -3 2 -10 -3 -16 -5 -6 -12 -35 -14 -64 -2 -29
-7 -55 -10 -59 -4 -3 -2 -12 4 -20 6 -7 8 -13 3 -13 -11 0 -10 -51 0 -68 4 -7
2 -12 -4 -12 -6 0 -8 -5 -4 -12 4 -6 8 -30 10 -52 6 -109 63 -284 121 -378 13
-21 23 -42 23 -48 0 -5 5 -10 10 -10 6 0 10 -5 10 -11 0 -6 6 -16 13 -24 6 -7
21 -25 32 -41 11 -15 29 -38 40 -50 11 -12 27 -31 36 -41 19 -22 105 -99 149
-133 44 -34 61 -50 90 -90 14 -18 35 -45 48 -59 13 -14 27 -30 30 -36 7 -9 70
-67 140 -128 17 -15 35 -27 40 -27 4 0 26 -24 47 -52 22 -29 48 -61 59 -70 10
-10 16 -18 13 -18 -3 0 26 -30 66 -67 40 -37 74 -71 75 -75 2 -5 8 -6 13 -2 5
3 9 1 9 -4 0 -10 94 -73 160 -108 19 -10 42 -24 50 -31 8 -6 17 -11 20 -11 3
1 21 -6 40 -14 62 -28 144 -58 170 -62 14 -3 26 -5 28 -7 2 -2 2 -2 57 -14 22
-4 47 -10 55 -12 70 -17 383 -23 450 -9 19 4 44 9 55 10 41 5 171 40 205 54
19 9 41 17 47 18 42 8 259 129 307 172 15 12 29 22 32 22 3 0 42 37 88 83 87
86 154 172 183 231 9 20 20 36 25 36 4 0 8 8 8 18 0 10 4 22 10 28 5 5 21 41
35 79 25 67 30 85 40 130 3 11 8 31 12 45 6 24 16 777 13 990 -1 58 -2 112 -2
120 1 8 1 134 0 280 0 146 0 272 1 280 0 8 0 62 0 120 -1 58 -1 112 0 120 1 8
1 26 0 40 0 14 0 32 0 40 0 8 1 46 0 83 0 42 4 66 10 63 5 -4 12 -2 16 3 3 5
13 10 23 10 38 1 52 5 52 13 0 4 3 7 8 6 14 -4 87 14 100 24 6 6 12 8 12 5 0
-3 20 1 45 9 25 7 45 11 45 8 0 -3 -20 -32 -45 -64 -25 -32 -45 -63 -45 -69 0
-6 -4 -11 -10 -11 -5 0 -10 -6 -10 -14 0 -8 -4 -16 -8 -18 -21 -9 -106 -229
-118 -306 -28 -176 -21 -320 22 -469 30 -103 76 -202 139 -298 48 -72 148
-181 216 -235 24 -19 46 -38 47 -42 2 -4 8 -8 14 -8 12 0 26 -14 72 -74 71
-94 170 -191 251 -247 17 -12 46 -42 65 -68 38 -51 90 -109 135 -151 77 -72
111 -100 123 -100 6 0 12 -3 12 -7 0 -5 19 -20 43 -35 41 -26 213 -117 222
-118 10 -1 26 -5 50 -14 11 -4 31 -12 45 -16 14 -4 34 -11 45 -15 11 -4 27 -9
35 -10 8 -1 56 -10 105 -20 121 -24 446 -24 485 0 4 3 23 7 41 10 28 4 77 16
154 39 63 19 155 60 155 69 0 6 3 7 6 4 8 -8 128 56 179 96 195 149 279 245
374 427 33 65 78 191 87 246 3 22 9 44 12 49 11 16 10 3763 -1 3820 -15 87
-82 191 -163 255 -24 19 -103 57 -138 66 -17 4 -26 13 -26 26 0 31 -58 133
-100 175 -61 62 -78 74 -182 117 -23 9 -38 22 -38 32 0 27 -60 131 -100 171
-64 66 -107 93 -185 116 -50 14 -186 23 -197 12z"/>
</g>
</svg>
