<svg xmlns="http://www.w3.org/2000/svg" width="241.041" height="244.932">
    <path d="M24.535 0C11.71 0 0 10.465 0 24.535v195.861c0 12.337 10.972 24.535 24.535 24.535h191.969c12.459 0 24.537-11.137 24.537-24.535V24.535C241.041 11.282 228.785 0 216.504 0zm6 26.568h179.969c2.428 0 3.969 1.539 3.969 3.967v183.861c0 2.428-1.541 3.969-3.969 3.969H30.535c-2.428 0-3.967-1.541-3.967-3.969V30.535c0-2.428 1.539-3.967 3.967-3.967z"/>
    <path d="M186.922 61.734c-.788.037-1.576.162-2.35.377l-80.359 21.43a10.69 10.69 0 0 0-7.977 10.109v.047 59.871c-3.307-1.029-6.748-1.609-10.242-1.604h-.008c-17.045.004-31.523 12.263-31.523 27.861s14.483 27.861 31.531 27.861 31.531-12.261 31.531-27.861v-48.947l59.15-15.936v20.561c-3.307-1.029-6.748-1.609-10.242-1.604h-.008c-17.045.004-31.521 12.265-31.521 27.863s14.481 27.861 31.529 27.861 31.531-12.261 31.531-27.861V72.291c0-3.346-1.581-6.508-4.258-8.516l-.045-.033-.045-.033a10.66 10.66 0 0 0-6.695-1.975zm-10.068 24.137l-.039 6.695-59.289 16.357v-6.566zm-10.42 69.32c3.178 0 5.955 1.041 7.748 2.42s2.494 2.866 2.494 4.152c0 2.573-3.997 6.854-10.242 6.854h-2.07c-2.381-.315-4.531-1.041-5.959-2.139-1.793-1.379-2.494-2.864-2.494-4.15 0-1.211.801-2.964 2.711-4.492s4.746-2.645 7.813-2.645zm-80.439 18.627c3.178 0 5.955 1.043 7.748 2.422s2.494 2.864 2.494 4.15-.656 2.642-2.43 3.961-4.579 2.33-7.812 2.33h-1.781c-2.385-.314-4.536-1.039-5.965-2.139-1.793-1.379-2.494-2.866-2.494-4.152s.702-2.771 2.494-4.15 4.568-2.422 7.746-2.422z" fill="#0ff"/>
    <path d="M170.922 45.734c-.788.037-1.576.162-2.35.377l-80.359 21.43a10.69 10.69 0 0 0-7.977 10.109v.047 59.871c-3.307-1.029-6.748-1.609-10.242-1.604h-.008c-17.045.004-31.523 12.263-31.523 27.861s14.483 27.861 31.531 27.861 31.531-12.261 31.531-27.861v-48.947l59.15-15.936v20.561c-3.307-1.029-6.748-1.609-10.242-1.604h-.008c-17.045.004-31.521 12.265-31.521 27.863s14.481 27.861 31.529 27.861 31.531-12.261 31.531-27.861V56.291c0-3.346-1.581-6.508-4.258-8.516l-.045-.033-.045-.033a10.66 10.66 0 0 0-6.695-1.975zm-10.068 24.137l-.039 6.695-59.289 16.357v-6.566zm-10.42 69.32c3.178 0 5.955 1.041 7.748 2.42s2.494 2.866 2.494 4.152c0 2.573-3.997 6.854-10.242 6.854h-2.07c-2.381-.315-4.531-1.041-5.959-2.139-1.793-1.379-2.494-2.864-2.494-4.15 0-1.211.801-2.964 2.711-4.492s4.746-2.645 7.813-2.645zm-80.439 18.627c3.178 0 5.955 1.043 7.748 2.422s2.494 2.864 2.494 4.15-.656 2.642-2.43 3.961-4.579 2.33-7.812 2.33h-1.781c-2.385-.314-4.536-1.039-5.965-2.139-1.793-1.379-2.494-2.866-2.494-4.152s.702-2.771 2.494-4.15 4.568-2.422 7.746-2.422z" fill="#f0f"/>
    <path d="M178.922 53.734c-.788.037-1.576.162-2.35.377l-80.359 21.43a10.69 10.69 0 0 0-7.977 10.109v.047 59.871c-3.307-1.029-6.748-1.609-10.242-1.604h-.008c-17.045.004-31.523 12.263-31.523 27.861s14.483 27.861 31.531 27.861 31.531-12.261 31.531-27.861v-48.947l59.15-15.936v20.561c-3.307-1.029-6.748-1.609-10.242-1.604h-.008c-17.045.004-31.521 12.265-31.521 27.863s14.481 27.861 31.529 27.861 31.531-12.261 31.531-27.861V64.291c0-3.346-1.581-6.508-4.258-8.516l-.045-.033-.045-.033a10.66 10.66 0 0 0-6.695-1.975zm-10.068 24.137l-.039 6.695-59.289 16.357v-6.566zm-10.42 69.32c3.178 0 5.955 1.041 7.748 2.42s2.494 2.866 2.494 4.152c0 2.573-3.997 6.854-10.242 6.854h-2.07c-2.381-.315-4.531-1.041-5.959-2.139-1.793-1.379-2.494-2.864-2.494-4.15 0-1.211.801-2.964 2.711-4.492s4.746-2.645 7.813-2.645zm-80.439 18.627c3.178 0 5.955 1.043 7.748 2.422s2.494 2.864 2.494 4.15-.656 2.642-2.43 3.961-4.579 2.33-7.812 2.33h-1.781c-2.385-.314-4.536-1.039-5.965-2.139-1.793-1.379-2.494-2.866-2.494-4.152s.702-2.771 2.494-4.15 4.568-2.422 7.746-2.422z"/>
</svg>