<?xml version="1.0" encoding="UTF-8" standalone="no"?>
<svg
   version="1.1"
   width="1500"
   height="1500"
   viewBox="0 0 1500 1500"
   id="svg11"
   sodipodi:docname="logo.svg"
   inkscape:version="1.2.2 (b0a8486541, 2022-12-01)"
   xmlns:inkscape="http://www.inkscape.org/namespaces/inkscape"
   xmlns:sodipodi="http://sodipodi.sourceforge.net/DTD/sodipodi-0.dtd"
   xmlns="http://www.w3.org/2000/svg"
   xmlns:svg="http://www.w3.org/2000/svg">
  <defs
     id="defs11">
    <defs
       id="defs9" />
  </defs>
  <sodipodi:namedview
     id="namedview11"
     pagecolor="#ffffff"
     bordercolor="#000000"
     borderopacity="0.25"
     inkscape:showpageshadow="2"
     inkscape:pageopacity="0.0"
     inkscape:pagecheckerboard="0"
     inkscape:deskcolor="#d1d1d1"
     showgrid="false"
     inkscape:zoom="1.7432539"
     inkscape:cx="597.44596"
     inkscape:cy="754.04965"
     inkscape:window-width="1920"
     inkscape:window-height="1031"
     inkscape:window-x="0"
     inkscape:window-y="25"
     inkscape:window-maximized="1"
     inkscape:current-layer="svg11" />
  <path
     d="m 567.718,767.52758 v 0 q -4.6956,7.47819 -11.65204,11.30422 -6.95644,3.82604 -16.86935,3.82604 v 0 q -8.86947,0 -17.11286,-4.62603 -8.27816,-4.59125 -13.66939,-13.73896 -5.39125,-9.11294 -5.39125,-22.67799 v 0 q 0,-10.43466 4.17387,-19.99976 4.17385,-9.56511 12.27811,-15.65199 8.06948,-6.08689 19.72152,-6.08689 v 0 q 7.9999,0 14.71287,1.91302 6.67818,1.91301 11.54768,5.91298 v 0 q -0.69565,5.0434 -0.93912,9.91291 -0.27826,4.86952 -0.27826,9.91293 v 0 q -1.39128,0.69565 -3.72169,1.04347 -2.36519,0.34783 -4.27821,0.34783 v 0 q -1.04347,-10.08685 -5.91298,-15.47808 -4.8695,-5.39126 -12.52159,-5.39126 v 0 q -8.52163,0 -13.56506,7.99992 -5.0434,7.9999 -5.0434,22.95625 v 0 q 0,8.69555 2.8869,16.41719 2.85216,7.75643 8.41731,12.52159 5.56514,4.79994 13.56505,4.79994 v 0 q 5.56516,0 10.50423,-2.60866 4.97384,-2.60867 8.79989,-7.47817 v 0 q 1.39128,0.69565 2.60866,1.9826 1.21738,1.32172 1.73911,2.8869 z m 52.34722,15.13026 v 0 q -11.82595,0 -20.69542,-5.14776 -8.86945,-5.11297 -13.73897,-14.43461 -4.86951,-9.28684 -4.86951,-21.80844 v 0 q 0,-11.82594 5.04343,-21.21714 5.04341,-9.3912 13.91288,-14.78243 8.86945,-5.39124 20.34759,-5.39124 v 0 q 12.34767,0 21.11278,5.21733 8.79991,5.21733 13.49549,14.50417 4.6956,9.32164 4.6956,21.66931 v 0 q 0,11.82595 -4.97384,21.21715 -4.93909,9.39118 -13.73897,14.78243 -8.76512,5.39123 -20.59106,5.39123 z m 1.39128,-8.34772 v 0 q 10.43466,0 15.47809,-8.59121 5.0434,-8.62599 5.0434,-22.36494 v 0 q 0,-10.78249 -3.23473,-18.71284 -3.19998,-7.89556 -8.59121,-12.17377 -5.39123,-4.24341 -11.82594,-4.24341 v 0 q -10.08684,0 -15.0607,8.17382 -4.93907,8.1738 -4.93907,21.21714 v 0 q 0,11.65202 2.85214,19.89541 2.88692,8.27815 8.10425,12.52159 5.21733,4.27821 12.17377,4.27821 z m 87.1294,8.34772 v 0 q -1.39129,-3.47822 -4.27821,-10.19117 -2.85214,-6.6782 -6.43469,-14.852 -3.54779,-8.17382 -7.13036,-16.10417 -3.54779,-7.89556 -6.26079,-13.91288 -2.67823,-5.98252 -3.72169,-8.24338 v 0 q -2.26086,-4.69558 -3.82605,-6.88688 -1.5652,-2.15648 -3.06084,-3.02603 -1.46085,-0.86956 -3.8956,-1.04348 v 0 q -0.69565,-2.26084 -0.86955,-3.65212 -0.17396,-1.39129 -0.17396,-3.82605 v 0 q 3.65212,0.17396 8.24338,0.34783 4.62602,0.17396 10.01727,0.17396 v 0 q 3.65212,0 7.54774,-0.10434 3.93038,-0.0696 7.47816,-0.17396 3.58256,-0.0696 6.36513,-0.24347 v 0 q 0,1.91301 -0.34781,3.72169 -0.34782,1.84345 -0.86955,3.40865 v 0 q -8.69555,0.69565 -10.26076,2.78257 -1.5652,2.08694 1.73911,9.2173 v 0 q 1.21738,2.60866 3.47822,7.89556 2.26084,5.32167 5.04343,12.1042 2.78257,6.78252 5.56513,13.63462 2.78259,6.88687 4.86953,12.45203 v 0 h -1.91303 q 4.52169,-11.30422 8.17382,-20.34759 3.65212,-9.04338 6.78253,-16.86937 v 0 q 4.52168,-11.30421 2.67823,-15.75633 -1.80867,-4.41734 -8.41731,-4.93908 v 0 q -0.86955,-1.73911 -1.39128,-3.65213 -0.52173,-1.91301 -0.52173,-3.65212 v 0 q 3.47822,0.17396 7.82599,0.34781 4.34778,0.17396 8.34773,0.17396 v 0 q 3.99995,0 8.52164,-0.17396 4.52168,-0.17396 7.65209,-0.34781 v 0 q 0,2.26084 -0.34782,4.06951 -0.34783,1.84345 -1.21738,3.40866 v 0 q -2.78257,0.52173 -4.86951,2.43474 -2.08693,1.91303 -4.1043,5.73908 -1.98258,3.82602 -4.93907,10.78246 v 0 l -23.47798,53.73851 q -1.56521,0.69563 -3.75648,1.14779 -2.1565,0.41739 -4.24344,0.41739 z m 93.35543,0 v 0 q -12.34768,0 -20.5215,-5.56515 -8.17382,-5.56514 -12.24333,-15.06068 -4.10431,-9.46076 -4.10431,-20.76498 v 0 q 0,-11.13031 4.34778,-20.52149 4.34777,-9.3912 12.45203,-15.13026 8.06946,-5.73906 19.19977,-5.73906 v 0 q 11.30422,0 18.19109,4.86951 6.8521,4.8695 10.26076,13.04332 3.37386,8.17382 4.06951,18.08675 v 0 q -0.69565,3.47822 -2.60866,5.91296 v 0 q -2.9565,0 -8.86948,0 -5.91296,0 -13.39113,0.0696 -7.47818,0.10434 -15.30418,0.34783 -7.82599,0.27826 -14.78243,0.62609 v 0 -8.86947 h 36.86913 q 0,-11.47812 -4.17385,-18.60848 -4.17387,-7.13035 -11.82596,-7.13035 v 0 q -4.17386,0 -8.17381,2.50433 -3.99996,2.5391 -6.60863,8.86945 -2.60866,6.36515 -2.60866,18.01719 v 0 q 0,8.52162 2.19129,16.59111 2.15648,8.10423 7.65207,13.39113 5.46082,5.32168 15.54765,5.32168 v 0 q 5.73906,0 11.30422,-2.60866 5.56515,-2.60867 9.91293,-7.47817 v 0 q 1.39128,0.69563 2.713,2.3304 1.28695,1.66955 1.46085,3.06083 v 0 q -5.91296,7.826 -13.63462,11.13031 -7.75643,3.3043 -17.32153,3.3043 z m 73.56434,-41.04298 v 13.91288 q 0,7.47817 1.56521,11.37378 1.5652,3.93038 5.04342,5.39123 3.47822,1.49564 8.86945,1.84347 v 0 q 0.52173,1.39128 0.69566,3.23473 0.17396,1.80867 0.17396,4.24343 v 0 q -2.60867,-0.17396 -6.15645,-0.24348 -3.58256,-0.10434 -7.58253,-0.17396 -3.99995,-0.10434 -8.1738,-0.10434 v 0 q -6.08688,0 -12.76508,0.10434 -6.71295,0.0696 -10.19117,0.41739 v 0 q 0,-2.43474 0.17396,-4.24342 0.17396,-1.84347 0.69565,-3.23475 v 0 q 4.6956,-0.34783 7.30426,-1.66955 2.60867,-1.28694 3.65213,-4.52167 1.04346,-3.19998 1.04346,-8.93904 v 0 -17.3911 z m -2.95647,-13.91288 2.95647,2.43474 v 13.73898 h -15.65199 v -19.30413 l 15.65199,-17.04328 q 0,5.91299 -1.04346,10.71292 -1.04346,4.76517 -1.91301,9.46077 z m 2.95647,11.13029 -3.82603,-10.08683 q 1.91302,-4.86951 2.95647,-7.9999 1.04348,-3.13041 2.26086,-5.21733 v 0 q 3.82603,-6.08688 9.04336,-10.08685 5.21733,-3.99995 11.99986,-3.99995 v 0 q 6.60862,0 11.99987,4.17387 v 0 q -0.34783,2.78257 -0.69565,6.43471 -0.34783,3.65212 -0.41739,7.30425 -0.10434,3.65214 -0.10434,6.78253 v 0 q -1.56521,0.52173 -4.24344,1.04346 -2.713,0.52175 -5.66949,0.52175 v 0 q -0.34783,-8.34774 -2.67823,-10.95641 -2.3652,-2.60866 -5.84342,-2.60866 v 0 q -2.95647,0 -6.43469,3.37388 -3.47822,3.40865 -5.91298,8.97381 -2.43476,5.56515 -2.43476,12.34767 z m 0,-31.30398 -15.65199,36.34741 v -19.30413 q 0,-4.17386 -0.86955,-6.78252 -0.86956,-2.60866 -3.65213,-3.99995 -2.78257,-1.3913 -8.52164,-1.56521 v 0 q 0,-1.91301 0.34782,-3.47822 0.34783,-1.5652 1.21738,-2.95649 v 0 q 5.39124,-0.34782 12.34768,-2.08693 6.95644,-1.73911 10.9564,-3.82603 v 0 q 1.56519,0.52173 2.71301,2.15648 1.11302,1.66955 1.11302,5.49559 z m 44.34732,74.08609 v 0 q 0,-1.7391 0.17396,-3.75648 0.17396,-1.98257 0.69565,-3.72168 v 0 q 6.95644,0 9.46075,-3.23475 2.5391,-3.19996 2.5391,-11.89551 v 0 -34.43439 q 0,-4.17386 -0.79999,-6.88688 -0.7652,-2.67823 -3.54779,-4.06951 -2.78256,-1.39129 -8.69555,-1.39129 v 0 q 0,-1.91301 0.34783,-3.47822 0.34783,-1.5652 1.21738,-2.95649 v 0 q 2.60867,0 7.37381,-0.86955 4.79996,-0.86956 9.32164,-2.26084 4.5217,-1.39128 6.60861,-2.78257 v 0 q 1.56521,0.52173 2.67823,2.08692 1.14782,1.56521 1.14782,4.86952 v 0 52.1733 q 0,8.69555 2.3304,11.89551 2.3652,3.23475 7.93035,3.23475 v 0 q 0.52173,1.73911 0.69564,3.99995 0.17396,2.26083 0.17396,3.47821 v 0 q -2.95649,-0.17396 -6.26081,-0.24348 -3.3043,-0.10434 -6.71295,-0.17396 -3.37388,-0.10434 -6.67818,-0.10434 v 0 q -3.30432,0 -6.88688,0.10434 -3.54778,0.0696 -6.8521,0.17396 -3.30431,0.0696 -6.26078,0.24348 z M 939.1571,680.22427 v 0 q -4.34777,0 -7.30426,-2.95648 -2.95649,-2.95649 -2.95649,-7.13036 v 0 q 0,-4.6956 3.13041,-7.65209 3.13039,-2.95647 7.13034,-2.95647 v 0 q 4.6956,0 7.54773,2.95647 2.88693,2.95649 2.88693,7.65209 v 0 q 0,3.99995 -3.06083,7.02601 -3.02605,3.06083 -7.37383,3.06083 z m 88.3467,25.73884 v 0 q -0.1739,4.17385 -0.2782,8.86945 -0.07,4.6956 0.6261,9.21728 v 0 q -1.7391,1.04347 -4,1.5652 -2.2608,0.52173 -4.6956,0.52173 v 0 q -0.3478,-4.8695 -2.8869,-9.21728 -2.5043,-4.34777 -6.6782,-7.13036 -4.1738,-2.78257 -9.91286,-2.78257 v 0 q -5.3913,0 -8.626,2.60867 -3.19996,2.60866 -3.19996,6.95644 v 0 q 0,2.95649 1.28694,5.21733 1.32172,2.26084 5.73902,4.76516 4.4522,2.5391 13.66946,6.19123 v 0 q 9.3911,3.47822 14.7824,6.95644 5.3912,3.47822 7.6521,7.82599 2.2608,4.34778 2.2608,10.60858 v 0 q 0,7.30427 -4.1739,12.8694 -4.1738,5.56516 -11.4085,8.59121 -7.1999,3.06083 -16.2433,3.06083 v 0 q -10.43463,0 -16.62585,-1.66954 -6.15645,-1.63475 -12.06943,-4.76517 v 0 q 0.34782,-2.78257 0.41739,-6.78251 0.10434,-3.99995 0.10434,-7.99992 0,-3.99995 -0.34781,-6.78252 v 0 q 1.39128,-1.04348 3.89559,-1.49564 2.5391,-0.41739 5.14777,-0.41739 v 0 q 1.3913,10.95641 6.78253,16.34764 5.39121,5.39123 14.43457,5.39123 v 0 q 7.1304,0 11.026,-3.13039 3.9304,-3.13039 3.9304,-7.9999 v 0 q 0,-3.13039 -1.4957,-5.39125 -1.4608,-2.26084 -5.4608,-4.52168 -3.9999,-2.26084 -11.82586,-5.39123 v 0 q -9.39123,-3.82605 -15.06072,-7.13036 -5.63472,-3.3043 -8.17382,-7.826 -2.50433,-4.52168 -2.50433,-11.47811 v 0 q 0,-5.56516 2.78259,-9.66947 2.78257,-4.06951 7.19991,-6.78251 4.45213,-2.67823 9.49554,-3.99997 5.04343,-1.28693 9.39119,-1.28693 v 0 q 7.826,0 13.7389,1.56519 5.913,1.56521 11.3042,4.5217 z m 19.0955,75.65127 v 0 q 0,-2.43476 0.1739,-4.24343 0.174,-1.84345 0.6957,-3.23473 v 0 q 6.9564,-0.34783 9.4955,-3.40866 2.5044,-3.02605 2.5044,-11.7216 v 0 -34.43439 q 0,-4.17386 -0.8696,-6.78252 -0.8696,-2.60866 -3.6521,-3.99995 -2.7826,-1.3913 -8.5217,-1.56521 v 0 q 0,-1.91301 0.3478,-3.47822 0.3479,-1.5652 1.2174,-2.95649 v 0 q 2.9565,-0.17396 7.4086,-1.14781 4.4174,-0.93912 8.5912,-2.26084 4.1739,-1.28695 6.4347,-2.50431 v 0 q 1.5652,0.52173 2.713,2.08692 1.1131,1.56521 1.1131,4.86952 v 0 q 0,2.78257 -0.2435,6.43469 -0.2783,3.65214 -1.1478,10.78249 v 0 l -1.7391,0.17396 q 2.4347,-6.60862 3.5825,-8.86945 1.1131,-2.26084 1.6348,-2.95649 v 0 q 2.7826,-3.99995 9.3216,-8.27816 6.5043,-4.24344 15.5477,-4.24344 v 0 q 7.3043,0 13.3911,3.30432 6.0869,3.30429 8.8695,11.30421 v 0 q 0.6956,2.08694 0.6956,5.73906 v 0 h -0.5217 q 1.5652,-4.34778 3.4782,-6.95644 v 0 q 2.9565,-3.99995 9.3912,-8.27816 6.4347,-4.24343 15.4781,-4.24343 v 0 q 6.6086,0 12.1738,2.67823 5.5651,2.71302 8.9738,8.86947 3.3738,6.19122 3.3738,16.7998 v 0 29.91268 q 0,5.91298 1.1479,9.11294 1.113,3.23475 3.4782,4.45213 2.3304,1.21736 5.8086,1.56518 v 0 q 0.5217,1.56521 0.6957,3.30432 0.1739,1.73911 0.1739,4.17385 v 0 q -3.826,-0.3478 -8.7651,-0.41737 -4.9738,-0.10434 -10.1912,-0.10434 v 0 q -3.4782,0 -7.1303,0.10434 -3.6522,0.0696 -7.1304,0.17396 -3.4782,0.0696 -6.4347,0.24347 v 0 q 0,-2.43476 0.174,-4.24344 0.1739,-1.84344 0.6956,-3.23473 v 0 q 4.6956,-0.34782 7.3043,-1.66954 2.6087,-1.28695 3.6521,-4.5217 1.0435,-3.19996 1.0435,-8.93902 v 0 -26.43447 q 0,-12.34767 -4.4174,-16.7998 -4.4521,-4.41734 -11.5824,-4.41734 v 0 q -4.3478,0 -8.8695,2.85215 -4.5217,2.8869 -7.4782,9.25205 -2.9565,6.33037 -2.9565,16.93893 v 0 18.60848 q 0,9.04338 2.7826,11.89551 2.7826,2.88693 9.3912,3.23475 v 0 q 0.5217,1.56519 0.6957,3.3043 0.1739,1.73911 0.1739,4.17387 v 0 q -4.3477,-0.34782 -9.9825,-0.41739 -5.6695,-0.10434 -10.7129,-0.10434 v 0 q -5.0434,0 -10.5042,0.10434 -5.4956,0.0696 -10.1912,0.41739 v 0 q 0,-2.43476 0.174,-4.24344 0.1739,-1.84344 0.6956,-3.23473 v 0 q 4.6956,-0.34782 7.3043,-1.66954 2.6087,-1.28695 3.6521,-4.5217 1.0435,-3.19996 1.0435,-8.93902 v 0 -27.30403 q 0,-12.34767 -4.4173,-16.7998 -4.4522,-4.41734 -11.5825,-4.41734 v 0 q -4.3478,0 -8.8695,2.85215 -4.5217,2.88691 -7.4782,9.25205 -2.9565,6.33038 -2.9565,16.93894 v 0 19.47803 q 0,8.69555 2.6087,11.72161 2.6087,3.06083 9.5651,3.40865 v 0 q 0.5218,1.56519 0.6957,3.3043 0.1739,1.73911 0.1739,4.17387 v 0 q -2.9564,-0.17396 -6.6086,-0.24347 -3.6521,-0.10434 -7.3043,-0.17396 -3.6521,-0.10434 -6.7825,-0.10434 v 0 q -2.9565,0 -6.7825,0.10434 -3.826,0.0696 -7.4782,0.17396 -3.6521,0.0696 -6.4347,0.24347 z m 209.2149,-75.65127 v 0 q -0.174,4.17385 -0.2435,8.86945 -0.1043,4.6956 0.5913,9.21728 v 0 q -1.7391,1.04347 -3.9999,1.5652 -2.2609,0.52173 -4.6956,0.52173 v 0 q -0.3478,-4.8695 -2.8522,-9.21728 -2.5391,-4.34777 -6.7129,-7.13036 -4.1739,-2.78257 -9.913,-2.78257 v 0 q -5.3912,0 -8.5912,2.60867 -3.2347,2.60866 -3.2347,6.95644 v 0 q 0,2.95649 1.3217,5.21733 1.2869,2.26084 5.7391,4.76516 4.4173,2.5391 13.6346,6.19123 v 0 q 9.3912,3.47822 14.7824,6.95644 5.3913,3.47822 7.6521,7.82599 2.2609,4.34778 2.2609,10.60858 v 0 q 0,7.30427 -4.1739,12.8694 -4.1739,5.56516 -11.3738,8.59121 -7.2347,3.06083 -16.278,3.06083 v 0 q -10.4347,0 -16.5912,-1.66954 -6.1912,-1.63475 -12.1042,-4.76517 v 0 q 0.3478,-2.78257 0.4522,-6.78251 0.07,-3.99995 0.07,-7.99992 0,-3.99995 -0.3478,-6.78252 v 0 q 1.3913,-1.04348 3.9304,-1.49564 2.5043,-0.41739 5.113,-0.41739 v 0 q 1.3913,10.95641 6.7825,16.34764 5.3912,5.39123 14.4346,5.39123 v 0 q 7.1304,0 11.0607,-3.13039 3.8957,-3.13039 3.8957,-7.9999 v 0 q 0,-3.13039 -1.4609,-5.39125 -1.4956,-2.26084 -5.4956,-4.52168 -3.9999,-2.26084 -11.8259,-5.39123 v 0 q -9.3912,-3.82605 -15.0259,-7.13036 -5.6695,-3.3043 -8.1738,-7.826 -2.5391,-4.52168 -2.5391,-11.47811 v 0 q 0,-5.56516 2.7825,-9.66947 2.7826,-4.06951 7.2347,-6.78251 4.4174,-2.67823 9.4608,-3.99997 5.0434,-1.28693 9.3912,-1.28693 v 0 q 7.826,0 13.7389,1.56519 5.913,1.56521 11.3043,4.5217 z"
     opacity="1"
     fill="#000000"
     class="wordmark-text-0"
     data-fill-palette-color="primary"
     id="text-0"
     style="display:inline;stroke-width:3.47822"
     inkscape:label="coverisms" />
  <path
     d="m 521.32313,828.57577 q -1.2557,0 -1.94431,-0.12148 v 0 q -0.97216,-0.0811 -1.53925,-0.0811 v 0 q -0.32404,0 -0.89114,0.0811 v 0 q -0.28355,0.0811 -0.93165,0.0811 v 0 q -0.1619,0 -0.29974,-0.0404 -0.14591,-0.0404 -0.26733,-0.0404 v 0 q -0.28355,-0.12149 -0.52659,-0.12149 v 0 l -0.36457,0.0404 q -0.36455,-0.0404 -0.36455,-0.40505 v 0 l -2.30886,-10.73421 q -1.01266,-4.61772 -1.70127,-8.42532 v 0 q -0.24304,-0.36457 -0.28355,-0.93165 v 0 q -0.0404,-0.20255 -0.0404,-0.60761 v 0 -0.56707 q 0,-0.48608 0.16213,-0.76963 0.16191,-0.28355 0.44557,-0.28355 v 0 h 0.44557 0.76962 q 0.28353,0.0404 0.89114,0.0404 v 0 l 1.53923,0.0404 h 0.28355 1.45823 q 0.0811,0.0404 0.16191,0.0404 0.0811,0 0.12149,0 v 0 l 0.0404,0.12149 q 0.16213,0 0.20255,-0.12149 v 0 l 0.28353,-0.0404 h 0.12148 q 0.0404,0 0.12149,0 0.0811,0 0.16213,0.0404 v 0 q 0.28353,0 0.6481,0.0404 0.36454,0.0404 0.85062,0.0404 v 0 q 0.28355,0.0404 0.81014,0.0404 v 0 q 0.20255,0.48608 0.6481,2.71394 v 0 q 0.1619,0.60758 0.40505,2.14684 v 0 l 0.44557,2.38986 0.0404,0.32406 q 0.0404,0.0811 0.12149,0.6886 v 0 l 0.16191,0.85065 0.12148,0.85063 q 0.0811,0.24304 0.10528,0.38076 0.0155,0.14591 0.0155,0.26733 v 0 q 0,0.12149 0.0242,0.17835 0.0156,0.0649 0.0156,0.10527 v 0 0.12149 q 0.0404,0.0811 0.0404,0.20255 v 0 q 0.0811,0 0.0811,0.20255 v 0 l 0.0404,-0.20255 q 0,-0.16191 0.0811,-0.32404 v 0 q 0,-0.12149 0.0811,-0.28355 v 0 q 0,-0.16191 0.0811,-0.6481 v 0 l 0.16191,-0.85064 q 0.0811,-0.56708 0.1619,-0.85063 v 0 q 0,-0.36455 0.0811,-0.68861 v 0 q 0,-0.1619 0.0242,-0.22685 0.0155,-0.0566 0.0155,-0.0973 v 0 l 0.48606,-2.38986 0.20255,-1.05318 q 0.28355,-1.82278 0.52659,-2.75442 v 0 q 0.0811,-0.36457 0.36457,-1.05318 v 0 h 0.6481 l 0.72911,-0.0404 q 0,-0.0811 0.12149,-0.14592 0.12148,-0.0566 0.28355,-0.0566 v 0 h 0.60758 0.97216 l 1.9038,0.0404 h 0.12149 q 0,-0.0404 0.0404,-0.0404 v 0 q 0.16191,0 0.20255,0.0404 v 0 l 0.0811,0.0404 h 2.10633 l 0.32406,0.0404 q 0,0.0404 0.0404,0.0566 0.0404,0.0242 0.0404,0.0649 v 0 l 0.20255,-0.12149 q 0,0 0.0648,-0.0242 0.0566,-0.0155 0.1377,-0.0155 v 0 h 0.12149 q 0.0404,0 0.12148,0.0155 0.0811,0.0242 0.24304,0.0242 v 0 q 0.32406,0.12149 0.52659,0.12149 v 0 q 0.32404,0.64809 0.6481,2.43039 v 0 q 0.1619,0.60758 0.40505,1.9038 v 0 l 0.44557,2.22784 0.0404,0.40508 q 0.0404,0.12148 0.0811,0.40506 0.0404,0.28354 0.0404,0.40505 v 0 q 0.0404,0.24304 0.10527,0.58329 0.0566,0.34836 0.0566,0.5914 v 0 l 0.20255,1.05317 q 0,0.40506 0.0811,0.81012 v 0 l 0.0404,0.40508 q 0,0.20255 0.0811,0.32404 v 0 0.20255 l 0.0404,-0.20255 q 0,-0.16191 0.0811,-0.32404 v 0 q 0,-0.0404 0.0242,-0.14592 0.0155,-0.0973 0.0566,-0.25925 v 0 l 0.0811,-0.81011 0.16191,-1.05318 q 0.16191,-0.81014 0.16191,-1.17469 v 0 l 0.12148,-0.81013 q 0.0811,-0.20255 0.0811,-0.40506 v 0 q 0.24304,-1.45823 0.40508,-2.22784 v 0 q 0.40506,-2.30888 0.72912,-3.44306 v 0 q 0.0811,-0.28355 0.20255,-0.55088 0.12148,-0.25923 0.1619,-0.34025 v 0 q 0.48608,0 0.97214,-0.12149 v 0 q 0.36457,0 0.5671,-0.0404 v 0 h 0.12148 l 0.0811,0.0404 v 0.12149 q 0.28355,0 0.32406,-0.12149 v 0 q 0,0 0.0404,0 0.0404,0 0.0404,-0.0404 v 0 h 1.82278 0.20255 l 1.49875,-0.0404 q 0.64809,0 0.93164,-0.0404 v 0 h 0.81012 0.44557 q 0.56709,0 0.56709,1.05317 v 0 q -0.12148,0.32404 -0.17812,0.68861 -0.0648,0.36455 -0.10527,0.52657 v 0 q -0.0404,0.40508 -0.0404,0.89116 v 0 q -0.89114,4.13164 -2.30886,9.43798 v 0 l -2.38986,9.72152 q -0.24304,0.0404 -0.32406,0.24304 v 0 q -0.0404,0.0404 -0.0404,0.0973 0,0.0648 0,0.0648 v 0 l -0.28353,-0.0404 q -0.24303,0 -0.40508,0.12148 v 0 q -0.0811,0 -0.20255,0.0404 -0.12148,0.0404 -0.20255,0.0404 v 0 q -0.60758,0 -0.93164,-0.0811 v 0 q -0.56708,-0.0811 -0.89114,-0.0811 v 0 q -0.16191,0.0811 -0.28355,0.0811 v 0 q -0.40506,0.12149 -1.09366,0.12149 v 0 h -0.6481 q -1.17468,0 -1.9038,-0.12149 v 0 q -0.89116,-0.0811 -1.53926,-0.0811 v 0 q -0.1619,0 -0.56707,0.0811 v 0 q -0.20255,0.0811 -0.5671,0.0811 v 0 q -0.12149,0 -0.21876,-0.0404 -0.10528,-0.0404 -0.22683,-0.0404 v 0 q -0.16191,-0.12148 -0.40506,-0.12148 v 0 l -0.32406,0.0404 q -0.32406,-0.0404 -0.32406,-0.40506 v 0 l -2.22784,-11.26079 -2.30886,11.26079 q -0.28354,0.0811 -0.28354,0.24302 v 0 q -0.0404,0.0404 -0.0404,0.0973 0,0.0648 0,0.0648 v 0 l -0.32406,-0.0404 q -0.12148,0 -0.20255,0.12148 v 0 q -0.0811,0 -0.12148,0.0404 -0.0404,0.0404 -0.12149,0.0404 v 0 q -0.76963,0 -1.05315,-0.0811 v 0 q -0.72912,-0.0811 -1.17469,-0.0811 v 0 q 0,0.1619 -0.32406,0.1619 v 0 q -0.12148,0.0404 -0.60758,0.0404 z m 35.48359,0.12149 q -1.70127,0 -2.85975,-0.0811 -1.15038,-0.0811 -2.16305,-0.36454 v 0 q -0.16191,0 -0.24304,-0.18634 -0.0811,-0.17812 -0.12149,-0.25925 v 0 q -0.0404,-0.20255 -0.0404,-0.48608 v 0 q -0.24304,-4.09115 -0.44557,-6.3595 v 0 q -0.20255,-2.67343 -0.20255,-6.68357 v 0 -1.01264 l 0.0404,-1.53925 0.0811,-1.82279 0.0404,-1.01266 q 0.0404,-0.28353 0.0404,-0.89114 v 0 -1.53923 q 0,-0.76963 0.0404,-1.01267 v 0 q 0,-0.12148 0.16191,-0.12148 v 0 q 0.36457,0 0.6481,-0.16191 v 0 q 0.12148,0 0.38076,-0.0242 0.26736,-0.0155 0.46989,0.0242 v 0 h 1.3367 2.14684 1.17469 2.26834 q 0.72912,0 1.09369,0.0404 v 0 l 1.2152,0.0404 q 0.44556,0 0.66428,0.0566 0.22685,0.0648 0.34836,0.26733 v 0 q 0.12149,0.12149 0.16191,0.48608 0.0404,0.36457 0.0404,0.81014 v 0 0.32404 0.56709 q 0,0.40506 0.0404,0.5671 v 0 0.40506 0.28355 q 0.0404,0.16213 0.0404,0.40506 v 0 l -0.0404,1.21519 q -0.0404,0.40506 -0.0404,1.17469 v 0 q 0,0.44556 0.0811,0.60758 v 0 q 0.12149,0.20255 0.36457,0.20255 v 0 q 0.0811,0 0.40506,-0.0811 v 0 q 0.12149,0 0.32406,-0.0404 0.20255,-0.0404 0.44557,-0.0404 v 0 h 0.40506 q 0.20255,0.0811 0.72911,0.0811 v 0 q 0.20255,0 0.38076,-0.0404 0.18634,-0.0404 0.34836,-0.0404 v 0 q 0.36455,0 0.36455,-0.0811 v 0 -1.66076 -0.60759 q 0,-0.6076 0.0404,-0.97215 v 0 -1.13418 q 0.0404,-0.40508 0.0404,-1.13417 v 0 q 0,-0.68863 0.0404,-0.93167 v 0 -0.60759 h 0.12149 0.20255 q 0.24304,0 0.24304,-0.1619 v 0 h 1.94431 q 1.2152,0 1.82278,0.0811 v 0 q 1.05318,0.0811 1.70128,0.0811 v 0 l 2.55189,-0.0811 q 0.60761,-0.0811 1.49875,-0.0811 v 0 h 1.05315 q 0.81014,0 1.09369,0.1619 0.28355,0.16191 0.28355,0.81014 v 0 3.2 q 0,0.81013 -0.0404,1.29621 v 0 l -0.0404,0.97214 q 0,0.64812 -0.0811,1.94431 v 0 l -0.0404,0.68861 0.0404,0.64809 -0.40508,12.84054 q 0,0.12148 -0.24304,0.52659 v 0 q -0.24304,0.32403 -0.48608,0.32403 v 0 h -2.83544 q -1.57975,0 -3.11898,-0.12148 v 0 q -1.01267,-0.0404 -3.03798,-0.0404 v 0 h -0.68862 q -0.5671,0 -0.76963,-0.40506 v 0 q -0.16191,-0.52659 -0.20255,-1.37722 v 0 l -0.40506,-6.68354 h -0.40508 q -0.97213,0 -1.4177,-0.0404 v 0 q -0.40508,-0.0811 -0.40508,-0.0811 v 0 h -1.66076 q -0.16191,0 -0.20256,0.12148 -0.0404,0.12149 -0.0404,0.25926 0,0.14591 0,0.22682 v 0 6.72407 0.76961 q 0,0.12149 -0.0404,0.21876 -0.0404,0.10528 -0.0404,0.18634 v 0 q -0.0404,0.12149 -0.20255,0.12149 v 0 q -0.0404,0 -0.12149,0.0404 -0.0811,0.0404 -0.20255,0.0811 v 0 q -1.49872,0 -2.83545,0.12149 v 0 z m 39.41272,0.89113 q -0.32406,0 -0.89116,-0.0811 v 0 q -0.28353,-0.0811 -0.89114,-0.0811 v 0 q -1.53923,0 -3.8076,-0.6886 v 0 h -0.28353 q -0.28355,0 -0.6076,-0.16191 v 0 q -0.0811,-0.0811 -0.20256,-0.14592 -0.12148,-0.0566 -0.28355,-0.17834 v 0 l -0.85062,-0.48608 q -1.2152,-0.6886 -2.14684,-1.9281 -0.93165,-1.23138 -1.49875,-2.73013 v 0 q -1.09366,-2.7544 -1.09366,-5.63036 v 0 q 0,-3.19999 1.29619,-6.15697 v 0 q 1.37724,-3.119 3.6861,-4.94178 v 0 q 2.5519,-2.02531 5.67089,-2.02531 v 0 q 0.97216,0 1.49873,0.0811 v 0 q 0,-0.0811 0.12148,-0.0811 v 0 h 0.12149 q 2.83545,0 5.06331,0.20255 v 0 q 1.9038,0.28355 3.52405,1.17468 v 0 q 3.24051,2.14684 4.65823,4.69874 v 0 q 1.49875,2.83545 1.49875,6.68354 v 0 q 0,3.84812 -1.82281,7.21015 v 0 l -0.40506,0.6481 q -0.1619,0.24304 -0.20255,0.24304 v 0 l -0.12148,0.20255 -0.28355,0.16191 q -1.74176,2.59241 -5.26582,3.52405 v 0 q -2.34937,0.48608 -6.48103,0.48608 z m 0.6886,-3.03797 q 0.36455,0 0.56708,-0.44557 v 0 q 0.48608,-0.72912 0.81014,-2.83545 v 0 q 0.0404,-0.36455 0.20255,-1.62025 0.16191,-1.25571 0.20255,-2.34937 v 0 q 0.16191,-2.75443 0.16191,-3.40255 v 0 -0.93164 -0.32404 q 0,-1.45823 -0.12149,-2.51141 v 0 q -0.12148,-1.66076 -0.48608,-2.63292 v 0 q -0.36454,-0.48606 -0.56709,-0.48606 v 0 q -0.40506,0 -0.76961,0.60759 v 0 q -0.36457,0.60761 -0.5671,2.22786 v 0 l -0.85062,6.48101 v 0.81014 0.52659 q 0.12148,1.70127 0.12148,2.22784 v 0 l 0.0811,0.97215 0.12148,1.29622 q 0,0.32404 0.0811,0.56708 v 0 l 0.44557,1.49874 q 0.0404,0.16191 0.21876,0.24304 0.18634,0.0811 0.34836,0.0811 z m 33.57168,2.95695 -0.48608,-0.12148 -0.93164,-0.16213 q -1.33671,-0.20255 -2.22784,-0.48606 v 0 q -0.48608,-0.0404 -0.85063,-0.28355 v 0 q -0.32406,-0.12148 -0.40508,-0.32406 v 0 l -0.89113,-5.0228 v -0.20255 q 0,-0.28352 0.0648,-0.42935 0.0566,-0.1377 0.25925,-0.17834 v 0 q 2.6329,1.01266 5.18482,1.01266 v 0 q 0.81011,0 1.25568,0.0404 v 0 q 1.53926,0 2.22786,-0.40508 v 0 q 0.36455,-0.24304 0.36455,-0.6886 v 0 q 0,-0.6481 -0.40506,-1.07748 -0.40505,-0.42125 -1.17468,-0.7453 v 0 l -1.29619,-0.48608 q -0.5671,-0.12149 -1.29622,-0.44559 v 0 q 0,-0.0404 -0.0404,-0.0648 -0.0404,-0.0156 -0.0811,-0.0973 v 0 q -0.1619,-0.0404 -0.6886,-0.40506 v 0 l -0.24304,-0.12149 q 0.0811,0 0.0811,-0.0404 0,-0.0404 -0.12148,-0.0811 v 0 q -0.12149,-0.0811 -0.46176,-0.26734 -0.34836,-0.17812 -0.5914,-0.42127 v 0 q -0.36455,-0.20255 -0.36455,-0.48608 v 0 -0.20255 q -1.01266,0 -1.74178,-2.10633 v 0 q -0.60758,-2.14684 -0.60758,-3.03798 v 0 q 0,-3.76709 3.2405,-5.79242 v 0 q 2.63292,-1.66074 7.25064,-2.22784 v 0 q 2.99746,-0.32406 7.45317,-0.32406 v 0 q 0.56709,0.20255 0.89115,0.24304 v 0 q 0.72912,0.0404 0.97216,0.48608 v 0 q 0.12149,0.20255 0.20255,0.81013 v 0 q 0.12149,0.6481 0.24304,3.7671 v 0 q 0.0811,0.0811 0.0811,0.24304 v 0 q 0,0.32403 -0.89115,0.52659 v 0 q -0.97216,0.12148 -1.25569,0.12148 v 0 l -0.93164,0.12149 q -1.57977,0.20255 -2.06585,0.28352 v 0 q -1.66076,0.28355 -2.30885,1.01267 v 0 q -0.40506,0.48608 -0.40506,1.01267 v 0 q 0,0.28355 0.0811,0.44556 0.0811,0.16191 0.40506,0.36455 v 0 q 0.36457,0.20255 2.10633,1.01267 v 0 q 1.86329,0.81014 3.72658,2.10633 v 0 q 1.57977,1.09366 2.26838,2.91647 v 0 q 0.36454,0.7696 0.36454,2.02531 v 0 q 0,1.13417 -0.28355,1.94431 v 0 q -1.05315,2.67341 -3.96962,4.37468 v 0 q -1.37721,0.81014 -2.87596,1.28 -1.49872,0.46178 -2.87593,0.46178 v 0 z m 20.33421,-0.89113 q -0.76962,0 -0.60758,-1.37722 v 0 q 0,-0.48607 0.20255,-1.09366 v 0 q 0,-0.28355 0.0404,-0.46989 0.0404,-0.17812 0.0404,-0.29974 v 0 q 0.93165,-4.41519 2.06582,-8.70887 v 0 l 2.75443,-10.77469 q 0,-0.0811 0.12149,-0.20255 0.12148,-0.12149 0.24303,-0.20255 v 0 h 0.28355 q 0.48608,0 0.76963,-0.12149 v 0 q 0.24302,-0.0404 0.8506,-0.0404 v 0 q 0.97216,0 1.45824,0.0404 v 0 q 0.72912,0.12149 1.49874,0.12149 v 0 l 2.10633,-0.0404 q 0.32406,-0.0811 0.76963,-0.0811 v 0 l 1.78227,-0.0811 h 1.33671 q 0.76962,0 1.49874,0.0404 v 0 h 1.13417 q 0.40506,0.0404 1.17469,0.0404 v 0 h 1.53925 q 0.12149,0 0.24304,0.0404 0.12149,0.0404 0.20255,0.0811 v 0 q 0.16213,0.0811 0.40506,0.0811 v 0 h 0.36455 q 0.28355,0.20255 0.28355,0.40506 v 0 l 2.87596,10.69369 q 1.3367,5.14431 2.10633,8.70887 v 0 q 0,0.20255 0.12148,0.76961 v 0 q 0.16191,0.81014 0.16191,1.29621 v 0 q 0,0.28355 -0.0811,0.76963 v 0 q -0.20255,0.40506 -0.5671,0.40506 v 0 h -0.44557 q -0.52659,0 -0.81012,-0.0404 v 0 h -0.89115 -0.85063 -0.68861 q -0.28354,0 -0.32405,-0.0404 v 0 h -2.22784 l -0.0404,-0.0811 q -0.0811,-0.0811 -0.24303,-0.0811 v 0 l -0.12149,0.0811 q 0,0.0811 -0.0811,0.0811 v 0 h -0.12148 -0.28355 q -0.20255,-0.0811 -0.72912,-0.0811 v 0 q -0.97215,-0.0811 -1.62025,-0.0811 v 0 q -0.44555,-0.93163 -1.05315,-4.09114 v 0 q -0.85063,0.12149 -1.94429,0.12149 v 0 h -1.05318 -1.01267 q -0.16191,0.60761 -0.20255,1.01267 v 0 q -0.0404,0.20255 -0.32404,1.37721 -0.28355,1.17469 -0.52658,1.57977 v 0 l -0.24304,0.0811 q -0.12149,0.0404 -0.20255,0.0566 -0.0811,0.0242 -0.0811,0.0242 v 0 h -0.0811 q -0.24304,0 -0.32406,-0.0811 v 0 q -0.16191,-0.0811 -0.20255,-0.0811 v 0 l -1.53924,0.0811 h -1.13417 q -0.20255,0.0404 -0.32406,0.0566 -0.12149,0.0242 -0.16191,0.0242 v 0 h -3.2405 -0.32406 q -0.36455,0.0404 -1.49873,0.0404 v 0 h -0.97215 q -0.24304,0.0404 -0.76963,0.0404 v 0 z m 16.28357,-8.66834 q -0.24303,-1.37724 -0.28355,-1.62028 v 0 l -0.32403,-1.94429 q -0.0811,-0.5671 -0.16191,-1.02888 -0.0811,-0.46986 -0.12149,-0.87492 v 0 q -0.12148,-0.48608 -0.18633,-0.91545 -0.0566,-0.42127 -0.1377,-0.78582 v 0 q -0.0404,-0.24304 -0.0811,-0.63191 -0.0404,-0.38076 -0.12148,-0.54278 v 0 l -0.0811,-0.48607 q 0,-0.16191 -0.0811,-0.28355 v 0 l -0.0404,-0.24304 q -0.0811,0.24304 -0.0811,0.24304 v 0 0.1619 0.12149 q 0,0.0404 -0.0404,0.1377 -0.0404,0.10527 -0.0811,0.34836 v 0 q -0.0404,0.20255 -0.0811,0.50229 -0.0404,0.30784 -0.12149,0.67239 v 0 l -0.28355,1.66076 -0.32406,1.8633 -0.12148,0.89113 q -0.0811,0.32406 -0.16213,1.05318 v 0 q -0.36448,1.82278 -0.32397,1.66076 v 0 h 1.78227 q 0.0404,-0.0404 0.12149,-0.10527 0.0811,-0.0566 0.12148,-0.0566 v 0 h 0.12149 q 0.20255,0 0.34025,0.0404 0.14591,0.0404 0.26736,0.0811 v 0 q 0.24304,0.0811 0.48605,0.0811 z m 20.29371,8.74936 h -0.5671 -0.6481 -0.60759 -0.32405 l -1.57975,-0.44557 -0.0811,-0.24304 q -0.0404,0 -0.0404,-0.40506 v 0 q 0,-0.52658 -0.0404,-0.85062 v 0 l -0.0404,-1.53926 q -0.0404,-0.48607 -0.0404,-1.53923 v 0 q 0,-1.01266 -0.0404,-1.49874 v 0 -1.2152 q -0.24304,-2.5519 -0.24304,-5.26581 v 0 -0.32406 -0.60759 q 0,-0.48608 0.0404,-0.68861 v 0 -0.32406 -0.28354 q -0.0404,-0.12149 -0.0404,-0.40506 v 0 -0.44557 -0.24304 -0.40508 -0.6481 q 0,-0.48607 0.0404,-0.6886 v 0 -0.40506 l 0.0404,-0.20255 v -0.52659 q 0.0404,-0.40506 0.0404,-1.09366 v 0 q 0,-0.52659 -0.0404,-0.93165 v 0 l -0.0404,-0.93165 -0.0404,-0.1619 q -0.12148,-0.0811 0,-0.12149 v 0 q 0.16213,-0.64812 1.01269,-0.93165 v 0 q 0.40506,-0.1619 1.3367,-0.1619 v 0 q 0.68861,0 3.60508,-0.12149 v 0 q 1.45821,-0.0811 1.82278,-0.0811 v 0 q 0.60759,-0.0404 1.45824,-0.0404 v 0 q 0.40505,0.0404 0.56707,0.1377 0.16191,0.10528 0.29976,0.34834 0.14592,0.24304 0.22683,0.36457 v 0 l 0.81014,1.17468 q -0.0404,-0.0404 1.01264,1.45824 v 0 q 0.97216,1.57974 2.34937,3.56456 v 0 q 0.20255,0.32404 0.48608,0.72912 0.28355,0.40506 0.60761,0.93164 v 0 -1.41772 q 0.0404,-0.5671 0.0404,-1.62027 v 0 q 0,-1.37722 0.0811,-3.07847 v 0 q 0,-0.32406 0.0404,-0.59139 0.0404,-0.25926 0.0404,-0.42127 v 0 q 0,-0.40506 0.0404,-0.40506 v 0 q 0.16191,-0.24304 0.56707,-0.52659 v 0 q 0.48606,-0.32406 1.01265,-0.28355 v 0 h 2.02531 0.40508 q 0.60758,0 1.01264,0.0404 v 0 h 1.2152 q 0.40505,0.0404 1.21519,0.0404 v 0 h 0.89114 0.40508 q 0.81011,0 1.21517,0.28355 v 0 q 0.24304,0.16191 0.32406,0.42127 0.0811,0.26734 0.0811,0.79393 v 0 q 0,0.52656 -0.0404,0.89113 v 0 q -0.0404,0.40506 -0.0404,0.97216 v 0 0.28355 q 0.0404,0.12148 0.0404,0.36455 v 0 1.05317 l -0.0404,4.65823 v 4.57721 1.09369 q 0,4.37468 -0.0811,5.54936 v 0 l -0.12149,1.33671 q -0.20255,0.93164 -0.5671,0.97215 v 0 q -0.0811,0 -0.22682,0.0404 -0.1377,0.0404 -0.29974,0.0404 v 0 q -1.45824,0 -2.14684,-0.0811 v 0 h -2.10633 -2.10634 -0.52658 q -0.12149,0.0404 -0.32406,0.0404 v 0 q -0.48608,0 -1.01267,-0.20255 v 0 q -0.32404,-0.0811 -0.68861,-0.44557 v 0 l -3.56454,-5.0228 q -0.20255,-0.28352 -0.76963,-0.93164 v 0 l -0.52658,-0.48608 q -0.20256,-0.20255 -0.32406,-0.20255 v 0 q -0.12149,0 -0.20255,0.0973 -0.0811,0.10527 -0.0811,0.18633 v 0 0.68863 q -0.0404,0.32404 -0.0404,1.01265 v 0 1.17468 q -0.0404,0.44557 -0.0404,1.2152 v 0 0.97215 0.60759 q -0.0404,0.0811 -0.0404,0.24304 v 0 q 0,0.0404 -0.12149,0.64812 v 0 q -0.0811,0.1619 -0.12149,0.20255 -0.0404,0.0404 -0.28352,0.0404 v 0 q -0.0811,-0.0404 -0.14592,-0.0404 -0.0566,0 -0.0973,0 v 0 q -3.20002,0.28353 -5.30635,0.28353 z m 36.65016,0.81014 q -2.59241,0 -4.82025,-1.25571 v 0 q -2.59241,-1.29619 -4.09115,-3.8886 v 0 q -1.70125,-2.99747 -1.70125,-7.29115 v 0 q 0,-2.95698 1.07745,-5.34686 1.06937,-2.38986 3.01368,-4.05062 v 0 q 1.9038,-1.62025 4.49621,-2.4709 2.59241,-0.85062 5.63039,-0.85062 v 0 q 4.33419,0 9.27597,2.30885 v 0 l -1.41773,5.95445 q -0.72912,-0.16191 -1.3367,-0.36457 v 0 q -1.57977,-0.44557 -2.87596,-0.6481 v 0 q -0.89116,-0.1619 -1.37721,-0.1619 v 0 q -2.10636,0 -3.28104,1.17468 v 0 q -1.37721,1.45823 -1.37721,4.65823 v 0 q 0,2.71394 0.85064,4.17217 v 0 q 0.81012,1.13418 2.14684,1.13418 v 0 q 1.09367,0 2.10633,-0.44557 v 0 q -0.0404,-0.40508 -0.0811,-0.95596 -0.0404,-0.54278 -0.0404,-1.2719 v 0 q -0.16191,-1.45823 -0.32404,-2.06582 v 0 -1.57974 q 0,-0.28355 0.24302,-0.28355 v 0 h 0.20255 q 0.12149,0 0.24304,-0.0404 0.12148,-0.0404 0.24304,-0.0404 v 0 q 0.40508,-0.0811 0.48608,-0.0811 v 0 q 0.28354,0 0.76962,0.0811 v 0 q 0.16213,0 0.36457,0.0404 0.20255,0.0404 0.40506,0.0404 v 0 q 0.16191,-0.16191 1.01267,-0.16191 v 0 q 0.64809,0 1.01264,-0.0404 v 0 q 0.24304,-0.0811 0.60761,-0.0811 v 0 l 0.48608,-0.12148 q 0.36454,0.0404 1.05315,0.0404 v 0 q 0.28355,0.0404 0.76963,0.0404 v 0 q 0.12148,0 0.20255,0.0156 0.0811,0.0242 0.12149,0.0242 v 0 h 0.89113 l 0.16213,0.0811 v 1.13414 q 0.0404,0.20256 0.0404,0.60759 v 0 0.5671 1.05318 3.56454 0.16191 q -0.0404,0.12148 -0.0404,0.32406 v 0 q -0.0404,0.1619 -0.0404,0.36454 v 0 0.20255 q 0,2.14684 -0.0811,3.038 v 0 q -0.0811,1.33671 -0.28354,1.82278 v 0 q -0.85063,0 -1.33671,0.0811 v 0 h -0.81014 -0.0811 -0.36455 l -0.0404,-0.0811 -0.16213,0.0811 h -3.52405 -0.16213 -0.36455 -0.40508 q -0.0811,0.0404 -0.28353,0.0404 v 0 q -0.28355,0 -0.40508,-0.81014 v 0 q -0.20255,-0.89113 -0.20255,-2.10633 v 0 q -0.40506,1.7823 -2.22784,2.75443 v 0 q -1.78229,0.93165 -4.3747,0.93165 z m 43.62538,-0.81014 h -1.9848 -1.86329 -2.10633 -2.67343 q -0.36457,-0.56708 -0.48608,-2.06582 v 0 q -0.16213,-1.33671 -0.16213,-3.8886 v 0 l 0.0404,-4.4557 q 0.0404,-1.62028 0.0404,-5.14433 v 0 l -0.12148,-0.12149 h -4.01013 q -0.89114,0 -1.17469,-2.02531 v 0 q -0.16191,-1.09367 -0.16191,-3.2 v 0 -0.52658 q 0.0811,-0.28355 0.0811,-0.89114 v 0 -0.81014 l 0.0404,-0.32406 0.16191,-0.1619 0.72911,0.0404 h 0.81014 q 1.78227,0 2.71392,-0.0404 v 0 h 2.63292 0.72911 1.37722 1.74178 1.74176 q 0.52659,0.0404 1.49875,0.0404 v 0 h 1.01266 q 0.16213,-0.0811 0.52659,-0.0811 v 0 q 0.28353,-0.0811 0.52657,-0.0811 v 0 q 0.76963,0 1.17468,0.0811 v 0 q 0.81014,0.0811 1.2152,0.0811 v 0 l 1.05317,-0.0404 h 1.57975 q 1.21519,0 1.66076,0.0404 v 0 l 0.56708,0.0404 q 0.0404,0.0404 0.12148,0.0973 0.0811,0.0648 0.0811,0.10527 v 0 6.88609 q 0,0.24304 -0.26736,0.52659 -0.25923,0.28355 -0.50227,0.36455 v 0 q -1.3367,-0.28353 -3.48354,-0.28353 v 0 h -1.53926 q -0.60759,0 -0.81011,1.53923 v 0 q -0.0811,0.44557 -0.0811,1.29622 v 0 1.21517 q 0,0.81014 0.0404,1.21519 v 0 1.13418 q 0,1.66076 -0.16213,3.07849 v 0 q -0.0811,1.05317 -0.0811,1.53925 v 0 q -0.0811,0.48608 -0.0811,1.3367 v 0 q 0,1.2152 -0.0811,2.02534 v 0 q -0.0404,1.25568 -0.93165,1.3367 v 0 q -0.97215,0.12149 -1.13419,0.12149 z m 18.74637,0 q -1.69317,0 -2.85167,-0.0811 -1.15847,-0.0811 -2.17113,-0.36454 v 0 q -0.15392,0 -0.24304,-0.18634 -0.0729,-0.17812 -0.11349,-0.25923 v 0 q -0.0486,-0.20255 -0.0486,-0.48608 v 0 q -0.24304,-4.09115 -0.44557,-6.3595 v 0 q -0.20255,-2.67343 -0.20255,-6.68356 v 0 -1.01267 l 0.0404,-1.53923 0.0891,-1.82278 0.0404,-1.01267 q 0.0324,-0.28355 0.0324,-0.89114 v 0 -1.53925 q 0,-0.76963 0.0404,-1.01267 v 0 q 0,-0.12148 0.16213,-0.12148 v 0 q 0.37265,0 0.6481,-0.16191 v 0 q 0.1297,0 0.38886,-0.0242 0.26734,-0.0155 0.46987,0.0242 v 0 h 1.32862 2.15494 1.17469 2.26835 q 0.72101,0 1.08558,0.0404 v 0 l 1.21517,0.0404 q 0.44559,0 0.67242,0.0566 0.22682,0.0648 0.34025,0.26736 v 0 q 0.1297,0.12148 0.17012,0.48607 0.0324,0.36455 0.0324,0.81012 v 0 0.32406 0.56707 q 0,0.40508 0.0404,0.5671 v 0 0.40506 0.28355 q 0.0486,0.16213 0.0486,0.40506 v 0 l -0.0486,1.21519 q -0.0404,0.40506 -0.0404,1.17469 v 0 q 0,0.44556 0.0891,0.60761 v 0 q 0.11349,0.20255 0.35644,0.20255 v 0 q 0.0891,0 0.40508,-0.0811 v 0 q 0.1297,0 0.33214,-0.0404 0.20255,-0.0404 0.43746,-0.0404 v 0 h 0.40508 q 0.20256,0.0811 0.73721,0.0811 v 0 q 0.20255,0 0.38076,-0.0404 0.18633,-0.0404 0.34025,-0.0404 v 0 q 0.36457,0 0.36457,-0.0811 v 0 -1.66077 -0.60761 q 0,-0.60758 0.0404,-0.97215 v 0 -1.13418 q 0.0486,-0.40505 0.0486,-1.13417 v 0 q 0,-0.68861 0.0404,-0.93165 v 0 -0.60758 h 0.11349 0.20255 q 0.25114,0 0.25114,-0.16191 v 0 h 1.93621 q 1.2152,0 1.82278,0.0811 v 0 q 1.05318,0.0811 1.70938,0.0811 v 0 l 2.54379,-0.0811 q 0.60759,-0.0811 1.50683,-0.0811 v 0 h 1.05318 q 0.81011,0 1.08558,0.16191 0.29163,0.1619 0.29163,0.81011 v 0 3.20002 q 0,0.81011 -0.0486,1.29619 v 0 l -0.0404,0.97216 q 0,0.6481 -0.0729,1.94431 v 0 l -0.0404,0.68861 0.0404,0.64809 -0.40508,12.84052 q 0,0.12148 -0.24301,0.52659 v 0 q -0.25115,0.32406 -0.49419,0.32406 v 0 h -2.83544 q -1.57975,0 -3.11089,-0.12149 v 0 q -1.01267,-0.0404 -3.03798,-0.0404 v 0 h -0.69671 q -0.559,0 -0.76153,-0.40506 v 0 q -0.1619,-0.52659 -0.20255,-1.37724 v 0 l -0.40505,-6.68354 h -0.40508 q -0.97216,0 -1.41773,-0.0404 v 0 q -0.40506,-0.0811 -0.40506,-0.0811 v 0 h -1.66886 q -0.15392,0 -0.20256,0.12148 -0.0404,0.12149 -0.0404,0.25923 0,0.14592 0,0.22685 v 0 6.72405 0.76963 q 0,0.12149 -0.0324,0.21876 -0.0404,0.10528 -0.0404,0.18634 v 0 q -0.0404,0.12149 -0.20256,0.12149 v 0 q -0.0404,0 -0.1297,0.0404 -0.0729,0.0404 -0.20255,0.0811 v 0 q -1.49064,0 -2.83545,0.12149 v 0 z m 27.86839,-0.0811 q -0.76962,0 -0.6076,-1.37721 v 0 q 0,-0.48608 0.20255,-1.09366 v 0 q 0,-0.28355 0.0404,-0.46987 0.0404,-0.17812 0.0404,-0.29976 v 0 q 0.93165,-4.41519 2.06582,-8.70887 v 0 l 2.75445,-10.7747 q 0,-0.0811 0.12149,-0.20255 0.12148,-0.12148 0.24304,-0.20255 v 0 h 0.28354 q 0.48608,0 0.76963,-0.12148 v 0 q 0.24302,-0.0404 0.85063,-0.0404 v 0 q 0.97215,0 1.45823,0.0404 v 0 q 0.72912,0.12148 1.49872,0.12148 v 0 l 2.10633,-0.0404 q 0.32406,-0.0811 0.76963,-0.0811 v 0 l 1.7823,-0.0811 h 1.3367 q 0.76963,0 1.49874,0.0404 v 0 h 1.13418 q 0.40506,0.0404 1.17468,0.0404 v 0 h 1.53923 q 0.12149,0 0.24304,0.0404 0.12149,0.0404 0.20255,0.0811 v 0 q 0.16213,0.0811 0.40508,0.0811 v 0 h 0.36455 q 0.28355,0.20256 0.28355,0.40506 v 0 l 2.87596,10.6937 q 1.3367,5.1443 2.10633,8.70887 v 0 q 0,0.20255 0.12149,0.76963 v 0 q 0.16213,0.81011 0.16213,1.29619 v 0 q 0,0.28355 -0.0811,0.76963 v 0 q -0.20255,0.40505 -0.5671,0.40505 v 0 h -0.44557 q -0.52658,0 -0.81011,-0.0404 v 0 h -0.89116 -0.85062 -0.68861 q -0.28355,0 -0.32406,-0.0404 v 0 h -2.22784 l -0.0404,-0.0811 q -0.0811,-0.0811 -0.24304,-0.0811 v 0 l -0.12149,0.0811 q 0,0.0811 -0.0811,0.0811 v 0 h -0.12149 -0.28352 q -0.20255,-0.0811 -0.72912,-0.0811 v 0 q -0.97216,-0.0811 -1.62028,-0.0811 v 0 q -0.44556,-0.93164 -1.05315,-4.09115 v 0 q -0.85063,0.12148 -1.94431,0.12148 v 0 h -1.05316 -1.01266 q -0.16191,0.60761 -0.20255,1.01267 v 0 q -0.0404,0.20255 -0.32406,1.37721 -0.28355,1.17469 -0.52659,1.57977 v 0 l -0.24304,0.0811 q -0.12149,0.0404 -0.20255,0.0566 -0.0811,0.0242 -0.0811,0.0242 v 0 h -0.0811 q -0.24304,0 -0.32406,-0.0811 v 0 q -0.16191,-0.0811 -0.20255,-0.0811 v 0 l -1.53923,0.0811 h -1.13418 q -0.20255,0.0404 -0.32406,0.0566 -0.12148,0.0242 -0.16191,0.0242 v 0 h -3.24052 -0.32404 q -0.36457,0.0404 -1.49874,0.0404 v 0 h -0.97216 q -0.24304,0.0404 -0.76961,0.0404 v 0 z m 16.28357,-8.66836 q -0.24303,-1.37721 -0.28354,-1.62025 v 0 l -0.32406,-1.94429 q -0.0811,-0.5671 -0.16191,-1.02888 -0.0811,-0.46987 -0.12149,-0.87492 v 0 q -0.12148,-0.48608 -0.17834,-0.91546 -0.0649,-0.42127 -0.14592,-0.78582 v 0 q -0.0404,-0.24304 -0.0811,-0.6319 -0.0404,-0.38076 -0.12149,-0.54278 v 0 l -0.0811,-0.48608 q 0,-0.16191 -0.0811,-0.28355 v 0 l -0.0404,-0.24304 q -0.0811,0.24304 -0.0811,0.24304 v 0 0.16191 0.12149 q 0,0.0404 -0.0404,0.13769 -0.0404,0.10528 -0.0811,0.34836 v 0 q -0.0404,0.20255 -0.0811,0.50229 -0.0404,0.30785 -0.12149,0.6724 v 0 l -0.28355,1.66076 -0.32404,1.86329 -0.12148,0.89114 q -0.0811,0.32406 -0.16191,1.05317 v 0 q -0.36457,1.82278 -0.32406,1.66077 v 0 h 1.78229 q 0.0404,-0.0404 0.12149,-0.10528 0.0811,-0.0566 0.12149,-0.0566 v 0 h 0.12148 q 0.20255,0 0.34836,0.0404 0.1377,0.0404 0.25925,0.0811 v 0 q 0.24304,0.0811 0.48608,0.0811 z m 29.81269,8.74938 h -1.98482 -1.86329 -2.10633 -2.67341 q -0.36457,-0.56707 -0.48608,-2.06582 v 0 q -0.16213,-1.3367 -0.16213,-3.88862 v 0 l 0.0404,-4.4557 q 0.0404,-1.62025 0.0404,-5.14431 v 0 l -0.12149,-0.12148 h -4.01013 q -0.89116,0 -1.17469,-2.02532 v 0 q -0.1619,-1.09366 -0.1619,-3.19999 v 0 -0.52659 q 0.0811,-0.28353 0.0811,-0.89113 v 0 -0.81012 l 0.0404,-0.32406 0.16213,-0.16191 0.72912,0.0404 h 0.81011 q 1.7823,0 2.71394,-0.0404 v 0 h 2.63292 0.72912 1.37721 1.74176 1.74179 q 0.52659,0.0404 1.49874,0.0404 v 0 h 1.01265 q 0.16213,-0.0811 0.52658,-0.0811 v 0 q 0.28355,-0.0811 0.52659,-0.0811 v 0 q 0.76963,0 1.17469,0.0811 v 0 q 0.81011,0.0811 1.21519,0.0811 v 0 l 1.05316,-0.0404 h 1.57976 q 1.21517,0 1.66076,0.0404 v 0 l 0.56708,0.0404 q 0.0404,0.0404 0.12149,0.0973 0.0811,0.0649 0.0811,0.10528 v 0 6.88609 q 0,0.24304 -0.25923,0.52659 -0.26733,0.28352 -0.51037,0.36454 v 0 q -1.33673,-0.28355 -3.48357,-0.28355 v 0 h -1.53923 q -0.60761,0 -0.81014,1.53924 v 0 q -0.0811,0.44556 -0.0811,1.29621 v 0 1.21518 q 0,0.81013 0.0404,1.21519 v 0 1.1342 q 0,1.66074 -0.16213,3.07846 v 0 q -0.0811,1.05318 -0.0811,1.53926 v 0 q -0.0811,0.48607 -0.0811,1.3367 v 0 q 0,1.21519 -0.0811,2.02533 v 0 q -0.0404,1.25569 -0.93164,1.33671 v 0 q -0.97216,0.12148 -1.13418,0.12148 z m 24.7413,0.0404 q -0.40506,0 -0.60759,-0.38887 -0.20255,-0.38076 -0.36457,-1.10986 v 0 q -0.0404,-0.32406 -0.0404,-1.09368 v 0 q -0.0811,-0.36455 -0.0811,-0.76963 v 0 q -0.0811,-1.25568 -0.32406,-4.09113 v 0 q -0.20255,-1.66076 -0.20255,-4.09115 v 0 -11.54432 q 0,-0.0811 0.0811,-0.20256 0.0811,-0.12148 0.16213,-0.20255 v 0 h 0.16191 q 0.0404,0.0404 0.20255,0.0404 v 0 q 0.44559,0 0.89116,-0.12148 v 0 q 0.6481,-0.0811 0.97216,-0.0811 v 0 q 1.01264,0 1.57974,0.0811 v 0 q 0.32403,0 0.72911,0.0404 0.40506,0.0404 0.89114,0.0404 v 0 l 0.12149,-0.12148 h 1.78229 q 0.12149,0.12148 0.32404,0.12148 v 0 l 0.0811,-0.0811 h 0.24304 q 0.16191,0 0.20255,-0.0404 v 0 h 0.12149 q 0.44557,0 0.56707,0.12148 v 0 h 9.31649 q 0.0404,0.0404 0.12148,0.0811 0.0811,0.0404 0.12149,0.0404 v 0 l 0.16191,-0.0811 q 0.0404,-0.0404 0.12148,-0.0404 v 0 q 0.93165,0 1.3367,1.53926 v 0 q 0.36455,1.45821 0.36455,3.52405 v 0 q 0,0.20255 -0.16191,0.29974 -0.1619,0.10527 -0.52658,0.18634 v 0 q -0.12149,0 -0.25923,0.0155 -0.14592,0.0242 -0.34836,-0.0155 v 0 h -0.52659 -1.62025 q -0.40506,0 -0.6238,0.0155 -0.22683,0.0242 -0.38887,0.0242 v 0 q -0.48608,0.12149 -1.21519,0.12149 v 0 h -0.52657 q -0.16213,0 -0.24304,-0.0242 -0.0811,-0.0155 -0.12148,-0.0155 v 0 l -0.28355,0.12149 q -0.0404,0.0811 -0.0404,0.40506 v 0 q -0.0811,0.40508 -0.16213,1.8228 v 0 l -0.0404,1.70125 q 0,0 0,0.12149 v 0 q 0,0.0404 0.0244,0.12149 0.0155,0.0811 0.0973,0.1619 v 0 h 0.72912 q 1.41772,0 2.59241,0.20255 v 0 q 0.60759,0.0811 1.11796,0.32406 0.50229,0.24304 0.70482,0.5671 v 0 q 0.32406,0.52657 0.32406,1.66076 v 0 q 0,1.01265 -0.0404,1.41771 v 0 1.37723 q -0.52659,0.28353 -1.70127,0.44557 v 0 q -0.85063,0.20255 -1.78228,0.20255 v 0 q -0.12148,0 -0.12148,-0.0404 v 0 q -0.0811,-0.0811 -0.12149,-0.0811 v 0 q -0.20255,0 -0.20255,0.0811 v 0 q -0.0811,0.0404 -0.20255,0.0404 v 0 h -0.20255 l -0.20255,-0.0811 -0.16191,0.0811 q -0.0404,0.0811 -0.0811,0.14592 -0.0404,0.0566 -0.0811,0.0566 v 0 h -0.48606 q -0.56709,0 -0.81013,0.16191 v 0 q -0.0811,0.0404 -0.17835,0.16213 -0.10527,0.12149 -0.18633,0.20255 v 0 q 0,2.91645 -0.0404,3.92911 v 0 q -0.12149,1.78227 -0.40508,2.34937 v 0 l -1.90378,0.0404 q -0.32406,0.0811 -0.72912,0.0811 v 0 h -0.40508 q -0.36455,0 -0.40506,-0.0811 v 0 q -0.12148,-0.0404 -0.28355,-0.0404 v 0 q -0.20255,0 -0.28355,0.12149 v 0 h -3.03797 -0.24304 -0.60759 -0.72912 -0.81013 q -0.24302,0.0404 -0.68861,0.0404 v 0 z m 24.14182,0.36457 q -0.72912,0 -0.93165,-1.45824 v 0 q -0.12148,-0.60761 -0.12148,-1.09369 v 0 q 0,-0.64809 -0.0404,-0.81011 v 0 q -0.0404,-1.17469 -0.20255,-3.72658 v 0 l -0.12148,-1.53926 q -0.24304,-3.56456 -0.24304,-5.26581 v 0 -9.84307 q 0,-0.32404 0.72911,-0.48608 v 0 q 0.40506,-0.12149 1.13418,-0.12149 v 0 q 0.48608,0 1.05315,0.0566 0.5671,0.0649 0.85065,0.0649 v 0 q 0.60759,0.0811 1.9038,0.0811 v 0 l 0.16213,-0.12148 h 1.78227 q 0.12149,0.12148 0.28355,0.12148 v 0 h 0.16191 q 0.0404,-0.0404 0.20255,-0.0404 v 0 q 0.0811,-0.0404 0.24304,-0.0404 v 0 q 0.0404,-0.0404 0.0811,-0.0404 0.0404,0 0.0404,0 v 0 q 0.12148,0 0.28355,0.0566 0.16213,0.0649 0.24304,0.0649 v 0 h 2.99746 l 0.12149,6.96711 q 0,0.0404 -0.0566,0.25923 -0.0648,0.22684 -0.10527,0.59139 v 0 q -0.12149,1.45824 -0.12149,2.30886 v 0 7.89876 l -0.12148,1.53923 q -0.12149,1.01267 -0.0811,1.66076 v 0 q 0,0.85065 -0.0566,1.35292 -0.0648,0.51038 -0.26734,0.79392 v 0 q -0.24304,0.28355 -0.76962,0.28355 v 0 l -0.0404,-0.0404 -0.12148,-0.0404 q -0.0811,0 -0.0811,0.0404 v 0 h -0.20255 q -0.24304,0.0811 -0.28355,0.12149 v 0 q -0.20255,0 -0.93164,-0.12149 v 0 l -0.56708,-0.0404 q -0.20255,0 -0.24304,0.16191 v 0 h -3.03797 -0.5671 l -1.05316,0.20255 -0.97215,0.12149 z m 33.82282,-0.0811 q -1.78227,-1.74178 -3.03798,-3.52405 v 0 q -0.89113,-1.17469 -2.75442,-4.17218 v 0 l -0.68861,-1.09366 q -0.0404,-0.0404 -0.0648,-0.0648 -0.0156,-0.0155 -0.0156,-0.0155 v 0 h -0.20255 l -0.16213,0.0811 q -0.0404,0.52659 -0.0404,2.83545 v 0 q 0,1.49875 -0.16213,3.52406 v 0 l -0.0404,1.21519 q -0.16213,0.44557 -0.20255,0.44557 v 0 h -0.28353 -0.12149 q -4.4557,0.32406 -6.48101,0.32406 v 0 h -0.60761 -0.76962 q -0.44557,0 -0.6481,-0.0404 v 0 h -0.28355 l -1.25568,-0.40508 -0.0811,-0.28355 q -0.0811,0 -0.10527,-0.16191 -0.0156,-0.16191 -0.0156,-0.24304 v 0 q -0.12148,-1.70125 -0.20255,-2.47088 v 0 q -0.16191,-2.18735 -0.20255,-3.19999 v 0 q -0.0811,-0.97216 -0.0811,-1.25571 v 0 l -0.20256,-2.22786 -0.0404,-1.21519 q -0.0404,-0.36455 -0.0404,-1.01265 v 0 -0.36457 q 0.0811,-0.20255 0.0811,-0.64809 v 0 -0.68861 q 0.0404,-0.16191 0.0404,-0.36455 v 0 l -0.0418,-0.32404 v -0.40508 q 0,-0.28352 -0.0811,-0.44556 v 0 -0.24304 l 0.0404,-1.01265 q 0.0404,-0.28355 0.0404,-0.85064 v 0 q 0.0811,-1.2152 0.0811,-2.30886 v 0 -0.40506 q -0.0404,-0.12149 -0.0404,-0.52659 v 0 -0.5671 -0.40506 q -0.12149,-0.12148 -0.12149,-0.24303 v 0 q 0,-0.5671 1.01267,-0.81012 v 0 q 0.52656,-0.16191 1.49872,-0.16191 v 0 q 9.4785,0 14.17724,0.6481 v 0 q 4.61772,0.6481 6.48101,2.22784 v 0 q 0.81014,0.76963 1.15849,1.79848 0.34025,1.03697 0.34025,2.45469 v 0 q 0,2.26837 -1.29619,3.8076 v 0 q -0.85065,0.85063 -1.98482,1.41773 v 0 q 0.24304,0.60761 1.41772,2.43039 v 0 q 0.24304,0.28355 0.46178,0.60758 0.22683,0.32406 0.55089,0.68861 v 0 q 0.7696,1.05318 1.78227,2.30886 v 0 q 0.0404,0.16191 0.32406,0.68863 v 0 q 0.20255,0.0811 0.22682,0.17834 0.0155,0.10528 -0.0648,0.26734 v 0 q -0.32406,0.48608 -1.9038,1.41772 v 0 q -0.20255,0.20255 -0.48608,0.40506 v 0 q -0.81011,0.6481 -2.22784,1.3367 v 0 q -1.29621,0.68863 -2.22786,0.97216 v 0 q -0.36455,0.20255 -0.44557,0.0811 z m -7.37217,-14.25826 q 0.52659,0 1.41772,-0.20255 v 0 q 0.85065,-0.24304 1.2152,-0.48608 v 0 q 0.60761,-0.36455 1.05318,-0.81011 v 0 q 0.44556,-0.52659 0.44556,-1.2152 v 0 q 0,-1.13417 -0.6886,-1.82278 v 0 q -0.60761,-0.48608 -1.49875,-0.48608 v 0 h -1.74176 q 0,0.52657 -0.0811,1.66076 v 0 l -0.0404,0.85063 q -0.0811,0.81014 -0.0811,2.51139 z m 24.22284,14.74434 -0.48608,-0.12149 -0.93165,-0.16191 q -1.33672,-0.20255 -2.22786,-0.48607 v 0 q -0.48608,-0.0404 -0.85062,-0.28355 v 0 q -0.32406,-0.12149 -0.40508,-0.32406 v 0 l -0.89114,-5.02278 v -0.20255 q 0,-0.28355 0.0566,-0.42938 0.0648,-0.1377 0.26735,-0.17834 v 0 q 2.63292,1.01267 5.18482,1.01267 v 0 q 0.81012,0 1.25569,0.0404 v 0 q 1.53925,0 2.22786,-0.40508 v 0 q 0.36454,-0.24304 0.36454,-0.68861 v 0 q 0,-0.6481 -0.40505,-1.07747 -0.40506,-0.42125 -1.17469,-0.74531 v 0 l -1.29619,-0.48608 q -0.5671,-0.12148 -1.29622,-0.44557 v 0 q 0,-0.0404 -0.0404,-0.0648 -0.0404,-0.0155 -0.0811,-0.0973 v 0 q -0.16213,-0.0404 -0.68861,-0.40505 v 0 l -0.24304,-0.12149 q 0.0811,0 0.0811,-0.0404 0,-0.0404 -0.12149,-0.0811 v 0 q -0.12149,-0.0811 -0.46989,-0.26735 -0.34025,-0.17812 -0.58329,-0.42125 v 0 q -0.36454,-0.20255 -0.36454,-0.48608 v 0 -0.20255 q -1.01267,0 -1.74179,-2.10633 v 0 q -0.60758,-2.14684 -0.60758,-3.038 v 0 q 0,-3.76709 3.2405,-5.79241 v 0 q 2.63292,-1.66076 7.25064,-2.22783 v 0 q 2.99747,-0.32406 7.45319,-0.32406 v 0 q 0.56707,0.20255 0.89113,0.24304 v 0 q 0.72912,0.0404 0.97216,0.48607 v 0 q 0.12149,0.20255 0.20255,0.81012 v 0 q 0.12149,0.64812 0.24304,3.76709 v 0 q 0.0811,0.0811 0.0811,0.24304 v 0 q 0,0.32406 -0.89113,0.52659 v 0 q -0.97216,0.12149 -1.25568,0.12149 v 0 l -0.93165,0.12148 q -1.57976,0.20255 -2.06584,0.28355 v 0 q -1.66077,0.28355 -2.30886,1.01267 v 0 q -0.40506,0.48608 -0.40506,1.01264 v 0 q 0,0.28355 0.0811,0.44557 0.0811,0.16191 0.40508,0.36457 v 0 q 0.36455,0.20255 2.10634,1.01267 v 0 q 1.86329,0.81011 3.72658,2.10633 v 0 q 1.57974,1.09366 2.26835,2.91644 v 0 q 0.36457,0.76963 0.36457,2.02533 v 0 q 0,1.13418 -0.28355,1.94429 v 0 q -1.05318,2.67343 -3.96962,4.37471 v 0 q -1.37722,0.81011 -2.87596,1.28 -1.49875,0.46176 -2.87596,0.46176 v 0 z m 33.69321,-0.81014 h -1.98483 -1.86329 -2.10633 -2.67343 q -0.36455,-0.5671 -0.48608,-2.06582 v 0 q -0.1619,-1.33673 -0.1619,-3.88862 v 0 l 0.0404,-4.4557 q 0.0404,-1.62026 0.0404,-5.14431 v 0 l -0.12149,-0.12149 h -4.01013 q -0.89114,0 -1.17469,-2.02531 v 0 q -0.1619,-1.09369 -0.1619,-3.20002 v 0 -0.52658 q 0.0811,-0.28353 0.0811,-0.89114 v 0 -0.81011 l 0.0404,-0.32406 0.16213,-0.16191 0.72912,0.0404 h 0.81012 q 1.78229,0 2.71393,-0.0404 v 0 h 2.63292 0.7291 1.37723 1.74177 1.74178 q 0.52659,0.0404 1.49872,0.0404 v 0 h 1.01267 q 0.1619,-0.0811 0.52659,-0.0811 v 0 q 0.28354,-0.0811 0.52658,-0.0811 v 0 q 0.76961,0 1.17469,0.0811 v 0 q 0.81011,0.0811 1.21519,0.0811 v 0 l 1.05316,-0.0404 h 1.57978 q 1.2152,0 1.6607,0.0404 v 0 l 0.5671,0.0404 q 0.04,0.0404 0.1215,0.0973 0.081,0.0648 0.081,0.10527 v 0 6.88609 q 0,0.24304 -0.2592,0.52659 -0.2674,0.28353 -0.5104,0.36455 v 0 q -1.3369,-0.28353 -3.48378,-0.28353 v 0 h -1.53923 q -0.60761,0 -0.81014,1.53923 v 0 q -0.0811,0.44557 -0.0811,1.29622 v 0 1.21517 q 0,0.81014 0.0404,1.2152 v 0 1.13417 q 0,1.66076 -0.16191,3.07849 v 0 q -0.0811,1.05317 -0.0811,1.53925 v 0 q -0.0811,0.48608 -0.0811,1.33671 v 0 q 0,1.21519 -0.0811,2.02533 v 0 q -0.0404,1.25568 -0.93165,1.3367 v 0 q -0.97215,0.12149 -1.13417,0.12149 z m 15.51391,-9.84305 q -0.8911,0 -1.2152,-1.05317 v 0 q -0.324,-0.68861 -0.324,-2.71392 v 0 q 0,-0.81014 0.04,-1.21519 v 0 -1.05318 q 0,-1.53923 1.0127,-2.22784 v 0 q 0.4455,-0.40506 1.0936,-0.6481 v 0 q 2.0253,-0.89115 2.6329,-1.2557 v 0 q 0.6886,-0.40506 1.4178,-1.01267 v 0 q 0.4455,-0.36455 0.6886,-0.68861 v 0 q 0.4051,-0.32403 0.4051,-0.72909 v 0 q 0,-0.76963 -0.6886,-0.97216 v 0 q -0.9722,-0.32406 -3.2405,-0.32406 v 0 q -2.3899,0 -4.5772,0.5671 v 0 l -0.081,0.0404 q -0.3645,0 -0.3645,-0.6886 v 0 q 0,-0.52659 0.04,-0.81014 v 0 q 0.04,-0.20255 0.081,-0.40506 0.041,-0.20255 0.041,-0.40506 v 0 q 0,-1.66076 0.1214,-2.55192 v 0 q 0.1622,-1.25568 0.2026,-1.41772 v 0 q 0.1215,-0.40506 0.3241,-0.52657 0.2025,-0.12148 0.5671,-0.12148 v 0 q 3.0786,-0.16191 4.5368,-0.16191 v 0 q 4.0507,0 6.8051,0.60759 v 0 q 3.2,0.64809 4.9013,2.34937 v 0 q 1.9848,1.78227 1.9848,4.94177 v 0 q 0,0.97216 -0.4456,1.7823 -0.4455,0.81011 -1.2557,1.62025 v 0 q -0.8101,0.76961 -2.7544,1.9038 v 0 q -0.243,0.20255 -0.8101,0.52657 v 0 q -2.4709,1.33672 -3.4431,2.22786 v 0 0.60759 q 0.04,0.40508 0.04,1.17468 v 0 q 0.041,0.64812 0.041,1.9038 v 0 q 0,0.72912 -0.4456,0.72912 v 0 h -0.6076 l -1.1342,-0.0404 q -0.405,-0.0811 -1.0531,-0.0811 v 0 q -0.4051,0 -0.4861,0.12149 v 0 z m -0.2835,12.6785 q -1.0127,0 -1.1342,-0.60759 v 0 q -0.081,-0.81014 -0.1619,-4.09115 v 0 q 0,-0.36457 -0.04,-1.80659 -0.04,-1.43392 -0.2026,-2.16303 v 0 l 0.2431,-0.28355 1.2961,-0.28355 h 2.3899 q 0.4051,0 0.7697,-0.12149 v 0 h 0.6481 0.9721 l 0.2836,0.12149 q 0.243,-0.12149 0.3645,-0.12149 v 0 q 0.1215,0.0404 0.2673,0.0155 0.1377,-0.0155 0.1784,-0.0155 v 0 q 0.1215,0.12149 0.2835,0.12149 v 0 q 0.2026,0 0.2431,0.0404 v 0 l 0.9721,0.12149 0.2836,0.0811 q 0.1215,0 0.1215,-0.0404 v 0 h 0.2025 q 0.7696,0.28355 0.9317,0.40508 v 0 q 0.2025,0.20255 0.2025,0.7696 v 0 q 0.2836,0.28355 0.3646,1.90381 v 0 q 0.04,0.85064 0.04,2.26837 v 0 q 0.1215,1.09366 0.1215,1.45821 v 0 q 0,0.20255 -0.04,0.28355 v 0 0.20255 0.24304 q -0.081,0.12148 -0.081,0.32406 v 0 0.24304 q 0,0.20255 0.081,0.32403 v 0 0.0404 0.0811 q 0,0.28355 -0.2431,0.38887 -0.243,0.0973 -0.7696,0.0973 v 0 q -0.5671,0 -0.8101,-0.0811 v 0 h -0.8102 -0.2025 -0.4861 q -0.1215,0.0811 -0.4456,0.0811 v 0 h -0.4455 q -1.2557,0 -1.7823,-0.0811 v 0 l -1.4582,-0.0404 -1.0127,0.0404 q -0.243,0.0811 -1.1342,0.0811 z"
     opacity="1"
     fill="#000000"
     class="slogan-text-1"
     data-fill-palette-color="secondary"
     id="text-1"
     style="display:inline;stroke-width:0.810129"
     inkscape:label="who sang" />
  <path
     data-name="Compound Path"
     d="m 486.56939,716.4179 a 5.6448899,5.6448899 0 0 0 4.51593,-5.64489 V 658.55778 A 28.224449,28.224449 0 0 0 462.86087,630.33333 H 279.40194 a 28.224449,28.224449 0 0 0 -28.22444,28.22445 v 183.45893 a 28.224449,28.224449 0 0 0 28.22444,28.22445 h 183.45893 a 28.224449,28.224449 0 0 0 28.22445,-28.22445 v -52.21524 a 5.6448899,5.6448899 0 0 0 -4.51593,-5.64489 34.998316,34.998316 0 0 1 0,-67.73868 z m -37.82075,33.86934 a 46.005853,46.005853 0 0 0 31.04689,43.7479 v 47.98157 a 16.934669,16.934669 0 0 1 -16.93466,16.93466 H 279.40194 A 16.934669,16.934669 0 0 1 262.46728,842.01671 V 658.55778 a 16.934669,16.934669 0 0 1 16.93466,-16.93467 h 183.45893 a 16.934669,16.934669 0 0 1 16.93466,16.93467 v 47.98157 a 46.005853,46.005853 0 0 0 -31.04689,43.74789 z"
     fill="#000000"
     data-fill-palette-color="accent"
     id="path6"
     style="display:inline;stroke-width:2.82245"
     inkscape:label="square" />
  <path
     data-name="Compound Path"
     d="m 428.83138,693.36644 a 5.6448899,5.6448899 0 0 0 -4.79816,-0.84673 l -80.43968,21.45058 a 5.6448899,5.6448899 0 0 0 -4.23366,5.36264 v 67.45644 a 29.353427,29.353427 0 0 0 -15.24121,-4.23367 c -14.67671,0 -26.53098,10.44305 -26.53098,22.8618 0,12.41876 11.85427,22.8618 26.53098,22.8618 14.67671,0 26.53098,-10.44304 26.53098,-22.8618 v -52.77971 l 69.1499,-18.62814 v 34.71607 a 29.353427,29.353427 0 0 0 -15.2412,-4.23367 c -14.67671,0 -26.53098,10.44305 -26.53098,22.8618 0,12.41876 11.85427,22.86181 26.53098,22.86181 14.67671,0 26.53098,-10.44305 26.53098,-22.86181 v -89.4715 a 5.6448899,5.6448899 0 0 0 -2.25795,-4.51591 z M 324.11867,817.55402 c -8.46734,0 -15.2412,-5.36265 -15.2412,-11.57203 0,-6.20938 6.77386,-11.57202 15.2412,-11.57202 8.46733,0 15.24121,5.36264 15.24121,11.57202 0,6.20938 -6.77388,11.28978 -15.24121,11.28978 z m 26.53098,-76.48826 v -16.93467 l 69.1499,-18.91038 v 16.93467 z m 53.62645,58.42461 c -8.46733,0 -15.2412,-5.36265 -15.2412,-11.57202 0,-6.20938 7.05612,-12.13652 15.52345,-12.13652 8.46734,0 15.2412,5.36264 15.2412,11.57202 0,6.20938 -6.77386,11.85428 -15.2412,11.85428 z"
     fill="#000000"
     data-fill-palette-color="accent"
     id="path11"
     style="display:inline;stroke-width:2.82245;fill:#00ffff;fill-opacity:1"
     inkscape:label="note" />
  <path
     data-name="Compound Path"
     d="m 414.42843,678.26726 a 5.6448899,5.6448899 0 0 0 -4.79816,-0.84673 l -80.43968,21.45058 a 5.6448899,5.6448899 0 0 0 -4.23366,5.36264 v 67.45644 a 29.353427,29.353427 0 0 0 -15.24121,-4.23367 c -14.67671,0 -26.53098,10.44305 -26.53098,22.8618 0,12.41876 11.85427,22.8618 26.53098,22.8618 14.67671,0 26.53098,-10.44304 26.53098,-22.8618 v -52.77971 l 69.1499,-18.62814 v 34.71607 a 29.353427,29.353427 0 0 0 -15.2412,-4.23367 c -14.67671,0 -26.53098,10.44305 -26.53098,22.8618 0,12.41876 11.85427,22.86181 26.53098,22.86181 14.67671,0 26.53098,-10.44305 26.53098,-22.86181 v -89.4715 a 5.6448899,5.6448899 0 0 0 -2.25795,-4.51591 z M 309.71572,802.45484 c -8.46734,0 -15.2412,-5.36265 -15.2412,-11.57203 0,-6.20938 6.77386,-11.57202 15.2412,-11.57202 8.46733,0 15.24121,5.36264 15.24121,11.57202 0,6.20938 -6.77388,11.28978 -15.24121,11.28978 z m 26.53098,-76.48826 v -16.93467 l 69.1499,-18.91038 v 16.93467 z m 53.62645,58.42461 c -8.46733,0 -15.2412,-5.36265 -15.2412,-11.57202 0,-6.20938 7.05612,-12.13652 15.52345,-12.13652 8.46734,0 15.2412,5.36264 15.2412,11.57202 0,6.20938 -6.77386,11.85428 -15.2412,11.85428 z"
     fill="#000000"
     data-fill-palette-color="accent"
     id="path12"
     style="display:inline;stroke-width:2.82245;fill:#ff00ff"
     inkscape:label="note" />
  <path
     data-name="Compound Path"
     d="m 422.78215,684.80652 a 5.6448899,5.6448899 0 0 0 -4.79816,-0.84673 l -80.43968,21.45058 a 5.6448899,5.6448899 0 0 0 -4.23366,5.36264 v 67.45644 a 29.353427,29.353427 0 0 0 -15.24121,-4.23367 c -14.67671,0 -26.53098,10.44305 -26.53098,22.8618 0,12.41876 11.85427,22.8618 26.53098,22.8618 14.67671,0 26.53098,-10.44304 26.53098,-22.8618 v -52.77971 l 69.1499,-18.62814 v 34.71607 a 29.353427,29.353427 0 0 0 -15.2412,-4.23367 c -14.67671,0 -26.53098,10.44305 -26.53098,22.8618 0,12.41876 11.85427,22.86181 26.53098,22.86181 14.67671,0 26.53098,-10.44305 26.53098,-22.86181 v -89.4715 a 5.6448899,5.6448899 0 0 0 -2.25795,-4.51591 z M 318.06944,808.9941 c -8.46734,0 -15.2412,-5.36265 -15.2412,-11.57203 0,-6.20938 6.77386,-11.57202 15.2412,-11.57202 8.46733,0 15.24121,5.36264 15.24121,11.57202 0,6.20938 -6.77388,11.28978 -15.24121,11.28978 z m 26.53098,-76.48826 v -16.93467 l 69.1499,-18.91038 v 16.93467 z m 53.62645,58.42461 c -8.46733,0 -15.2412,-5.36265 -15.2412,-11.57202 0,-6.20938 7.05612,-12.13652 15.52345,-12.13652 8.46734,0 15.2412,5.36264 15.2412,11.57202 0,6.20938 -6.77386,11.85428 -15.2412,11.85428 z"
     fill="#000000"
     data-fill-palette-color="accent"
     id="path5"
     style="display:inline;stroke-width:2.82245"
     inkscape:label="note" />
</svg>
