<?xml version="1.0" encoding="UTF-8" standalone="no"?>
<svg
   version="1.1"
   width="1500"
   height="1500"
   viewBox="0 0 1500 1500"
   id="svg11"
   sodipodi:docname="logo.svg"
   inkscape:version="1.3.1 (91b66b0783, 2023-11-16, custom)"
   xml:space="preserve"
   xmlns:inkscape="http://www.inkscape.org/namespaces/inkscape"
   xmlns:sodipodi="http://sodipodi.sourceforge.net/DTD/sodipodi-0.dtd"
   xmlns="http://www.w3.org/2000/svg"
   xmlns:svg="http://www.w3.org/2000/svg"><defs
     id="defs11"><defs
       id="defs9" /></defs><sodipodi:namedview
     id="namedview11"
     pagecolor="#ffffff"
     bordercolor="#000000"
     borderopacity="0.25"
     inkscape:showpageshadow="2"
     inkscape:pageopacity="0.0"
     inkscape:pagecheckerboard="0"
     inkscape:deskcolor="#d1d1d1"
     showgrid="false"
     inkscape:zoom="1.7432539"
     inkscape:cx="874.51403"
     inkscape:cy="659.68589"
     inkscape:window-width="3830"
     inkscape:window-height="2087"
     inkscape:window-x="5"
     inkscape:window-y="36"
     inkscape:window-maximized="1"
     inkscape:current-layer="g17" /><path
     data-name="Compound Path"
     d="m 480.41376,404.06774 c 0,-14.31289 -11.39946,-25.91579 -25.46139,-25.91579 H 289.4533 c -14.06194,0 -25.46139,11.6029 -25.46139,25.91579 v 168.45267 c 0,14.31289 11.39945,25.91579 25.46139,25.91579 h 165.49907 c 14.06193,0 25.46139,-11.6029 25.46139,-25.91579 0.96733,1.13486 0,-168.45267 0,-168.45267 z M 470.2292,572.52041 c 0,8.58773 -6.83968,15.54947 -15.27683,15.54947 H 289.4533 c -8.43716,0 -15.27683,-6.96174 -15.27683,-15.54947 V 404.06774 c 0,-8.58774 6.83967,-15.54948 15.27683,-15.54948 h 165.49907 c 8.43716,0 15.27683,6.96174 15.27683,15.54948 z"
     fill="#000000"
     data-fill-palette-color="accent"
     id="path6-3"
     style="display:inline;stroke:#000000;stroke-width:10;stroke-dasharray:none"
     inkscape:label="square"
     sodipodi:nodetypes="csssssscccsssssscc" /><path
     data-name="Compound Path"
     d="m 437.53465,430.23314 a 5.6448899,5.6448899 0 0 0 -4.79816,-0.84673 l -80.43968,21.45058 a 5.6448899,5.6448899 0 0 0 -4.23366,5.36264 v 67.45644 a 29.353427,29.353427 0 0 0 -15.24121,-4.23367 c -14.67671,0 -26.53098,10.44305 -26.53098,22.8618 0,12.41876 11.85427,22.8618 26.53098,22.8618 14.67671,0 26.53098,-10.44304 26.53098,-22.8618 v -52.77971 l 69.1499,-18.62814 v 34.71607 a 29.353427,29.353427 0 0 0 -15.2412,-4.23367 c -14.67671,0 -26.53098,10.44305 -26.53098,22.8618 0,12.41876 11.85427,22.86181 26.53098,22.86181 14.67671,0 26.53098,-10.44305 26.53098,-22.86181 v -89.4715 a 5.6448899,5.6448899 0 0 0 -2.25795,-4.51591 z M 332.82194,554.42072 c -8.46734,0 -15.2412,-5.36265 -15.2412,-11.57203 0,-6.20938 6.77386,-11.57202 15.2412,-11.57202 8.46733,0 15.24121,5.36264 15.24121,11.57202 0,6.20938 -6.77388,11.28978 -15.24121,11.28978 z m 26.53098,-76.48826 v -16.93467 l 69.1499,-18.91038 v 16.93467 z m 53.62645,58.42461 c -8.46733,0 -15.2412,-5.36265 -15.2412,-11.57202 0,-6.20938 7.05612,-12.13652 15.52345,-12.13652 8.46734,0 15.2412,5.36264 15.2412,11.57202 0,6.20938 -6.77386,11.85428 -15.2412,11.85428 z"
     fill="#000000"
     data-fill-palette-color="accent"
     id="path11-6"
     style="display:inline;fill:#00feff;fill-opacity:1;stroke:#00ffff;stroke-width:10;stroke-dasharray:none"
     inkscape:label="note" /><path
     id="path12-7"
     style="display:inline;fill:#ff00ff;stroke:#ff00ff;stroke-width:10;stroke-dasharray:none"
     inkscape:label="note"
     d="m 419.3146,412.10498 c -2.28321,0.30725 -4.47349,1.11104 -6.71375,1.64143 -25.12604,6.7049 -50.2571,13.39344 -75.38,20.10857 -2.57575,0.72174 -4.68671,2.8722 -5.31416,5.4778 -0.45414,1.98415 -0.16432,4.04836 -0.24639,6.0683 0,19.95143 0,39.90286 0,59.85429 -8.22131,-3.8681 -18.13627,-3.89639 -26.39193,-0.1014 -6.77574,3.06056 -12.50668,8.88478 -14.55477,16.13232 -1.79517,6.12615 -0.59409,12.96737 2.98342,18.22717 4.71585,7.12962 12.93027,11.51338 21.34796,12.35345 9.25127,1.0095 19.06088,-2.16417 25.4667,-9.02901 4.1158,-4.32696 6.62217,-10.24517 6.43768,-16.25284 0,-16.88203 0,-33.76406 0,-50.64609 21.7168,-5.85026 43.4336,-11.70053 65.15039,-17.55079 0,9.60092 0,19.20183 0,28.80274 -8.28232,-3.89661 -18.28022,-3.8928 -26.57319,-0.0192 -6.68975,3.08173 -12.34374,8.86282 -14.36887,16.04396 -1.8147,6.1596 -0.58325,13.04388 3.03418,18.31858 4.74567,7.10941 12.97197,11.46391 21.39195,12.27934 9.22407,0.97849 18.98673,-2.20326 25.37283,-9.04238 4.08613,-4.3056 6.59431,-10.17682 6.43217,-16.15056 -0.008,-29.79619 0.0156,-59.59327 -0.0117,-89.3889 -0.12893,-3.06284 -2.2939,-5.94591 -5.26192,-6.79495 -0.89848,-0.29509 -1.85861,-0.37615 -2.80062,-0.33178 z m -7.21485,30.29102 c -21.71679,5.9388 -43.43359,11.87761 -65.15039,17.8164 0,-4.26237 0,-8.52474 0,-12.78711 21.7168,-5.9388 43.4336,-11.87759 65.15039,-17.8164 0,4.26237 0,8.52474 0,12.78711 z m -12.51562,57.16797 c 4.23253,0.18048 8.67649,1.89345 11.17434,5.45877 1.57996,2.16269 1.77897,5.20362 0.43454,7.53017 -2.11991,3.82293 -6.46326,5.92513 -10.69233,6.34102 -0.84014,0.13321 -1.76076,-0.0138 -2.5559,0.17015 -0.42711,0.375 -1.12736,0.0261 -1.66617,0.0427 -3.96187,-0.52575 -8.03907,-2.47359 -10.05729,-6.06888 -1.30128,-2.23419 -1.10093,-5.12343 0.31157,-7.25707 2.73612,-4.29114 8.08985,-6.43192 13.05124,-6.21684 z m -80.43945,18.6289 c 4.26513,0.17784 8.74778,1.92191 11.23026,5.54168 1.56782,2.20228 1.72753,5.31293 0.24066,7.59833 -2.15822,3.4313 -6.22857,5.14341 -10.12522,5.59241 -1.35196,0.15174 -2.71472,0.1063 -4.07227,0.14844 -0.16822,0.31269 -0.94854,-0.0904 -1.33282,-0.0704 -3.75565,-0.736 -7.5651,-2.81428 -9.26254,-6.38947 -1.22994,-2.49022 -0.5939,-5.56979 1.18886,-7.62458 2.91475,-3.49226 7.69897,-4.97197 12.13307,-4.79638 z" /><path
     data-name="Compound Path"
     d="m 431.48542,421.67322 a 5.6448899,5.6448899 0 0 0 -4.79816,-0.84673 l -80.43968,21.45058 a 5.6448899,5.6448899 0 0 0 -4.23366,5.36264 v 67.45644 a 29.353427,29.353427 0 0 0 -15.24121,-4.23367 c -14.67671,0 -26.53098,10.44305 -26.53098,22.8618 0,12.41876 11.85427,22.8618 26.53098,22.8618 14.67671,0 26.53098,-10.44304 26.53098,-22.8618 v -52.77971 l 69.1499,-18.62814 v 34.71607 a 29.353427,29.353427 0 0 0 -15.2412,-4.23367 c -14.67671,0 -26.53098,10.44305 -26.53098,22.8618 0,12.41876 11.85427,22.86181 26.53098,22.86181 14.67671,0 26.53098,-10.44305 26.53098,-22.86181 v -89.4715 a 5.6448899,5.6448899 0 0 0 -2.25795,-4.51591 z M 326.77271,545.8608 c -8.46734,0 -15.2412,-5.36265 -15.2412,-11.57203 0,-6.20938 6.77386,-11.57202 15.2412,-11.57202 8.46733,0 15.24121,5.36264 15.24121,11.57202 0,6.20938 -6.77388,11.28978 -15.24121,11.28978 z m 26.53098,-76.48826 v -16.93467 l 69.1499,-18.91038 v 16.93467 z m 53.62645,58.42461 c -8.46733,0 -15.2412,-5.36265 -15.2412,-11.57202 0,-6.20938 7.05612,-12.13652 15.52345,-12.13652 8.46734,0 15.2412,5.36264 15.2412,11.57202 0,6.20938 -6.77386,11.85428 -15.2412,11.85428 z"
     fill="#000000"
     data-fill-palette-color="accent"
     id="path5-5"
     style="display:inline;stroke:#000000;stroke-width:10;stroke-dasharray:none"
     inkscape:label="note"
     inkscape:export-filename="../src/assets/img/logo.png"
     inkscape:export-xdpi="30"
     inkscape:export-ydpi="30" /><rect
     style="fill:#e7e5df;fill-opacity:0.992162"
     id="rect1"
     width="387.6604"
     height="329.96017"
     x="166.83411"
     y="665.41077"
     ry="9.8290386" /><rect
     style="fill:none;fill-opacity:1;stroke:#000000;stroke-width:20;stroke-dasharray:none"
     id="rect10862"
     width="217.34731"
     height="222.03874"
     x="263.88391"
     y="-598.52722"
     ry="9.8290386"
     transform="scale(1,-1)"
     inkscape:export-filename="./rect10862.svg"
     inkscape:export-xdpi="16.006147"
     inkscape:export-ydpi="16.006147" /><path
     data-name="Compound Path"
     d="m 463.9081,749.64011 c 0,-14.31289 -11.3994,-25.91579 -25.4613,-25.91579 H 272.94769 c -14.06194,0 -25.46139,11.6029 -25.46139,25.91579 v 168.45267 c 0,14.31287 11.39945,25.91577 25.46139,25.91577 H 438.4468 c 14.0619,0 25.4613,-11.6029 25.4613,-25.91577 0.9674,1.13486 0,-168.45267 0,-168.45267 z m -10.1845,168.45267 c 0,8.58773 -6.8397,15.54947 -15.2768,15.54947 H 272.94769 c -8.43716,0 -15.27683,-6.96174 -15.27683,-15.54947 V 749.64011 c 0,-8.58774 6.83967,-15.54948 15.27683,-15.54948 H 438.4468 c 8.4371,0 15.2768,6.96174 15.2768,15.54948 z"
     fill="#000000"
     data-fill-palette-color="accent"
     id="path6-3-8"
     style="display:inline;stroke:#000000;stroke-width:10;stroke-dasharray:none"
     inkscape:label="square"
     sodipodi:nodetypes="csssssscccsssssscc" /><path
     data-name="Compound Path"
     d="m 421.029,775.80551 a 5.6448899,5.6448899 0 0 0 -4.7981,-0.84673 l -80.4397,21.45058 a 5.6448899,5.6448899 0 0 0 -4.23366,5.36264 v 67.45644 a 29.353427,29.353427 0 0 0 -15.24121,-4.23367 c -14.67671,0 -26.53098,10.44305 -26.53098,22.8618 0,12.41876 11.85427,22.8618 26.53098,22.8618 14.67671,0 26.53098,-10.44304 26.53098,-22.8618 v -52.77971 l 69.14989,-18.62814 v 34.71607 a 29.353427,29.353427 0 0 0 -15.24119,-4.23367 c -14.67671,0 -26.53098,10.44305 -26.53098,22.8618 0,12.41876 11.85427,22.86181 26.53098,22.86181 14.67669,0 26.53099,-10.44305 26.53099,-22.86181 v -89.4715 a 5.6448899,5.6448899 0 0 0 -2.258,-4.51591 z M 316.31633,899.99309 c -8.46734,0 -15.2412,-5.36265 -15.2412,-11.57203 0,-6.20938 6.77386,-11.57202 15.2412,-11.57202 8.46733,0 15.24121,5.36264 15.24121,11.57202 0,6.20938 -6.77388,11.28978 -15.24121,11.28978 z m 26.53098,-76.48826 v -16.93467 l 69.14989,-18.91038 v 16.93467 z m 53.62645,58.42461 c -8.46733,0 -15.2412,-5.36265 -15.2412,-11.57202 0,-6.20938 7.05612,-12.13652 15.52345,-12.13652 8.46734,0 15.24119,5.36264 15.24119,11.57202 0,6.20938 -6.77385,11.85428 -15.24119,11.85428 z"
     fill="#000000"
     data-fill-palette-color="accent"
     id="path11-6-6"
     style="display:inline;fill:#00feff;fill-opacity:1;stroke:#00ffff;stroke-width:10;stroke-dasharray:none"
     inkscape:label="note" /><path
     id="path12-7-8"
     style="display:inline;fill:#ff00ff;stroke:#ff00ff;stroke-width:10;stroke-dasharray:none"
     inkscape:label="note"
     d="m 402.80899,757.67735 c -2.28321,0.30725 -4.47349,1.11104 -6.71375,1.64143 -25.12604,6.7049 -50.2571,13.39344 -75.38,20.10857 -2.57575,0.72174 -4.68671,2.8722 -5.31416,5.4778 -0.45414,1.98415 -0.16432,4.04836 -0.24639,6.0683 0,19.95143 0,39.90286 0,59.85429 -8.22131,-3.8681 -18.13627,-3.89639 -26.39193,-0.1014 -6.77574,3.06056 -12.50668,8.88478 -14.55477,16.13232 -1.79517,6.12615 -0.59409,12.96737 2.98342,18.22717 4.71585,7.12962 12.93027,11.51338 21.34796,12.35345 9.25127,1.0095 19.06088,-2.16417 25.4667,-9.02901 4.1158,-4.32696 6.62217,-10.24517 6.43768,-16.25284 0,-16.88203 0,-33.76406 0,-50.64609 21.7168,-5.85026 43.4336,-11.70053 65.15039,-17.55079 0,9.60092 0,19.20183 0,28.80274 -8.28232,-3.89661 -18.28022,-3.8928 -26.57319,-0.0192 -6.68975,3.08173 -12.34374,8.86282 -14.36887,16.04396 -1.8147,6.1596 -0.58325,13.04388 3.03418,18.31858 4.74567,7.10941 12.97197,11.46391 21.39195,12.27934 9.22407,0.97849 18.98673,-2.20326 25.37283,-9.04238 4.08616,-4.3056 6.59436,-10.17682 6.43216,-16.15056 -0.01,-29.79619 0.016,-59.59327 -0.012,-89.3889 -0.1289,-3.06284 -2.2939,-5.94591 -5.26191,-6.79495 -0.89848,-0.29509 -1.85861,-0.37615 -2.80062,-0.33178 z m -7.21485,30.29102 c -21.71679,5.9388 -43.43359,11.87761 -65.15039,17.8164 0,-4.26237 0,-8.52474 0,-12.78711 21.7168,-5.9388 43.4336,-11.87759 65.15039,-17.8164 0,4.26237 0,8.52474 0,12.78711 z m -12.51562,57.16797 c 4.23253,0.18048 8.67649,1.89345 11.17434,5.45877 1.57996,2.16269 1.77897,5.20362 0.43454,7.53017 -2.11991,3.82293 -6.46326,5.92513 -10.69233,6.34102 -0.84014,0.13321 -1.76076,-0.0138 -2.5559,0.17015 -0.42711,0.375 -1.12736,0.0261 -1.66617,0.0427 -3.96187,-0.52575 -8.03907,-2.47359 -10.05729,-6.06888 -1.30128,-2.23419 -1.10093,-5.12343 0.31157,-7.25707 2.73612,-4.29114 8.08985,-6.43192 13.05124,-6.21684 z m -80.43945,18.6289 c 4.26513,0.17784 8.74778,1.92191 11.23026,5.54168 1.56782,2.20228 1.72753,5.31293 0.24066,7.59833 -2.15822,3.4313 -6.22857,5.14341 -10.12522,5.59241 -1.35196,0.15174 -2.71472,0.1063 -4.07227,0.14844 -0.16822,0.31269 -0.94854,-0.0904 -1.33282,-0.0704 -3.75565,-0.736 -7.5651,-2.81428 -9.26254,-6.38947 -1.22994,-2.49022 -0.5939,-5.56979 1.18886,-7.62458 2.91475,-3.49226 7.69897,-4.97197 12.13307,-4.79638 z" /><path
     data-name="Compound Path"
     d="m 414.9798,767.24559 a 5.6448899,5.6448899 0 0 0 -4.7982,-0.84673 l -80.43963,21.45058 a 5.6448899,5.6448899 0 0 0 -4.23366,5.36264 v 67.45644 a 29.353427,29.353427 0 0 0 -15.24121,-4.23367 c -14.67671,0 -26.53098,10.44305 -26.53098,22.8618 0,12.41876 11.85427,22.8618 26.53098,22.8618 14.67671,0 26.53098,-10.44304 26.53098,-22.8618 v -52.77971 l 69.1499,-18.62814 v 34.71607 a 29.353427,29.353427 0 0 0 -15.2412,-4.23367 c -14.67671,0 -26.53098,10.44305 -26.53098,22.8618 0,12.41876 11.85427,22.86181 26.53098,22.86181 14.67671,0 26.53102,-10.44305 26.53102,-22.86181 v -89.4715 a 5.6448899,5.6448899 0 0 0 -2.258,-4.51591 z M 310.2671,891.43317 c -8.46734,0 -15.2412,-5.36265 -15.2412,-11.57203 0,-6.20938 6.77386,-11.57202 15.2412,-11.57202 8.46733,0 15.24121,5.36264 15.24121,11.57202 0,6.20938 -6.77388,11.28978 -15.24121,11.28978 z m 26.53098,-76.48826 v -16.93467 l 69.1499,-18.91038 v 16.93467 z m 53.62645,58.42461 c -8.46733,0 -15.2412,-5.36265 -15.2412,-11.57202 0,-6.20938 7.05612,-12.13652 15.52345,-12.13652 8.46734,0 15.2412,5.36264 15.2412,11.57202 0,6.20938 -6.77386,11.85428 -15.2412,11.85428 z"
     fill="#000000"
     data-fill-palette-color="accent"
     id="path5-5-8"
     style="display:inline;stroke:#000000;stroke-width:10;stroke-dasharray:none"
     inkscape:label="note"
     inkscape:export-filename="../src/assets/img/logo.png"
     inkscape:export-xdpi="30"
     inkscape:export-ydpi="30" /><rect
     style="display:inline;fill:none;fill-opacity:1;stroke:#000000;stroke-width:20;stroke-dasharray:none"
     id="rect10862-4"
     width="217.34731"
     height="222.03874"
     x="247.3783"
     y="-944.09967"
     ry="9.8290386"
     transform="scale(1,-1)"
     inkscape:export-filename="./rect10862.svg"
     inkscape:export-xdpi="16.006147"
     inkscape:export-ydpi="16.006147" /><rect
     style="display:inline;fill:#5d5f62;fill-opacity:1;stroke-width:1.44899"
     id="rect1-4"
     width="813.9234"
     height="329.96017"
     x="656.9173"
     y="659.28845"
     ry="9.8290386" /><path
     style="color:#000000;fill:#000000;-inkscape-stroke:none"
     d="m 746.89062,701.34766 c -12.82563,0 -24.53515,10.46474 -24.53515,24.53515 v 195.86133 c 0,12.3372 10.97185,24.53516 24.53515,24.53516 h 191.96875 c 12.459,0 24.53711,-11.13671 24.53711,-24.53516 V 725.88281 c 0,-13.25331 -12.25581,-24.53515 -24.53711,-24.53515 z m 6,26.56836 h 179.96875 c 2.42782,0 3.96875,1.53897 3.96875,3.96679 v 183.86133 c 0,2.42782 -1.54093,3.96875 -3.96875,3.96875 H 752.89062 c -2.42781,0 -3.96679,-1.54093 -3.96679,-3.96875 V 731.88281 c 0,-2.42782 1.53898,-3.96679 3.96679,-3.96679 z"
     id="rect2"
     sodipodi:nodetypes="ssssssssssssssssss" /><g
     id="g19"
     inkscape:label="notes"><g
       id="path5-5-8-6"
       inkscape:label="note"
       style="display:inline;fill:#00ffff;fill-opacity:1"
       transform="translate(8,8)"><path
         id="path10"
         style="color:#000000;display:inline;fill:#00ffff;fill-opacity:1;-inkscape-stroke:none"
         d="m 901.27734,755.08203 c -0.78785,0.0369 -1.5761,0.16188 -2.34961,0.37695 l -80.35937,21.42969 c -4.60354,1.19194 -7.88958,5.35416 -7.97656,10.10938 v 0.0469 59.8711 c -3.30679,-1.02859 -6.74752,-1.60926 -10.24219,-1.60352 h -0.008 c -17.04504,0.004 -31.52344,12.2632 -31.52344,27.86133 0,15.60054 14.48278,27.86133 31.53125,27.86133 17.04847,0 31.53125,-12.26079 31.53125,-27.86133 v -48.94727 l 59.15039,-15.93554 v 20.56054 c -3.30678,-1.02858 -6.74752,-1.60925 -10.24219,-1.60351 h -0.008 c -17.04503,0.004 -31.52148,12.26515 -31.52148,27.86328 0,15.60054 14.48082,27.86133 31.52929,27.86133 17.04848,0 31.53125,-12.26078 31.53125,-27.86133 V 765.6387 c -2e-5,-3.34617 -1.58085,-6.50795 -4.25781,-8.51562 l -0.0449,-0.0332 -0.0449,-0.0332 c -1.96225,-1.40354 -4.32793,-2.08548 -6.69532,-1.97461 z m -10.06836,24.13672 -0.0391,6.69531 -59.28906,16.35742 v -6.5664 z m -10.41992,69.32031 c 3.17812,0 5.95544,1.041 7.74805,2.41992 1.79261,1.37894 2.49414,2.86584 2.49414,4.15235 0,2.57302 -3.99708,6.85351 -10.24219,6.85351 h -2.07031 c -2.38137,-0.31461 -4.53146,-1.04057 -5.95898,-2.13867 -1.79262,-1.37893 -2.49414,-2.86389 -2.49415,-4.15039 0,-1.21075 0.8011,-2.96431 2.71094,-4.49219 1.90985,-1.52786 4.74552,-2.64453 7.8125,-2.64453 z m -80.43945,18.62696 c 3.17811,0 5.95543,1.04294 7.74805,2.42187 1.7926,1.37893 2.49414,2.86389 2.49414,4.15039 0,1.28651 -0.65625,2.64223 -2.42969,3.96094 -1.77344,1.31871 -4.57884,2.33008 -7.8125,2.33008 h -1.78125 c -2.38482,-0.31368 -4.53571,-1.03933 -5.96484,-2.13868 -1.79262,-1.37892 -2.49415,-2.86583 -2.49414,-4.15234 0,-1.28651 0.70152,-2.77146 2.49414,-4.15039 1.7926,-1.37893 4.56798,-2.42187 7.74609,-2.42187 z" /></g><g
       id="g18"
       inkscape:label="note"
       style="display:inline;fill:#ff00ff;fill-opacity:1"
       transform="translate(-8,-8)"><path
         id="path18"
         style="color:#000000;display:inline;fill:#ff00ff;fill-opacity:1;-inkscape-stroke:none"
         d="m 901.27734,755.08203 c -0.78785,0.0369 -1.5761,0.16188 -2.34961,0.37695 l -80.35937,21.42969 c -4.60354,1.19194 -7.88958,5.35416 -7.97656,10.10938 v 0.0469 59.8711 c -3.30679,-1.02859 -6.74752,-1.60926 -10.24219,-1.60352 h -0.008 c -17.04504,0.004 -31.52344,12.2632 -31.52344,27.86133 0,15.60054 14.48278,27.86133 31.53125,27.86133 17.04847,0 31.53125,-12.26079 31.53125,-27.86133 v -48.94727 l 59.15039,-15.93554 v 20.56054 c -3.30678,-1.02858 -6.74752,-1.60925 -10.24219,-1.60351 h -0.008 c -17.04503,0.004 -31.52148,12.26515 -31.52148,27.86328 0,15.60054 14.48082,27.86133 31.52929,27.86133 17.04848,0 31.53125,-12.26078 31.53125,-27.86133 V 765.6387 c -2e-5,-3.34617 -1.58085,-6.50795 -4.25781,-8.51562 l -0.0449,-0.0332 -0.0449,-0.0332 c -1.96225,-1.40354 -4.32793,-2.08548 -6.69532,-1.97461 z m -10.06836,24.13672 -0.0391,6.69531 -59.28906,16.35742 v -6.5664 z m -10.41992,69.32031 c 3.17812,0 5.95544,1.041 7.74805,2.41992 1.79261,1.37894 2.49414,2.86584 2.49414,4.15235 0,2.57302 -3.99708,6.85351 -10.24219,6.85351 h -2.07031 c -2.38137,-0.31461 -4.53146,-1.04057 -5.95898,-2.13867 -1.79262,-1.37893 -2.49414,-2.86389 -2.49415,-4.15039 0,-1.21075 0.8011,-2.96431 2.71094,-4.49219 1.90985,-1.52786 4.74552,-2.64453 7.8125,-2.64453 z m -80.43945,18.62696 c 3.17811,0 5.95543,1.04294 7.74805,2.42187 1.7926,1.37893 2.49414,2.86389 2.49414,4.15039 0,1.28651 -0.65625,2.64223 -2.42969,3.96094 -1.77344,1.31871 -4.57884,2.33008 -7.8125,2.33008 h -1.78125 c -2.38482,-0.31368 -4.53571,-1.03933 -5.96484,-2.13868 -1.79262,-1.37892 -2.49415,-2.86583 -2.49414,-4.15234 0,-1.28651 0.70152,-2.77146 2.49414,-4.15039 1.7926,-1.37893 4.56798,-2.42187 7.74609,-2.42187 z" /></g><g
       id="g17"
       inkscape:label="black"
       style="display:inline"
       sodipodi:insensitive="true"><path
         id="path17"
         style="color:#000000;display:inline;fill:#000000;-inkscape-stroke:none"
         d="m 901.27734,755.08203 c -0.78785,0.0369 -1.5761,0.16188 -2.34961,0.37695 l -80.35937,21.42969 c -4.60354,1.19194 -7.88958,5.35416 -7.97656,10.10938 v 0.0469 59.8711 c -3.30679,-1.02859 -6.74752,-1.60926 -10.24219,-1.60352 h -0.008 c -17.04504,0.004 -31.52344,12.2632 -31.52344,27.86133 0,15.60054 14.48278,27.86133 31.53125,27.86133 17.04847,0 31.53125,-12.26079 31.53125,-27.86133 v -48.94727 l 59.15039,-15.93554 v 20.56054 c -3.30678,-1.02858 -6.74752,-1.60925 -10.24219,-1.60351 h -0.008 c -17.04503,0.004 -31.52148,12.26515 -31.52148,27.86328 0,15.60054 14.48082,27.86133 31.52929,27.86133 17.04848,0 31.53125,-12.26078 31.53125,-27.86133 V 765.6387 c -2e-5,-3.34617 -1.58085,-6.50795 -4.25781,-8.51562 l -0.0449,-0.0332 -0.0449,-0.0332 c -1.96225,-1.40354 -4.32793,-2.08548 -6.69532,-1.97461 z m -10.06836,24.13672 -0.0391,6.69531 -59.28906,16.35742 v -6.5664 z m -10.41992,69.32031 c 3.17812,0 5.95544,1.041 7.74805,2.41992 1.79261,1.37894 2.49414,2.86584 2.49414,4.15235 0,2.57302 -3.99708,6.85351 -10.24219,6.85351 h -2.07031 c -2.38137,-0.31461 -4.53146,-1.04057 -5.95898,-2.13867 -1.79262,-1.37893 -2.49414,-2.86389 -2.49415,-4.15039 0,-1.21075 0.8011,-2.96431 2.71094,-4.49219 1.90985,-1.52786 4.74552,-2.64453 7.8125,-2.64453 z m -80.43945,18.62696 c 3.17811,0 5.95543,1.04294 7.74805,2.42187 1.7926,1.37893 2.49414,2.86389 2.49414,4.15039 0,1.28651 -0.65625,2.64223 -2.42969,3.96094 -1.77344,1.31871 -4.57884,2.33008 -7.8125,2.33008 h -1.78125 c -2.38482,-0.31368 -4.53571,-1.03933 -5.96484,-2.13868 -1.79262,-1.37892 -2.49415,-2.86583 -2.49414,-4.15234 0,-1.28651 0.70152,-2.77146 2.49414,-4.15039 1.7926,-1.37893 4.56798,-2.42187 7.74609,-2.42187 z" /></g></g><text
     xml:space="preserve"
     style="font-style:normal;font-variant:normal;font-weight:normal;font-stretch:normal;font-size:197.241px;font-family:'Vina Sans';-inkscape-font-specification:'Vina Sans, Normal';font-variant-ligatures:normal;font-variant-caps:normal;font-variant-numeric:normal;font-variant-east-asian:normal;fill:#000000;stroke-width:16.4368"
     x="499.57651"
     y="550.41669"
     id="text1"><tspan
       id="tspan1"
       x="499.57651"
       y="550.41669"
       sodipodi:role="line"
       style="font-style:normal;font-variant:normal;font-weight:normal;font-stretch:normal;font-size:197.241px;font-family:'Vina Sans';-inkscape-font-specification:'Vina Sans, Normal';font-variant-ligatures:normal;font-variant-caps:normal;font-variant-numeric:normal;font-variant-east-asian:normal;stroke-width:16.4368">coverisms</tspan></text><rect
     style="fill:#2c2c2c;fill-opacity:1;stroke-width:1.44899"
     id="rect1-4-4"
     width="813.9234"
     height="329.96017"
     x="655.1546"
     y="1078.2006"
     ry="9.8290386" /><g
     id="path11-6-6-2-95"
     inkscape:label="note"
     transform="translate(-1.7627278,418.91213)"><path
       style="color:#000000;fill:#00feff;-inkscape-stroke:none"
       d="m 911.11216,769.68316 a 5.6448899,5.6448899 0 0 0 -4.7981,-0.84673 l -80.4397,21.45058 a 5.6448899,5.6448899 0 0 0 -4.23366,5.36264 v 67.45644 a 29.353427,29.353427 0 0 0 -15.24121,-4.23367 c -14.67671,0 -26.53098,10.44305 -26.53098,22.8618 0,12.41876 11.85427,22.8618 26.53098,22.8618 14.67671,0 26.53098,-10.44304 26.53098,-22.8618 v -52.77971 l 69.14989,-18.62814 v 34.71607 a 29.353427,29.353427 0 0 0 -15.24119,-4.23367 c -14.67671,0 -26.53098,10.44305 -26.53098,22.8618 0,12.41876 11.85427,22.86181 26.53098,22.86181 14.67669,0 26.53099,-10.44305 26.53099,-22.86181 v -89.4715 a 5.6448899,5.6448899 0 0 0 -2.258,-4.51591 z M 806.39949,893.87074 c -8.46734,0 -15.2412,-5.36265 -15.2412,-11.57203 0,-6.20938 6.77386,-11.57202 15.2412,-11.57202 8.46733,0 15.24121,5.36264 15.24121,11.57202 0,6.20938 -6.77388,11.28978 -15.24121,11.28978 z m 26.53098,-76.48826 v -16.93467 l 69.14989,-18.91038 v 16.93467 z m 53.62645,58.42461 c -8.46733,0 -15.2412,-5.36265 -15.2412,-11.57202 0,-6.20938 7.05612,-12.13652 15.52345,-12.13652 8.46734,0 15.24119,5.36264 15.24119,11.57202 0,6.20938 -6.77385,11.85428 -15.24119,11.85428 z"
       id="path4-0" /><path
       style="color:#000000;fill:#00ffff;-inkscape-stroke:none"
       d="m 907.32617,763.64258 c -0.78783,0.0369 -1.57612,0.1619 -2.34961,0.37695 L 824.625,785.44531 c -4.60808,1.18896 -7.89733,5.35509 -7.98438,10.11328 v 0.0449 59.87109 c -3.30612,-1.02836 -6.74627,-1.6071 -10.24023,-1.60156 h -0.01 c -17.04419,0.005 -31.52148,12.26379 -31.52148,27.86132 0,15.60057 14.48276,27.86133 31.53125,27.86133 17.04849,0 31.5293,-12.26076 31.5293,-27.86133 v -48.94921 l 59.15039,-15.9336 v 20.56055 c -3.30617,-1.02839 -6.74624,-1.60905 -10.24024,-1.60352 h -0.01 c -17.04419,0.005 -31.52149,12.2638 -31.52149,27.86133 0,15.60056 14.48276,27.86328 31.53125,27.86328 17.04848,0 31.53125,-12.26271 31.53125,-27.86328 v -89.4707 c -2e-5,-3.34618 -1.5828,-6.50794 -4.25976,-8.51563 l -0.0449,-0.0351 -0.0449,-0.0312 c -1.96221,-1.4035 -4.32797,-2.08546 -6.69531,-1.97461 z m 0.32813,10.00976 c 0.13762,-0.0383 0.26692,0.0204 0.39453,0.0703 l -2.82617,1.77148 -77.29297,21.13672 v 27.30273 l 6.32031,-1.72851 72.83008,-19.91602 v -27.29101 c 0.0407,-0.0222 1.29101,-0.80216 1.29101,-0.79883 v 89.4707 c 0,9.23693 -9.22637,17.86328 -21.53125,17.86328 -12.3049,0 -21.53125,-8.62635 -21.53125,-17.86328 0,-9.23692 9.22635,-17.86133 21.53125,-17.86133 h 0.004 0.004 c 4.45732,-0.008 8.83204,1.20567 12.64648,3.51172 l 7.58594,4.58789 v -50.10742 l -79.15039,21.32227 v 56.61132 c 0,9.23694 -9.2244,17.86133 -21.5293,17.86133 -12.3049,0 -21.53125,-8.62439 -21.53125,-17.86133 0,-9.23692 9.22635,-17.86132 21.53125,-17.86132 h 0.004 0.004 c 4.45734,-0.008 8.83204,1.20566 12.64649,3.51172 l 7.58593,4.58593 v -76.23047 c 0.006,-0.31302 0.17928,-0.53311 0.48243,-0.61132 l 0.0195,-0.006 80.48633,-21.46289 z m -10.57422,14.43555 v 6.56836 l -39.08594,10.68945 c 8.91567,-5.5326 10.00545,-6.16307 19.05273,-11.77929 z m -21.20508,5.79883 -18.59766,11.6543 -19.34765,5.29101 v -6.56836 z m 10.96484,53.21094 c -5.40032,0 -10.3255,1.8479 -14.06054,4.83593 -3.73505,2.98804 -6.46289,7.30216 -6.46289,12.30078 0,4.92287 2.68533,9.2234 6.39648,12.07813 3.71115,2.85473 8.55453,4.49414 13.84375,4.49414 h 2.07227 l 0.46484,-0.46484 c 9.73349,-0.91138 17.98633,-7.53065 17.98633,-16.67188 0,-4.92286 -2.68534,-9.22144 -6.39649,-12.07617 -3.71114,-2.85473 -8.55453,-4.49609 -13.84375,-4.49609 z m 0,10 c 3.17812,0 5.95349,1.04294 7.7461,2.42187 1.79261,1.37893 2.49414,2.86388 2.49414,4.15039 0,2.57303 -3.99513,6.85547 -10.24024,6.85547 h -2.06445 c -2.38481,-0.31368 -4.5357,-1.03933 -5.96484,-2.13867 -1.79262,-1.37894 -2.49414,-2.86585 -2.49414,-4.15235 0,-1.21074 0.79914,-2.96431 2.70898,-4.49218 1.90984,-1.52788 4.74746,-2.64453 7.81445,-2.64453 z m -80.43945,8.6289 c -5.28922,0 -10.13455,1.63941 -13.8457,4.49414 -3.71115,2.85473 -6.39649,7.15526 -6.39649,12.07813 0,4.92286 2.68534,9.22339 6.39649,12.07812 3.71114,2.85473 8.55648,4.49414 13.8457,4.49414 h 5 v -0.83203 c 3.27029,-0.65618 6.28169,-1.89671 8.7793,-3.7539 3.73033,-2.77384 6.46093,-7.06346 6.46093,-11.98633 0,-4.92287 -2.68533,-9.2234 -6.39648,-12.07813 -3.71115,-2.85472 -8.55453,-4.49414 -13.84375,-4.49414 z m 0,10 c 3.17811,0 5.95348,1.04099 7.74609,2.41992 1.79262,1.37894 2.49414,2.86584 2.49414,4.15235 0,1.2865 -0.65624,2.64223 -2.42968,3.96094 -1.77344,1.3187 -4.57689,2.32812 -7.81055,2.32812 h -1.79492 c -2.37923,-0.3152 -4.52661,-1.04135 -5.95313,-2.13867 -1.79261,-1.37894 -2.49414,-2.86388 -2.49414,-4.15039 0,-1.28651 0.70153,-2.77341 2.49414,-4.15235 1.79262,-1.37893 4.56994,-2.41992 7.74805,-2.41992 z"
       id="path7-4" /></g><g
     id="path12-7-8-0-8"
     inkscape:label="note"
     transform="translate(-1.7627278,418.91213)"><path
       style="color:#000000;fill:#ff00ff;-inkscape-stroke:none"
       d="m 892.89215,751.555 c -2.28321,0.30725 -4.47349,1.11104 -6.71375,1.64143 -25.12604,6.7049 -50.2571,13.39344 -75.38,20.10857 -2.57575,0.72174 -4.68671,2.8722 -5.31416,5.4778 -0.45414,1.98415 -0.16432,4.04836 -0.24639,6.0683 0,19.95143 0,39.90286 0,59.85429 -8.22131,-3.8681 -18.13627,-3.89639 -26.39193,-0.1014 -6.77574,3.06056 -12.50668,8.88478 -14.55477,16.13232 -1.79517,6.12615 -0.59409,12.96737 2.98342,18.22717 4.71585,7.12962 12.93027,11.51338 21.34796,12.35345 9.25127,1.0095 19.06088,-2.16417 25.4667,-9.02901 4.1158,-4.32696 6.62217,-10.24517 6.43768,-16.25284 0,-16.88203 0,-33.76406 0,-50.64609 21.7168,-5.85026 43.4336,-11.70053 65.15039,-17.55079 0,9.60092 0,19.20183 0,28.80274 -8.28232,-3.89661 -18.28022,-3.8928 -26.57319,-0.0192 -6.68975,3.08173 -12.34374,8.86282 -14.36887,16.04396 -1.8147,6.1596 -0.58325,13.04388 3.03418,18.31858 4.74567,7.10941 12.97197,11.46391 21.39195,12.27934 9.22407,0.97849 18.98673,-2.20326 25.37283,-9.04238 4.08616,-4.3056 6.59436,-10.17682 6.43216,-16.15056 -0.01,-29.79619 0.016,-59.59327 -0.012,-89.3889 -0.1289,-3.06284 -2.2939,-5.94591 -5.26191,-6.79495 -0.89848,-0.29509 -1.85861,-0.37615 -2.80062,-0.33178 z m -7.21485,30.29102 c -21.71679,5.9388 -43.43359,11.87761 -65.15039,17.8164 0,-4.26237 0,-8.52474 0,-12.78711 21.7168,-5.9388 43.4336,-11.87759 65.15039,-17.8164 0,4.26237 0,8.52474 0,12.78711 z m -12.51562,57.16797 c 4.23253,0.18048 8.67649,1.89345 11.17434,5.45877 1.57996,2.16269 1.77897,5.20362 0.43454,7.53017 -2.11991,3.82293 -6.46326,5.92513 -10.69233,6.34102 -0.84014,0.13321 -1.76076,-0.0138 -2.5559,0.17015 -0.42711,0.375 -1.12736,0.0261 -1.66617,0.0427 -3.96187,-0.52575 -8.03907,-2.47359 -10.05729,-6.06888 -1.30128,-2.23419 -1.10093,-5.12343 0.31157,-7.25707 2.73612,-4.29114 8.08985,-6.43192 13.05124,-6.21684 z m -80.43945,18.6289 c 4.26513,0.17784 8.74778,1.92191 11.23026,5.54168 1.56782,2.20228 1.72753,5.31293 0.24066,7.59833 -2.15822,3.4313 -6.22857,5.14341 -10.12522,5.59241 -1.35196,0.15174 -2.71472,0.1063 -4.07227,0.14844 -0.16822,0.31269 -0.94854,-0.0904 -1.33282,-0.0704 -3.75565,-0.736 -7.5651,-2.81428 -9.26254,-6.38947 -1.22994,-2.49022 -0.5939,-5.56979 1.18886,-7.62458 2.91475,-3.49226 7.69897,-4.97197 12.13307,-4.79638 z"
       id="path8-7" /><path
       style="color:#000000;fill:#ff00ff;-inkscape-stroke:none"
       d="m 892.65625,746.56055 1.00781,9.93359 -1.43945,-9.89453 c -0.0425,0.006 -0.0593,0.0195 -0.10156,0.0254 l -0.002,-0.01 h -0.002 v 0.01 c -2.94345,0.41246 -5.26971,1.27369 -7.0918,1.70508 l -0.0703,0.0176 -0.0684,0.0176 c -25.1239,6.70433 -50.25454,13.39334 -75.38086,20.10938 l -0.0293,0.008 -0.0293,0.008 c -4.37698,1.22646 -7.74773,4.64268 -8.82617,9.1211 l -0.006,0.0293 -0.008,0.0273 c -0.72564,3.17034 -0.31011,5.57567 -0.36718,6.98047 l -0.004,0.10156 v 53.00195 c -7.80087,-1.81561 -16.12255,-1.06775 -23.4668,2.30469 -7.96845,3.6045 -14.76198,10.39712 -17.28515,19.30469 -2.23113,7.64959 -0.75948,15.90446 3.64062,22.38867 5.6662,8.54408 15.18464,13.55229 24.97071,14.53711 10.74203,1.16694 22.01862,-2.42431 29.63281,-10.57422 4.97499,-5.2402 8.02485,-12.34458 7.79492,-19.83203 l 0.002,0.1543 V 819.2207 c 18.3835,-4.9523 36.76691,-9.90511 55.15039,-14.85742 v 15.33008 c -7.87824,-1.83334 -16.28577,-1.05603 -23.68164,2.39648 -7.86106,3.62647 -14.56396,10.3675 -17.0625,19.19532 -2.25601,7.69559 -0.74836,15.99803 3.69532,22.49609 5.70155,8.52433 15.23831,13.50123 25.03125,14.45508 10.70706,1.12827 21.92495,-2.47361 29.51171,-10.58594 4.93795,-5.20952 7.99538,-12.26046 7.79297,-19.71484 l 0.002,0.13281 c -0.01,-29.79213 0.0163,-59.58898 -0.0117,-89.39063 v -0.10351 l -0.006,-0.10352 c -0.22073,-5.24471 -3.61638,-9.8161 -8.7832,-11.34375 -1.61022,-0.51383 -3.14829,-0.63053 -4.50977,-0.5664 z m 0.67383,10.00586 c 0.34886,0.005 0.68054,0.0302 0.80273,0.0703 l 0.0918,0.0312 0.0918,0.0254 c 0.70601,0.20196 1.59706,1.34573 1.63867,2.18945 0.0277,29.72385 0.002,59.45503 0.0117,89.18946 v 0.0664 l 0.002,0.0684 c 0.12183,4.48686 -1.83346,9.17187 -5.06055,12.57227 l -0.0156,0.0156 -0.0137,0.0137 c -5.17922,5.54663 -13.46407,8.30193 -21.18946,7.48243 l -0.0234,-0.002 -0.0234,-0.002 c -7.03107,-0.68092 -13.92709,-4.40374 -17.71485,-10.07813 l -0.0176,-0.0273 -0.0176,-0.0254 c -2.7691,-4.03771 -3.71733,-9.47548 -2.36133,-14.07813 l 0.008,-0.0273 0.008,-0.0273 c 1.55554,-5.51597 6.1446,-10.32591 11.64844,-12.86133 l 0.0137,-0.004 0.0117,-0.006 c 6.89801,-3.22201 15.44948,-3.22254 22.32813,0.0137 l 7.1289,3.35351 V 791.3125 l -6.30078,1.69727 c -21.71677,5.85025 -43.43361,11.70052 -65.15039,17.55078 l -3.69922,0.99804 v 54.55274 l 0.002,0.0781 c 0.13875,4.51829 -1.81722,9.24057 -5.0625,12.65235 l -0.0176,0.0176 -0.0156,0.0176 c -5.19313,5.56526 -13.52055,8.31432 -21.26953,7.46875 l -0.0215,-0.002 -0.0234,-0.002 c -7.0272,-0.70131 -13.91161,-4.44884 -17.67383,-10.13672 l -0.0176,-0.0273 -0.0195,-0.0254 c -2.7363,-4.02302 -3.6618,-9.42518 -2.31836,-14.00976 l 0.006,-0.0234 0.008,-0.0234 c 1.57494,-5.57321 6.22986,-10.41919 11.80078,-12.93554 l 0.0156,-0.006 0.0137,-0.008 c 6.86672,-3.15651 15.34724,-3.12882 22.17578,0.084 l 7.12891,3.35351 v -67.69336 -0.0391 c 0.0825,-2.44378 -0.0503,-4.14255 0.11914,-4.91601 0.18585,-0.72921 1.02279,-1.60115 1.79102,-1.81641 25.07979,-6.70356 50.16935,-13.38133 75.25781,-20.07617 0.0201,-0.005 0.0404,-0.0102 0.0606,-0.0156 2.45242,-0.59011 4.36187,-1.22898 5.86328,-1.46093 z m -2.65235,5.9414 -6.32031,1.72852 c -21.71676,5.9388 -43.43166,11.87761 -65.14844,17.8164 l -3.68164,1.00586 v 23.1543 l 6.31836,-1.72852 c 21.71678,-5.93878 43.43363,-11.87761 65.15039,-17.8164 l 3.68164,-1.00586 v -3.81641 z m -10,13.10156 v 2.41993 c -18.38397,5.02739 -36.7664,10.05464 -55.15039,15.08203 v -2.41992 c 18.38347,-5.02725 36.76693,-10.05478 55.15039,-15.08204 z m -12.51562,58.1875 v 0.6543 c -4.80465,0.96097 -9.35441,3.55983 -12.24024,8.0625 -2.40847,3.66835 -2.7845,8.42826 -0.45898,12.45313 3.05234,5.40474 8.63265,7.8696 13.73633,8.54687 l 0.37109,0.0488 c -0.0837,6e-5 0.0442,0.005 0.51953,0.0664 0.76837,0.0994 2.92113,0.23117 4.73047,-1.35743 l -2.17187,1.11329 c -0.56337,0.13033 0.36682,0.153 2.07617,-0.0957 5.47189,-0.57699 11.26714,-3.231 14.39062,-8.82617 2.36305,-4.12439 2.024,-9.11107 -0.7207,-12.89844 -3.66776,-5.19791 -9.60637,-7.31605 -15.01953,-7.54687 z m 4.7832,10.2129 h 0.004 c 3.03598,0.12945 5.96042,1.4328 7.29101,3.33203 l 0.0293,0.041 0.0293,0.0391 c 0.38095,0.52146 0.43572,1.57279 0.14258,2.08008 l -0.0215,0.0371 -0.0215,0.0391 c -1.09226,1.96973 -3.88089,3.50115 -6.8086,3.78907 l -0.14843,0.0156 -0.14649,0.0234 c 0.26811,-0.0425 -0.77629,-0.20204 -2.7793,0.22656 -0.26638,-0.0449 -0.12463,-0.0954 -0.8125,-0.0742 l 0.81055,0.041 c -2.80885,-0.37274 -5.36692,-1.79759 -6.35547,-3.55859 l -0.0195,-0.0352 -0.0195,-0.0352 c -0.24541,-0.42135 -0.22559,-1.39777 0.16016,-1.98047 l 0.0234,-0.0352 0.0234,-0.0352 c 1.55181,-2.43375 5.2475,-4.05632 8.61914,-3.91015 z m -85.22265,8.41992 v 0.66406 c -4.04936,0.7624 -8.0046,2.61724 -10.9375,6.11133 -2.98614,3.46944 -4.10741,8.49612 -1.87696,13.04297 2.62597,5.48542 7.93333,8.15897 12.79297,9.11132 l 0.60547,0.11915 0.0195,-0.002 c 0.31081,0.0702 0.74845,0.22014 1.75977,0.15625 0.0922,-0.006 0.27962,-0.10709 0.39062,-0.125 1.1074,-0.0213 2.44999,0.0266 4.14844,-0.16406 h 0.008 l 0.008,-0.002 c 4.92829,-0.56788 10.48921,-2.69708 13.75977,-7.86719 2.67542,-4.14228 2.37812,-9.28115 -0.35547,-13.15039 -3.6493,-5.28874 -9.64977,-7.44985 -15.11523,-7.67774 h -0.01 z m 4.79492,10.20898 c 3.04992,0.1282 5.9928,1.45162 7.31054,3.37305 l 0.0254,0.0371 0.0254,0.0352 c 0.37078,0.52083 0.38968,1.56283 0.12304,1.97266 l -0.0215,0.0312 -0.0195,0.0332 c -1.04804,1.66625 -3.6075,2.95508 -6.45899,3.28516 -0.87155,0.0971 -2.09277,0.0704 -3.66211,0.11914 l -0.10742,0.004 c -0.0425,-0.006 -0.12712,-0.005 -0.17578,-0.01 -2.60645,-0.53033 -4.86984,-1.98027 -5.63867,-3.59961 l -0.0176,-0.0352 -0.0176,-0.0352 c -0.20204,-0.40908 -0.0655,-1.50125 0.48242,-2.13281 l 0.0312,-0.0371 0.0312,-0.0371 c 1.63429,-1.95809 4.90945,-3.12824 8.08985,-3.00391 z"
       id="path9-1" /></g><g
     id="path5-5-8-6-7"
     inkscape:label="note"
     transform="translate(-1.7627278,418.91213)"><path
       style="color:#000000;fill:#000000;-inkscape-stroke:none"
       d="m 905.06296,761.12324 a 5.6448899,5.6448899 0 0 0 -4.7982,-0.84673 l -80.43963,21.45058 a 5.6448899,5.6448899 0 0 0 -4.23366,5.36264 v 67.45644 a 29.353427,29.353427 0 0 0 -15.24121,-4.23367 c -14.67671,0 -26.53098,10.44305 -26.53098,22.8618 0,12.41876 11.85427,22.8618 26.53098,22.8618 14.67671,0 26.53098,-10.44304 26.53098,-22.8618 v -52.77971 l 69.1499,-18.62814 v 34.71607 a 29.353427,29.353427 0 0 0 -15.2412,-4.23367 c -14.67671,0 -26.53098,10.44305 -26.53098,22.8618 0,12.41876 11.85427,22.86181 26.53098,22.86181 14.67671,0 26.53102,-10.44305 26.53102,-22.86181 v -89.4715 a 5.6448899,5.6448899 0 0 0 -2.258,-4.51591 z m -104.7127,124.18758 c -8.46734,0 -15.2412,-5.36265 -15.2412,-11.57203 0,-6.20938 6.77386,-11.57202 15.2412,-11.57202 8.46733,0 15.24121,5.36264 15.24121,11.57202 0,6.20938 -6.77388,11.28978 -15.24121,11.28978 z m 26.53098,-76.48826 v -16.93467 l 69.1499,-18.91038 v 16.93467 z m 53.62645,58.42461 c -8.46733,0 -15.2412,-5.36265 -15.2412,-11.57202 0,-6.20938 7.05612,-12.13652 15.52345,-12.13652 8.46734,0 15.2412,5.36264 15.2412,11.57202 0,6.20938 -6.77386,11.85428 -15.2412,11.85428 z"
       id="path10-2" /><path
       style="color:#000000;fill:#000000;-inkscape-stroke:none"
       d="m 901.27734,755.08203 c -0.78785,0.0369 -1.5761,0.16188 -2.34961,0.37695 l -80.35937,21.42969 c -4.60354,1.19194 -7.88958,5.35416 -7.97656,10.10938 v 0.0469 59.8711 c -3.30679,-1.02859 -6.74752,-1.60926 -10.24219,-1.60352 h -0.008 c -17.04505,0.004 -31.52344,12.26319 -31.52344,27.86133 0,15.60056 14.48276,27.86133 31.53125,27.86133 17.04849,0 31.53125,-12.26077 31.53125,-27.86133 v -48.94727 l 59.15039,-15.93554 v 20.56054 c -3.30678,-1.02858 -6.74752,-1.60925 -10.24219,-1.60351 h -0.008 c -17.04505,0.004 -31.52148,12.26514 -31.52148,27.86328 0,15.60056 14.4808,27.86133 31.52929,27.86133 17.04849,0 31.53125,-12.26076 31.53125,-27.86133 V 765.6387 c -2e-5,-3.34618 -1.58085,-6.50794 -4.25781,-8.51562 l -0.0449,-0.0332 -0.0449,-0.0332 c -1.96225,-1.40354 -4.32793,-2.08548 -6.69532,-1.97461 z m 0.32813,10.01172 c 0.13759,-0.0383 0.26694,0.0185 0.39453,0.0684 l -2.82813,1.77148 -77.29101,21.13868 v 27.30078 l 6.31836,-1.72852 72.83203,-19.91601 v -27.29297 c 0.0406,-0.0221 1.28906,-0.8002 1.28906,-0.79688 v 89.47266 c 0,9.23692 -9.22635,17.86133 -21.53125,17.86133 -12.3049,0 -21.52929,-8.6244 -21.52929,-17.86133 0,-9.23692 9.22439,-17.86328 21.52929,-17.86328 h 0.006 0.004 c 4.45733,-0.008 8.83204,1.20762 12.64648,3.51367 l 7.58594,4.58594 v -50.10547 l -79.15039,21.32031 v 56.61133 c 0,9.23693 -9.22635,17.86133 -21.53125,17.86133 -12.3049,0 -21.53125,-8.6244 -21.53125,-17.86133 0,-9.23692 9.22635,-17.86133 21.53125,-17.86133 h 0.006 0.004 c 4.45734,-0.008 8.83009,1.20566 12.64454,3.51172 l 7.58789,4.58789 v -76.23242 c 0.007,-0.31129 0.18034,-0.53339 0.48242,-0.61133 l 0.0195,-0.004 80.48633,-21.46289 z m -10.57422,14.43555 v 6.5664 l -39.08594,10.68946 c 8.91243,-5.53059 10.0003,-6.16083 19.04492,-11.77539 z m -21.21094,5.80078 -18.59179,11.65039 -19.34766,5.29101 v -6.5664 z m 10.96875,53.20898 c -5.40033,0 -10.3255,1.84791 -14.06054,4.83594 -3.73505,2.98803 -6.46289,7.30216 -6.4629,12.30078 0,4.92287 2.6873,9.22144 6.39844,12.07617 3.71115,2.85473 8.55454,4.4961 13.84375,4.4961 h 2.07031 l 0.4668,-0.4668 c 9.73314,-0.91167 17.98633,-7.52895 17.98633,-16.66992 0,-4.92287 -2.68534,-9.2234 -6.39648,-12.07813 -3.71115,-2.85473 -8.55649,-4.49414 -13.84571,-4.49414 z m 0,10 c 3.17812,0 5.95544,1.04099 7.74805,2.41992 1.79261,1.37894 2.49414,2.86584 2.49414,4.15235 0,2.57302 -3.99708,6.85351 -10.24219,6.85351 h -2.07031 c -2.38137,-0.31461 -4.53145,-1.04057 -5.95898,-2.13867 -1.79262,-1.37893 -2.49414,-2.86389 -2.49415,-4.15039 0,-1.21075 0.8011,-2.96431 2.71094,-4.49219 1.90985,-1.52787 4.74551,-2.64453 7.8125,-2.64453 z m -80.43945,8.62696 c -5.28922,0 -10.1326,1.64136 -13.84375,4.49609 -3.71115,2.85473 -6.39649,7.15331 -6.39649,12.07617 0,4.92287 2.68534,9.22339 6.39649,12.07813 3.71115,2.85473 8.55453,4.49414 13.84375,4.49414 h 5 v -0.83203 c 3.27079,-0.65611 6.28137,-1.89648 8.7793,-3.75391 3.73033,-2.77383 6.46289,-7.06346 6.46289,-11.98633 0,-4.92287 -2.68534,-9.22144 -6.39649,-12.07617 -3.71115,-2.85473 -8.55649,-4.49609 -13.8457,-4.49609 z m 0,10 c 3.17811,0 5.95543,1.04294 7.74805,2.42187 1.79261,1.37893 2.49414,2.86389 2.49414,4.15039 0,1.28651 -0.65625,2.64223 -2.42969,3.96094 -1.77344,1.31871 -4.57884,2.33008 -7.8125,2.33008 h -1.78125 c -2.38482,-0.31368 -4.5357,-1.03933 -5.96484,-2.13868 -1.79262,-1.37893 -2.49415,-2.86583 -2.49415,-4.15234 0,-1.28651 0.70153,-2.77146 2.49415,-4.15039 1.79261,-1.37893 4.56798,-2.42187 7.74609,-2.42187 z"
       id="path13-7" /></g><path
     style="color:#000000;fill:#000000;-inkscape-stroke:none"
     d="m 745.12787,1120.2598 c -12.8256,0 -24.5351,10.4647 -24.5351,24.5351 v 195.8614 c 0,12.3372 10.9718,24.5352 24.5351,24.5352 h 191.9688 c 12.459,0 24.5371,-11.1368 24.5371,-24.5352 v -195.8614 c 0,-13.2533 -12.2558,-24.5351 -24.5371,-24.5351 z m 6,26.5683 h 179.9688 c 2.4278,0 3.9687,1.539 3.9687,3.9668 v 183.8614 c 0,2.4278 -1.5409,3.9687 -3.9687,3.9687 h -179.9688 c -2.4278,0 -3.9668,-1.5409 -3.9668,-3.9687 v -183.8614 c 0,-2.4278 1.539,-3.9668 3.9668,-3.9668 z"
     id="rect2-2"
     sodipodi:nodetypes="ssssssssssssssssss" /><g
     id="path11-6-6-2-9-2"
     inkscape:label="note"
     transform="translate(-1.7627278,418.91213)"><path
       style="color:#000000;fill:#00feff;-inkscape-stroke:none"
       d="m 1280.5407,773.83453 a 5.6448899,5.6448899 0 0 0 -4.7981,-0.84673 l -80.4397,21.45058 a 5.6448899,5.6448899 0 0 0 -4.2337,5.36264 v 67.45644 a 29.353427,29.353427 0 0 0 -15.2412,-4.23367 c -14.6767,0 -26.531,10.44305 -26.531,22.8618 0,12.41876 11.8543,22.8618 26.531,22.8618 14.6767,0 26.531,-10.44304 26.531,-22.8618 v -52.77971 l 69.1499,-18.62814 v 34.71607 a 29.353427,29.353427 0 0 0 -15.2412,-4.23367 c -14.6767,0 -26.531,10.44305 -26.531,22.8618 0,12.41876 11.8543,22.86181 26.531,22.86181 14.6767,0 26.531,-10.44305 26.531,-22.86181 v -89.4715 a 5.6448899,5.6448899 0 0 0 -2.258,-4.51591 z M 1175.828,898.02211 c -8.4673,0 -15.2412,-5.36265 -15.2412,-11.57203 0,-6.20938 6.7739,-11.57202 15.2412,-11.57202 8.4673,0 15.2412,5.36264 15.2412,11.57202 0,6.20938 -6.7739,11.28978 -15.2412,11.28978 z m 26.531,-76.48826 v -16.93467 l 69.1499,-18.91038 v 16.93467 z m 53.6264,58.42461 c -8.4673,0 -15.2412,-5.36265 -15.2412,-11.57202 0,-6.20938 7.0562,-12.13652 15.5235,-12.13652 8.4673,0 15.2412,5.36264 15.2412,11.57202 0,6.20938 -6.7739,11.85428 -15.2412,11.85428 z"
       id="path14-6" /><path
       style="color:#000000;fill:#00ffff;-inkscape-stroke:none"
       d="m 1276.7539,767.79297 c -0.7891,0.037 -1.5769,0.16321 -2.3516,0.3789 l 0.053,-0.0156 -80.4004,21.44141 c -4.6081,1.18893 -7.8973,5.35311 -7.9844,10.11132 v 0.0469 59.87109 c -3.3058,-1.02811 -6.7468,-1.60905 -10.2403,-1.60351 h -0.01 c -17.0442,0.005 -31.5215,12.26379 -31.5215,27.86133 0,15.60057 14.4827,27.86328 31.5312,27.86328 17.0485,0 31.5313,-12.26271 31.5313,-27.86328 V 836.9375 l 59.1504,-15.93555 v 20.56055 c -3.3062,-1.02836 -6.7483,-1.6071 -10.2422,-1.60156 h -0.01 c -17.0442,0.005 -31.5215,12.26379 -31.5215,27.86133 0,15.60057 14.4828,27.86132 31.5313,27.86132 17.0485,0 31.5312,-12.26075 31.5312,-27.86132 v -89.47266 c 0,-3.34618 -1.5808,-6.50794 -4.2578,-8.51563 l -0.045,-0.0332 -0.047,-0.0332 c -1.9622,-1.4035 -4.328,-2.08546 -6.6953,-1.97461 z m 0.3301,10.01172 c 0.1376,-0.0383 0.2669,0.0185 0.3945,0.0684 l -2.832,1.77539 -77.2871,21.13476 v 27.30078 l 6.3183,-1.72656 72.8321,-19.91797 v -27.29297 c 0.041,-0.0221 1.289,-0.80019 1.289,-0.79687 v 89.47266 c 0,9.23692 -9.2263,17.86132 -21.5312,17.86132 -12.3049,0 -21.5313,-8.6244 -21.5313,-17.86132 0,-9.23692 9.2264,-17.86133 21.5313,-17.86133 v 0 h 0.01 c 4.4574,-0.008 8.8301,1.20566 12.6446,3.51172 l 7.5879,4.58593 v -50.10547 l -79.1504,21.32227 v 56.60938 c 0,9.23692 -9.2264,17.86328 -21.5313,17.86328 -12.3049,0 -21.5312,-8.62636 -21.5312,-17.86328 0,-9.23692 9.2263,-17.86133 21.5312,-17.86133 v 0 h 0.01 c 4.4573,-0.008 8.8301,1.20762 12.6445,3.51367 l 7.586,4.58594 v -76.23047 c 0.01,-0.31303 0.1812,-0.53507 0.4843,-0.61328 l 0.02,-0.004 80.4843,-21.46289 z m -10.5742,14.43554 v 6.56641 l -39.086,10.68945 c 8.9125,-5.53059 10.0003,-6.16082 19.045,-11.77539 z m -21.211,5.80079 -18.5918,11.65039 -19.3476,5.29101 v -6.5664 z m 10.9688,53.20898 c -5.4003,0 -10.3255,1.84791 -14.0606,4.83594 -3.735,2.98803 -6.4629,7.30213 -6.4629,12.30078 0,4.92287 2.6854,9.2234 6.3965,12.07812 3.7112,2.85473 8.5565,4.49414 13.8457,4.49414 h 2.0703 l 0.4668,-0.46679 c 9.7332,-0.91167 17.9864,-7.52893 17.9864,-16.66992 0,-4.92288 -2.6873,-9.2234 -6.3985,-12.07813 -3.7111,-2.85472 -8.5545,-4.49414 -13.8437,-4.49414 z m 0,10 c 3.1781,0 5.9554,1.04099 7.748,2.41992 1.7926,1.37894 2.4942,2.86585 2.4942,4.15235 0,2.57299 -3.9972,6.85351 -10.2422,6.85351 h -2.0703 c -2.3817,-0.31452 -4.5313,-1.04045 -5.959,-2.13867 -1.7926,-1.37894 -2.4942,-2.8639 -2.4942,-4.15039 0,-1.21073 0.8011,-2.96431 2.711,-4.49219 1.9098,-1.52788 4.7455,-2.64453 7.8125,-2.64453 z m -80.4395,8.62891 c -5.2892,0 -10.1326,1.63941 -13.8437,4.49414 -3.7112,2.85472 -6.3985,7.15329 -6.3985,12.07617 0,4.92287 2.6873,9.2234 6.3985,12.07812 3.7111,2.85473 8.5545,4.49414 13.8437,4.49414 h 5 v -0.83007 c 3.2704,-0.65617 6.2816,-1.89862 8.7793,-3.75586 3.7304,-2.77383 6.461,-7.06346 6.461,-11.98633 0,-4.92288 -2.6854,-9.22145 -6.3965,-12.07617 -3.7112,-2.85473 -8.5546,-4.49414 -13.8438,-4.49414 z m 0,10 c 3.1781,0 5.9555,1.04098 7.7481,2.41992 1.7926,1.37893 2.4922,2.86389 2.4922,4.15039 0,1.2865 -0.6543,2.64418 -2.4278,3.96289 -1.7734,1.31871 -4.5788,2.32812 -7.8125,2.32812 h -1.7812 c -2.3848,-0.31368 -4.5377,-1.03932 -5.9668,-2.13867 -1.7926,-1.37894 -2.4942,-2.86584 -2.4942,-4.15234 0,-1.2865 0.7016,-2.77146 2.4942,-4.15039 1.7926,-1.37894 4.5699,-2.41992 7.748,-2.41992 z"
       id="path15-1" /></g><g
     id="path12-7-8-0-2-0"
     inkscape:label="note"
     transform="translate(-1.7627278,418.91213)"><path
       style="color:#000000;fill:#ff00ff;-inkscape-stroke:none"
       d="m 1262.3207,755.70637 c -2.2832,0.30725 -4.4735,1.11104 -6.7138,1.64143 -25.126,6.7049 -50.2571,13.39344 -75.38,20.10857 -2.5757,0.72174 -4.6867,2.8722 -5.3141,5.4778 -0.4542,1.98415 -0.1644,4.04836 -0.2464,6.0683 0,19.95143 0,39.90286 0,59.85429 -8.2213,-3.8681 -18.1363,-3.89639 -26.392,-0.1014 -6.7757,3.06056 -12.5066,8.88478 -14.5547,16.13232 -1.7952,6.12615 -0.5941,12.96737 2.9834,18.22717 4.7158,7.12962 12.9303,11.51338 21.3479,12.35345 9.2513,1.0095 19.0609,-2.16417 25.4667,-9.02901 4.1158,-4.32696 6.6222,-10.24517 6.4377,-16.25284 0,-16.88203 0,-33.76406 0,-50.64609 21.7168,-5.85026 43.4336,-11.70053 65.1504,-17.55079 0,9.60092 0,19.20183 0,28.80274 -8.2823,-3.89661 -18.2802,-3.8928 -26.5732,-0.0192 -6.6897,3.08173 -12.3437,8.86282 -14.3688,16.04396 -1.8147,6.1596 -0.5833,13.04388 3.0341,18.31858 4.7457,7.10941 12.972,11.46391 21.392,12.27934 9.2241,0.97849 18.9867,-2.20326 25.3728,-9.04238 4.0862,-4.3056 6.5944,-10.17682 6.4322,-16.15056 -0.01,-29.79619 0.016,-59.59327 -0.012,-89.3889 -0.1289,-3.06284 -2.2939,-5.94591 -5.2619,-6.79495 -0.8985,-0.29509 -1.8586,-0.37615 -2.8006,-0.33178 z m -7.2149,30.29102 c -21.7168,5.9388 -43.4336,11.87761 -65.1504,17.8164 0,-4.26237 0,-8.52474 0,-12.78711 21.7168,-5.9388 43.4336,-11.87759 65.1504,-17.8164 0,4.26237 0,8.52474 0,12.78711 z m -12.5156,57.16797 c 4.2325,0.18048 8.6765,1.89345 11.1743,5.45877 1.58,2.16269 1.779,5.20362 0.4346,7.53017 -2.1199,3.82293 -6.4633,5.92513 -10.6924,6.34102 -0.8401,0.13321 -1.7607,-0.0138 -2.5559,0.17015 -0.4271,0.375 -1.1273,0.0261 -1.6661,0.0427 -3.9619,-0.52575 -8.0391,-2.47359 -10.0573,-6.06888 -1.3013,-2.23419 -1.1009,-5.12343 0.3116,-7.25707 2.7361,-4.29114 8.0898,-6.43192 13.0512,-6.21684 z m -80.4395,18.6289 c 4.2652,0.17784 8.7478,1.92191 11.2303,5.54168 1.5678,2.20228 1.7275,5.31293 0.2407,7.59833 -2.1583,3.4313 -6.2286,5.14341 -10.1253,5.59241 -1.3519,0.15174 -2.7147,0.1063 -4.0722,0.14844 -0.1682,0.31269 -0.9486,-0.0904 -1.3328,-0.0704 -3.7557,-0.736 -7.5651,-2.81428 -9.2626,-6.38947 -1.2299,-2.49022 -0.5939,-5.56979 1.1889,-7.62458 2.9147,-3.49226 7.6989,-4.97197 12.133,-4.79638 z"
       id="path16-6" /><path
       style="color:#000000;fill:#ff00ff;-inkscape-stroke:none"
       d="m 1262.0859,750.71289 1.0567,9.92578 -1.4883,-9.88672 c -0.064,0.009 -0.091,0.028 -0.1543,0.0371 -2.9144,0.41582 -5.2353,1.26494 -7.0449,1.69336 l -0.068,0.0156 -0.068,0.0195 c -25.1239,6.70433 -50.2565,13.39138 -75.3829,20.10742 l -0.029,0.008 -0.029,0.01 c -4.377,1.22646 -7.7478,4.64256 -8.8262,9.12109 l -0.01,0.0273 -0.01,0.0273 c -0.7258,3.17039 -0.3121,5.57552 -0.3692,6.98047 v 0.10156 53.00195 c -7.7995,-1.81528 -16.1196,-1.06621 -23.4629,2.30469 -7.9669,3.60307 -14.7598,10.39263 -17.2851,19.29688 -2.2342,7.6486 -0.7661,15.90316 3.6308,22.38867 5.6674,8.55269 15.1933,13.56407 24.9864,14.54687 10.736,1.16338 22.0054,-2.42789 29.6171,-10.57031 4.9784,-5.24077 8.0309,-12.34562 7.8008,-19.83594 v 0.15235 -46.8125 c 18.3835,-4.95231 36.7669,-9.90512 55.1504,-14.85743 v 15.32813 c -7.8721,-1.8319 -16.2724,-1.05697 -23.6641,2.38867 0,6.1e-4 0,0.001 0,0.002 -7.8665,3.62506 -14.5763,10.37053 -17.0762,19.20313 -2.2565,7.6973 -0.7467,15.99933 3.6992,22.49805 5.7,8.51936 15.2294,13.49506 25.0176,14.45117 10.7109,1.13157 21.9344,-2.46974 29.5235,-10.58594 4.938,-5.20953 7.9934,-12.26046 7.791,-19.71484 v 0.13476 c -0.01,-29.79213 0.016,-59.59093 -0.012,-89.39258 v -0.10156 -0.10351 c -0.2207,-5.24502 -3.6178,-9.82027 -8.7851,-11.34766 -1.6094,-0.51316 -3.147,-0.6266 -4.5079,-0.5625 z m 0.6739,10.00586 c 0.3475,0.006 0.6788,0.0303 0.8007,0.0703 l 0.092,0.0293 0.094,0.0273 c 0.706,0.20196 1.5951,1.34378 1.6367,2.1875 0.028,29.7245 0,59.45634 0.012,89.19141 v 0.0664 0.0664 c 0.1218,4.48686 -1.8334,9.17383 -5.0606,12.57422 l -0.014,0.0137 -0.014,0.0156 c -5.1792,5.54663 -13.466,8.30193 -21.1914,7.48242 l -0.023,-0.002 -0.022,-0.004 c -7.0311,-0.68092 -13.9271,-4.40373 -17.7149,-10.07813 l -0.018,-0.0254 -0.017,-0.0254 c -2.7691,-4.0377 -3.7174,-9.47545 -2.3614,-14.07812 l 0.01,-0.0273 0.01,-0.0293 c 1.5555,-5.51595 6.1446,-10.32396 11.6484,-12.85938 l 0.012,-0.006 0.012,-0.006 c 6.8981,-3.22202 15.4495,-3.22254 22.3282,0.0137 l 7.1289,3.35351 V 795.4644 l -6.3008,1.69727 c -21.7168,5.85025 -43.4336,11.70053 -65.1504,17.55078 l -3.6992,0.99609 v 54.55469 0.0762 c 0.1388,4.51827 -1.8172,9.24251 -5.0625,12.6543 l -0.016,0.0156 -0.018,0.0176 c -5.1931,5.56526 -13.5185,8.31628 -21.2675,7.47071 l -0.024,-0.002 -0.023,-0.004 c -7.0271,-0.7013 -13.9117,-4.44693 -17.6739,-10.13477 l -0.018,-0.0273 -0.018,-0.0273 c -2.7363,-4.02303 -3.6638,-9.42519 -2.3203,-14.00976 l 0.01,-0.0215 0.01,-0.0234 c 1.5749,-5.57324 6.2299,-10.41921 11.8007,-12.93555 l 0.016,-0.008 0.016,-0.006 c 6.8667,-3.15652 15.3453,-3.13078 22.1738,0.082 l 7.1289,3.35351 v -67.68945 c 0.087,-2.48151 -0.05,-4.1815 0.1211,-4.96094 0.1877,-0.72835 1.0222,-1.5976 1.7891,-1.8125 25.0999,-6.70894 50.2117,-13.39155 75.3203,-20.09179 2.4527,-0.59015 4.3618,-1.22897 5.8633,-1.46094 z m -2.6543,5.94141 -6.3184,1.72656 c -21.7168,5.9388 -43.4336,11.87761 -65.1504,17.8164 l -3.6816,1.00782 v 23.15429 l 6.3183,-1.72851 c 21.7168,-5.93879 43.4337,-11.87761 65.1504,-17.81641 l 3.6817,-1.00586 v -3.8164 z m -10,13.10156 v 2.41797 c -18.3835,5.02725 -36.767,10.05479 -55.1504,15.08203 v -2.41797 c 18.3834,-5.02725 36.7669,-10.05478 55.1504,-15.08203 z m -12.5157,58.18555 v 0.65625 c -4.8026,0.96099 -9.3527,3.55678 -12.2382,8.05664 -2.4109,3.66801 -2.7856,8.42894 -0.461,12.45507 3.0522,5.40576 8.6322,7.8715 13.7364,8.54883 l 0.3593,0.0488 c -0.071,1.9e-4 0.064,0.006 0.5313,0.0664 0.7684,0.0994 2.9231,0.23115 4.7324,-1.35743 l -2.1719,1.11524 c -0.5631,0.13026 0.3651,0.15101 2.0742,-0.0977 5.4711,-0.5769 11.2668,-3.23069 14.3907,-8.82422 2.3614,-4.12175 2.0251,-9.10608 -0.7149,-12.89257 -3.6669,-5.20251 -9.6083,-7.3214 -15.0234,-7.55274 -6e-4,-3e-5 0,3e-5 0,0 z m 4.7832,10.21289 v 0 c 3.0359,0.12945 5.9624,1.43286 7.2929,3.33203 l 0.027,0.041 0.029,0.041 c 0.3809,0.52145 0.4357,1.57081 0.1425,2.07812 l -0.021,0.0391 -0.022,0.0391 c -1.0923,1.96968 -3.8809,3.50115 -6.8086,3.78906 l -0.1485,0.0137 -0.1445,0.0234 c 0.2684,-0.0426 -0.7754,-0.20122 -2.7812,0.22852 -0.2664,-0.0449 -0.1247,-0.0954 -0.8125,-0.0742 l 0.8125,0.041 c -2.8089,-0.37274 -5.367,-1.79956 -6.3555,-3.56054 l -0.019,-0.0352 -0.02,-0.0332 c -0.2454,-0.4213 -0.2256,-1.39774 0.1602,-1.98047 l 0.023,-0.0352 0.024,-0.0371 c 1.5518,-2.43374 5.2455,-4.05632 8.6171,-3.91015 z m -85.2226,8.42187 v 0.66406 c -4.0494,0.76286 -8.005,2.6165 -10.9375,6.11133 -2.9842,3.46711 -4.1032,8.48886 -1.8789,13.0332 2.6246,5.49088 7.9328,8.16827 12.7949,9.1211 l 0.6055,0.11914 0.022,-0.002 c 0.3108,0.0702 0.7465,0.21817 1.7578,0.15429 0.092,-0.006 0.2796,-0.10708 0.3906,-0.125 1.1076,-0.0213 2.4512,0.0286 4.1504,-0.16211 l 0.01,-0.002 h 0.01 c 4.9283,-0.56787 10.4891,-2.69914 13.7597,-7.86914 2.6745,-4.14098 2.3796,-9.27765 -0.3515,-13.14648 -3.649,-5.29215 -9.6501,-7.45174 -15.1172,-7.67969 h -0.012 z m 4.8027,10.20899 c 3.0478,0.12977 5.9878,1.4529 7.3047,3.37304 l 0.025,0.0352 0.025,0.0371 c 0.3708,0.52082 0.3877,1.56086 0.1211,1.9707 l -0.019,0.0332 -0.022,0.0312 c -1.049,1.66763 -3.6107,2.95824 -6.4649,3.28711 -0.8711,0.0964 -2.0883,0.0705 -3.6543,0.11914 l -0.084,0.002 c -0.048,-0.007 -0.1454,-0.004 -0.2011,-0.01 -2.6065,-0.53034 -4.8698,-1.98018 -5.6387,-3.59961 l -0.018,-0.0351 -0.016,-0.0332 c -0.2021,-0.40912 -0.065,-1.50323 0.4824,-2.13476 l 0.031,-0.0352 0.029,-0.0371 c 1.6352,-1.95926 4.9154,-3.12992 8.0976,-3.0039 z"
       id="path17-1" /></g><g
     id="path5-5-8-6-6-5"
     inkscape:label="note"
     style="fill:#ffffff"
     transform="translate(-1.7627278,418.91213)"><path
       style="color:#000000;fill:#ffffff;-inkscape-stroke:none"
       d="m 1274.4915,765.27461 a 5.6448899,5.6448899 0 0 0 -4.7982,-0.84673 l -80.4397,21.45058 a 5.6448899,5.6448899 0 0 0 -4.2336,5.36264 v 67.45644 a 29.353427,29.353427 0 0 0 -15.2412,-4.23367 c -14.6767,0 -26.531,10.44305 -26.531,22.8618 0,12.41876 11.8543,22.8618 26.531,22.8618 14.6767,0 26.531,-10.44304 26.531,-22.8618 v -52.77971 l 69.1499,-18.62814 v 34.71607 a 29.353427,29.353427 0 0 0 -15.2412,-4.23367 c -14.6768,0 -26.531,10.44305 -26.531,22.8618 0,12.41876 11.8542,22.86181 26.531,22.86181 14.6767,0 26.531,-10.44305 26.531,-22.86181 v -89.4715 a 5.6448899,5.6448899 0 0 0 -2.258,-4.51591 z m -104.7127,124.18758 c -8.4674,0 -15.2412,-5.36265 -15.2412,-11.57203 0,-6.20938 6.7738,-11.57202 15.2412,-11.57202 8.4673,0 15.2412,5.36264 15.2412,11.57202 0,6.20938 -6.7739,11.28978 -15.2412,11.28978 z m 26.531,-76.48826 v -16.93467 l 69.1499,-18.91038 v 16.93467 z m 53.6264,58.42461 c -8.4673,0 -15.2412,-5.36265 -15.2412,-11.57202 0,-6.20938 7.0561,-12.13652 15.5235,-12.13652 8.4673,0 15.2412,5.36264 15.2412,11.57202 0,6.20938 -6.7739,11.85428 -15.2412,11.85428 z"
       id="path2-9" /><path
       style="color:#000000;fill:#ffffff;-inkscape-stroke:none"
       d="m 1270.7051,759.23437 c -0.7879,0.0369 -1.5761,0.16189 -2.3496,0.37696 l -80.3516,21.42578 c -4.608,1.189 -7.8954,5.35511 -7.9824,10.11328 v 0.0449 59.8711 c -3.3061,-1.02837 -6.7462,-1.6071 -10.2402,-1.60157 h -0.01 c -17.0442,0.005 -31.5215,12.26379 -31.5215,27.86133 0,15.60057 14.4828,27.86133 31.5313,27.86133 17.0485,0 31.5312,-12.26076 31.5312,-27.86133 v -48.94922 l 59.1485,-15.93359 v 20.56055 c -3.3058,-1.02812 -6.7467,-1.60906 -10.2402,-1.60352 h -0.01 c -17.0443,0.005 -31.5215,12.26382 -31.5215,27.86133 0,15.60054 14.4827,27.86133 31.5313,27.86133 17.0484,0 31.5312,-12.26076 31.5312,-27.86133 V 769.791 c 0,-3.34619 -1.5808,-6.50795 -4.2578,-8.51563 l -0.047,-0.0352 -0.045,-0.0332 c -1.9623,-1.40354 -4.3279,-2.08352 -6.6953,-1.97266 z m 0.3301,10.00977 c 0.1381,-0.0385 0.2665,0.0199 0.3945,0.0703 l -2.8262,1.77149 -77.293,21.13672 v 27.30273 l 6.3184,-1.72852 72.8301,-19.91796 v -27.28907 c 0.041,-0.0222 1.291,-0.80215 1.291,-0.79882 v 89.4707 c 0,9.23692 -9.2264,17.86133 -21.5312,17.86133 -12.3051,0 -21.5313,-8.62438 -21.5313,-17.86133 0,-9.23694 9.2262,-17.86133 21.5313,-17.86133 v 0 h 0.01 c 4.4573,-0.008 8.8301,1.20567 12.6445,3.51172 l 7.586,4.58789 v -50.10742 l -79.1485,21.32226 v 56.61133 c 0,9.23693 -9.2263,17.86133 -21.5312,17.86133 -12.3049,0 -21.5313,-8.6244 -21.5313,-17.86133 0,-9.23691 9.2264,-17.86133 21.5313,-17.86133 v 0 l 0.01,-0.002 c 4.4573,-0.008 8.83,1.20762 12.6445,3.51367 l 7.5859,4.58594 v -76.23047 c 0.01,-0.31302 0.1793,-0.53311 0.4825,-0.61133 l 0.02,-0.006 80.4863,-21.46289 z m -10.5762,14.43555 v 6.56836 l -39.0801,10.68554 c 8.9136,-5.53134 10.0022,-6.16079 19.0469,-11.77539 z m -21.2031,5.79883 -18.5938,11.65234 -19.3516,5.29101 v -6.5664 z m 10.9629,53.21093 c -5.4004,0 -10.3255,1.8479 -14.0606,4.83594 -3.735,2.98804 -6.4629,7.30216 -6.4629,12.30078 0,4.92287 2.6853,9.2234 6.3965,12.07813 3.7111,2.85472 8.5545,4.49414 13.8437,4.49414 h 2.0723 l 0.4629,-0.46485 c 9.7348,-0.91025 17.9883,-7.52966 17.9883,-16.67187 0,-4.92288 -2.6854,-9.2234 -6.3965,-12.07813 -3.7111,-2.85472 -8.5545,-4.49414 -13.8437,-4.49414 z m 0,10 c 3.178,0 5.9534,1.04294 7.746,2.42188 1.7927,1.37893 2.4942,2.86389 2.4942,4.15039 0,2.573 -3.9952,6.85547 -10.2402,6.85547 h -2.0645 c 0,-2.6e-4 0,2.5e-4 -0.01,0 -2.3823,-0.31436 -4.531,-1.04023 -5.9589,-2.13867 -1.7927,-1.37894 -2.4942,-2.86586 -2.4942,-4.15235 0,-1.21075 0.7992,-2.96431 2.709,-4.49219 1.9098,-1.52787 4.7474,-2.64453 7.8145,-2.64453 z m -80.4395,8.62891 c -5.2892,0 -10.1346,1.63941 -13.8457,4.49414 -3.7112,2.85473 -6.3965,7.15528 -6.3965,12.07812 0,4.92285 2.6853,9.22339 6.3965,12.07813 3.7111,2.85474 8.5565,4.49414 13.8457,4.49414 h 5 v -0.83203 c 3.2703,-0.65619 6.2817,-1.89867 8.7793,-3.75586 3.7303,-2.77383 6.4609,-7.0615 6.4609,-11.98438 0,-4.92287 -2.6853,-9.22339 -6.3965,-12.07812 -3.7111,-2.85473 -8.5545,-4.49414 -13.8437,-4.49414 z m 0,10 c 3.1781,0 5.9535,1.04099 7.7461,2.41992 1.7926,1.37894 2.4941,2.86585 2.4941,4.15234 0,1.2865 -0.6543,2.64223 -2.4277,3.96094 -1.7734,1.31871 -4.5789,2.32813 -7.8125,2.32813 h -1.7949 c -2.3793,-0.3152 -4.5266,-1.04135 -5.9531,-2.13867 -1.7927,-1.37893 -2.4942,-2.86387 -2.4942,-4.1504 0,-1.28652 0.7016,-2.77341 2.4942,-4.15234 1.7925,-1.37893 4.5698,-2.41992 7.748,-2.41992 z"
       id="path3-4" /></g><path
     style="color:#000000;fill:#ffffff;-inkscape-stroke:none"
     d="m 1114.5564,1124.4112 c -12.8256,0 -24.5351,10.4647 -24.5351,24.5351 v 195.8614 c 0,12.3372 10.9718,24.5351 24.5351,24.5351 h 191.9688 c 12.459,0 24.5371,-11.1367 24.5371,-24.5351 v -195.8614 c 0,-13.2533 -12.2558,-24.5351 -24.5371,-24.5351 z m 6,26.5683 h 179.9688 c 2.4278,0 3.9688,1.539 3.9688,3.9668 v 183.8614 c 0,2.4278 -1.541,3.9687 -3.9688,3.9687 h -179.9688 c -2.4278,0 -3.9668,-1.5409 -3.9668,-3.9687 v -183.8614 c 0,-2.4278 1.539,-3.9668 3.9668,-3.9668 z"
     id="rect2-6-9"
     sodipodi:nodetypes="ssssssssssssssssss" /></svg>
